<svg width="41" height="35" viewBox="0 0 41 35" fill="none" xmlns="http://www.w3.org/2000/svg">
<path fill-rule="evenodd" clip-rule="evenodd" d="M20.7109 4.42822L3.11064 22.056L0.441406 19.7567L20.7109 0L40.5634 19.7567L37.8941 22.056L20.7109 4.42822ZM6.5306 35V20.5231L20.7109 6.47202L34.4742 20.5231V35H24.2143V24.0998H16.7905V35H6.5306ZM34.4742 2.29927H29.6362V6.47202L34.4742 11.2409V2.29927ZM20.9282 18.7805C22.3426 18.7805 23.4891 17.6339 23.4891 16.2195C23.4891 14.8052 22.3426 13.6586 20.9282 13.6586C19.5138 13.6586 18.3672 14.8052 18.3672 16.2195C18.3672 17.6339 19.5138 18.7805 20.9282 18.7805Z" fill="#02C3E2"/>
<path fill-rule="evenodd" clip-rule="evenodd" d="M20.7109 4.42822L3.11064 22.056L0.441406 19.7567L20.7109 0L40.5634 19.7567L37.8941 22.056L20.7109 4.42822Z" fill="white"/>
</svg>
