<svg width="1143" height="202" viewBox="0 0 1143 202" fill="none" xmlns="http://www.w3.org/2000/svg">
<path d="M642 174L661.659 140.801L687.994 136.842L705.798 125.877L722.49 120.394L735.472 114.303H779.982V105.47L793.335 102.12L804.092 92.0687L814.478 98.7694H828.573L844.151 92.0687L860.472 98.7694L871.228 95.419L881.243 79.8856L894.226 83.2359L900.902 79.8856L911.659 88.7183H922.415V74.4032L960.249 40.5951L965.071 1L971.748 17.7518L994.003 31.4577L1001.42 17.7518L1060.03 40.5951V31.4577H1071.53L1089.33 12.2694L1106.02 17.7518L1114.92 31.4577H1125.68L1142 22.9296" stroke="#53E7FF" stroke-opacity="0.16" stroke-width="2.5"/>
<path d="M2 18L27.1632 52.3504L60.8724 56.4472L83.6617 67.7923L105.027 73.4648L121.644 79.7676H178.617V88.9067L195.709 92.3732L209.478 102.773L222.772 95.8398H240.813L260.754 102.773L281.644 95.8398L295.412 99.3063L308.231 115.379L324.849 111.912L333.395 115.379L347.163 106.239H360.932V121.051L409.359 156.032L415.531 197L424.077 179.667L452.564 165.486L462.059 179.667L537.074 156.032V165.486H551.792L574.582 185.34L595.947 179.667L607.341 165.486H621.11L642 174.31" stroke="#53E7FF" stroke-opacity="0.16" stroke-width="2.5"/>
</svg>
