<svg width="360" height="134" viewBox="0 0 360 134" fill="none" xmlns="http://www.w3.org/2000/svg">
<path d="M460.224 111.344L425.633 132.148L399.423 122.714L377.586 123.967L359.497 120.724L344.52 119.885L303.546 97.7771L299.158 105.91L285.201 102.363L270.306 106.274L264.074 94.9462L251.099 87.9453L233.429 86.3774L221.734 72.1014L210.167 69.8435L193.231 79.1719L182.945 69.6389L175.134 69.4076L169.62 55.932L159.718 50.5893L152.606 63.7702L100.982 76.1078L76.8725 110.171L79.0488 91.43L65.3709 67.756L51.7327 76.6914L9.13211 26.5494L4.59264 34.9627L-5.99233 29.2515L-31.9149 38.0764L-44.5565 24.7379L-45.9421 7.69638L-55.8442 2.35365L-75.1048 2.09988" stroke="#53E7FF" stroke-opacity="0.16" stroke-width="2.5"/>
</svg>
