<svg width="360" height="175" viewBox="0 0 360 175" fill="none" xmlns="http://www.w3.org/2000/svg">
<path d="M-70 174L-50.3412 140.801L-24.0059 136.842L-6.20178 125.877L10.4896 120.394L23.4718 114.303H67.9822V105.47L81.3353 102.12L92.092 92.0687L102.478 98.7694H116.573L132.151 92.0687L148.472 98.7694L159.228 95.419L169.243 79.8856L182.226 83.2359L188.902 79.8856L199.659 88.7183H210.415V74.4032L248.249 40.5951L253.071 1L259.748 17.7518L282.003 31.4577L289.421 17.7518L348.027 40.5951V31.4577H359.525L377.329 12.2694L394.021 17.7518L402.923 31.4577H413.68L430 22.9296" stroke="#53E7FF" stroke-opacity="0.16" stroke-width="2.5"/>
</svg>
