<svg width="72" height="72" viewBox="0 0 72 72" fill="none" xmlns="http://www.w3.org/2000/svg">
<path d="M56 32C57.36 32 58.68 32.16 60 32.36V13.08L30 0L0 13.08V32.72C0 50.88 12.8 67.88 30 72C32.2 71.48 34.32 70.72 36.4 69.8C33.64 65.88 32 61.12 32 56C32 42.76 42.76 32 56 32Z" fill="#204181"/>
<path d="M55.9999 40C47.1599 40 39.9999 47.16 39.9999 56C39.9999 64.84 47.1599 72 55.9999 72C64.8399 72 71.9999 64.84 71.9999 56C71.9999 47.16 64.8399 40 55.9999 40ZM55.9999 45.52C58.4799 45.52 60.4799 47.56 60.4799 50C60.4799 52.44 58.4399 54.48 55.9999 54.48C53.5599 54.48 51.5199 52.44 51.5199 50C51.5199 47.56 53.5199 45.52 55.9999 45.52ZM55.9999 67C52.2799 67 49.0399 65.16 47.0399 62.32C47.2399 59.44 53.0799 58 55.9999 58C58.9199 58 64.7599 59.44 64.9599 62.32C62.9599 65.16 59.7199 67 55.9999 67Z" fill="#204181"/>
</svg>
