<svg width="10" height="9" viewBox="0 0 10 9" fill="none" xmlns="http://www.w3.org/2000/svg">
<path d="M4.87067 7.42098C4.95016 7.37309 5.04964 7.37318 5.12905 7.42121L7.20405 8.67621L7.20412 8.67625C7.39393 8.79114 7.62631 8.62237 7.57617 8.40675L7.0262 6.04687C7.00514 5.95652 7.03585 5.86194 7.10596 5.80119L8.94096 4.21119L8.94104 4.21111C9.10941 4.06536 9.0173 3.79164 8.79985 3.77434L8.79852 3.77423L6.38352 3.56923C6.29113 3.56139 6.21067 3.50305 6.17449 3.41767L5.22949 1.18767L5.22915 1.18689C5.14492 0.986207 4.85442 0.986207 4.77019 1.18689L4.76978 1.18786L3.82478 3.41286C3.78856 3.49814 3.70814 3.55639 3.61582 3.56423L1.20082 3.76923L1.19949 3.76934L1.19949 3.76934C0.982038 3.78664 0.88993 4.06036 1.0583 4.20611L1.05838 4.20619L2.89338 5.79619C2.9635 5.85694 2.9942 5.95152 2.97315 6.04187L2.42317 8.40175L4.87067 7.42098ZM4.87067 7.42098L2.79567 8.67098L2.79522 8.67125M4.87067 7.42098L2.79522 8.67125M2.79522 8.67125C2.60544 8.78612 2.37311 8.61743 2.42315 8.40187L2.79522 8.67125Z" stroke="#FFC368" stroke-width="0.5" stroke-linejoin="round"/>
</svg>
