<svg width="83" height="106" viewBox="0 0 83 106" fill="none" xmlns="http://www.w3.org/2000/svg">
<path fill-rule="evenodd" clip-rule="evenodd" d="M60.2447 56.4267C56.4817 56.1652 52.8237 57.8691 50.5751 60.8998C46.0607 66.9844 36.8522 66.9844 32.3378 60.8998C30.0892 57.8691 26.4312 56.1652 22.6682 56.4267L20.8584 56.5525C13.8442 57.0399 8.60184 50.1997 10.85 43.5329C12.0466 39.9844 11.1194 36.0512 8.45494 33.4213C3.32638 28.3591 5.23951 19.6738 12.0195 17.2386L12.7818 16.9648C16.301 15.7008 18.8641 12.59 19.4675 8.89734C20.6272 1.80061 28.4199 -2.14904 34.7684 1.21956L36.0486 1.89884C39.4308 3.69346 43.482 3.69347 46.8643 1.89884L48.1444 1.21956C54.493 -2.14904 62.2856 1.80061 63.4453 8.89735C64.0487 12.59 66.6119 15.7008 70.1311 16.9648L70.8933 17.2386C77.6734 19.6738 79.5865 28.3591 74.4579 33.4213C71.7935 36.0512 70.8662 39.9844 72.0629 43.5329C74.311 50.1997 69.0686 57.0399 62.0545 56.5525L60.2447 56.4267ZM41.4564 50.5713C51.8588 50.5713 60.2917 42.1323 60.2917 31.7223C60.2917 21.3123 51.8588 12.8733 41.4564 12.8733C31.054 12.8733 22.6212 21.3123 22.6212 31.7223C22.6212 42.1323 31.054 50.5713 41.4564 50.5713ZM41.4693 104.26C41.464 104.593 41.4533 104.917 41.4375 105.233C8.28247 105.233 -0.00209348 76.3315 3.96776e-07 61.8806C32.9405 66.1804 41.2647 90.1193 41.4693 103.27C41.6739 90.1193 49.9982 66.1804 82.9387 61.8806C82.9408 76.3315 74.6562 105.233 41.5011 105.233C41.4854 104.917 41.4746 104.593 41.4693 104.26ZM42.6522 26.0293H47.707V23.8677H34.6174V26.114H37.3746C38.665 26.114 39.6769 26.3542 40.4103 26.8345C41.153 27.3055 41.6218 27.9789 41.8167 28.8548H34.5896V31.0163H41.7471C41.5057 31.8357 41.0091 32.4997 40.2571 33.0083C39.5144 33.5075 38.5211 33.7571 37.2771 33.7571H34.6174V35.8338H37.0265C37.4071 35.8338 37.6902 35.8856 37.8759 35.9892C38.0616 36.0834 38.2333 36.2482 38.3911 36.4837L43.3206 43.5192C43.5806 43.9431 43.9705 44.155 44.4903 44.155H47.1361L41.5104 36.2576C41.204 35.7961 40.828 35.4477 40.3824 35.2122C41.5614 34.8637 42.5083 34.3222 43.2232 33.5875C43.9473 32.8529 44.4068 31.9958 44.6017 31.0163H47.707V28.8548H44.6296C44.5275 28.2614 44.3186 27.7293 44.003 27.2584C43.6873 26.778 43.2371 26.3683 42.6522 26.0293Z" fill="url(#paint0_linear_1_202)"/>
<defs>
<linearGradient id="paint0_linear_1_202" x1="23.4271" y1="-7.27595" x2="42.0344" y2="105.093" gradientUnits="userSpaceOnUse">
<stop stop-color="#FFCF24"/>
<stop offset="1" stop-color="#FF9A24"/>
</linearGradient>
</defs>
</svg>
