<svg width="169" height="43" viewBox="0 0 169 43" fill="none" xmlns="http://www.w3.org/2000/svg">
<g filter="url(#filter0_d_715_548)">
<rect x="8" y="5" width="153" height="27" rx="2" fill="white"/>
<path d="M12.6016 23.4375H16.3945V25H17.5469V23.4375H18.6055V22.4141H17.5469V17H16.0586L12.6016 22.4609V23.4375ZM16.4023 22.4141H13.8672V22.3516L16.3398 18.4375H16.4023V22.4141ZM22.6074 25.1094C24.2168 25.1094 25.3652 23.9727 25.3613 22.4141C25.3652 20.8672 24.2871 19.7422 22.8301 19.7422C22.2363 19.7422 21.6855 19.9687 21.373 20.2734H21.3262L21.5801 18.0352H24.9746V17H20.5762L20.127 21.0312L21.2324 21.1953C21.5332 20.9258 22.0723 20.7422 22.5566 20.7422C23.5059 20.75 24.1934 21.4609 24.1934 22.4375C24.1934 23.3984 23.5254 24.0937 22.6074 24.0937C21.834 24.0937 21.2207 23.6016 21.1582 22.9141H19.9863C20.0332 24.1875 21.1387 25.1094 22.6074 25.1094ZM27.2939 25.0742C27.7197 25.0742 28.0752 24.7266 28.0752 24.293C28.0752 23.8672 27.7197 23.5156 27.2939 23.5156C26.8643 23.5156 26.5127 23.8672 26.5127 24.293C26.5127 24.7266 26.8643 25.0742 27.2939 25.0742ZM32.1084 25.1328C33.9561 25.1328 35.0381 23.625 35.0381 21.0039C35.0381 18.4023 33.9404 16.8906 32.1084 16.8906C30.2725 16.8906 29.1787 18.3984 29.1748 21.0039C29.1748 23.6211 30.2568 25.1289 32.1084 25.1328ZM32.1084 24.0898C31.0264 24.0898 30.374 23.0039 30.374 21.0039C30.3779 19.0117 31.0303 17.9141 32.1084 17.9141C33.1826 17.9141 33.8389 19.0117 33.8389 21.0039C33.8389 23.0039 33.1865 24.0898 32.1084 24.0898ZM39.209 25.1328C41.0566 25.1328 42.1387 23.625 42.1387 21.0039C42.1387 18.4023 41.041 16.8906 39.209 16.8906C37.373 16.8906 36.2793 18.3984 36.2754 21.0039C36.2754 23.6211 37.3574 25.1289 39.209 25.1328ZM39.209 24.0898C38.127 24.0898 37.4746 23.0039 37.4746 21.0039C37.4785 19.0117 38.1309 17.9141 39.209 17.9141C40.2832 17.9141 40.9395 19.0117 40.9395 21.0039C40.9395 23.0039 40.2871 24.0898 39.209 24.0898ZM47.7002 23.5C47.7041 24.4023 48.2705 25.1641 49.3291 25.1641C50.376 25.1641 50.9502 24.4023 50.9502 23.5V23.0781C50.9502 22.1719 50.3916 21.4141 49.3291 21.4141C48.2861 21.4141 47.7041 22.1758 47.7002 23.0781V23.5ZM43.6768 18.9219C43.6768 19.8242 44.2471 20.5859 45.3057 20.5859C46.3486 20.5859 46.9268 19.8281 46.9229 18.9219V18.5C46.9268 17.5937 46.3643 16.8359 45.3057 16.8359C44.2666 16.8359 43.6768 17.5937 43.6768 18.5V18.9219ZM44.0049 25H44.9385L50.4385 17H49.5049L44.0049 25ZM48.6104 23.0781C48.6143 22.6289 48.8096 22.1953 49.3291 22.1953C49.8682 22.1953 50.0361 22.6289 50.0361 23.0781V23.5C50.0361 23.9492 49.8525 24.3828 49.3291 24.3828C48.7979 24.3828 48.6143 23.9453 48.6104 23.5V23.0781ZM44.5908 18.5C44.5908 18.0547 44.7861 17.6172 45.3057 17.6172C45.8447 17.6172 46.0127 18.0508 46.0127 18.5V18.9219C46.0127 19.3711 45.8291 19.8047 45.3057 19.8047C44.7744 19.8047 44.5908 19.3711 44.5908 18.9219V18.5Z" fill="#3EC87B"/>
<path d="M61.8281 25H66.875V24.1406H63.1563V24.0781L64.9531 22.1562C66.3281 20.6836 66.7344 19.9961 66.7344 19.1094C66.7344 17.875 65.7344 16.8906 64.3281 16.8906C62.9258 16.8906 61.8594 17.8437 61.8594 19.25H62.7813C62.7813 18.3398 63.3711 17.7344 64.2969 17.7344C65.1641 17.7344 65.8281 18.2656 65.8281 19.1094C65.8281 19.8477 65.3945 20.3945 64.4687 21.4062L61.8281 24.2969V25ZM69.1758 23.9766C69.5625 23.9766 69.8789 23.6602 69.8789 23.2734C69.8789 22.8867 69.5625 22.5703 69.1758 22.5703C68.7891 22.5703 68.4727 22.8867 68.4727 23.2734C68.4727 23.6602 68.7891 23.9766 69.1758 23.9766ZM69.1758 19.9297C69.5625 19.9297 69.8789 19.6133 69.8789 19.2266C69.8789 18.8398 69.5625 18.5234 69.1758 18.5234C68.7891 18.5234 68.4727 18.8398 68.4727 19.2266C68.4727 19.6133 68.7891 19.9297 69.1758 19.9297ZM71.3301 23.3594H75.0957V25H76.0176V23.3594H77.1113V22.5H76.0176V17H74.8457L71.3301 22.5625V23.3594ZM75.0957 22.5H72.377V22.4375L75.0332 18.2344H75.0957V22.5ZM81.1846 25.1094C82.9502 25.1094 83.9658 23.6133 83.9658 21C83.9658 18.4063 82.9346 16.8906 81.1846 16.8906C79.4346 16.8906 78.4033 18.4063 78.4033 21C78.4033 23.6133 79.4189 25.1094 81.1846 25.1094ZM81.1846 24.25C80.0205 24.25 79.3408 23.082 79.3408 21C79.3408 18.9219 80.0283 17.7344 81.1846 17.7344C82.3408 17.7344 83.0283 18.9219 83.0283 21C83.0283 23.082 82.3486 24.25 81.1846 24.25ZM88.6846 25H89.6533V22.0781H91.4033C93.2666 22.0781 94.1064 20.9453 94.1064 19.5312C94.1064 18.1172 93.2666 17 91.3877 17H88.6846V25ZM89.6533 21.2188V17.8594H91.3564C92.6572 17.8594 93.1533 18.5703 93.1533 19.5312C93.1533 20.4922 92.6572 21.2188 91.3721 21.2188H89.6533ZM95.667 17V25H96.5732V18.9219H96.6514L99.1514 25H100.026L102.526 18.9219H102.604V25H103.511V17H102.354L99.6357 23.6406H99.542L96.8232 17H95.667ZM106.703 23.9062H105.703L105.656 24.3437C105.543 25.4023 105.32 26.457 105.219 26.9531H105.922C106.109 26.4219 106.508 25.2187 106.641 24.3281L106.703 23.9062ZM114.302 17H113.333L111.333 18.3281V19.3125L113.286 18.0156H113.333V25H114.302V17ZM116.603 25H121.649V24.1406H117.931V24.0781L119.728 22.1562C121.103 20.6836 121.509 19.9961 121.509 19.1094C121.509 17.875 120.509 16.8906 119.103 16.8906C117.7 16.8906 116.634 17.8437 116.634 19.25H117.556C117.556 18.3398 118.146 17.7344 119.071 17.7344C119.938 17.7344 120.603 18.2656 120.603 19.1094C120.603 19.8477 120.169 20.3945 119.243 21.4062L116.603 24.2969V25ZM125.888 19H124.606V17.5625H123.685V19H122.778V19.7812H123.685V23.5312C123.685 24.5781 124.528 25.0781 125.31 25.0781C125.653 25.0781 125.872 25.0156 125.997 24.9687L125.81 24.1406C125.731 24.1562 125.606 24.1875 125.403 24.1875C124.997 24.1875 124.606 24.0625 124.606 23.2812V19.7812H125.888V19ZM128.325 21.3906C128.325 20.3437 128.993 19.75 129.903 19.75C130.771 19.75 131.294 20.2969 131.294 21.25V25H132.216V21.1875C132.216 19.6445 131.396 18.9219 130.169 18.9219C129.224 18.9219 128.685 19.3164 128.403 19.9375H128.325V17H127.403V25H128.325V21.3906ZM139.59 25C142.027 25 143.402 23.4844 143.402 20.9844C143.402 18.5 142.027 17 139.699 17H137.121V25H139.59ZM138.09 24.1406V17.8594H139.637C141.512 17.8594 142.465 19.0469 142.465 20.9844C142.465 22.9375 141.512 24.1406 139.527 24.1406H138.09ZM147.418 25.125C148.637 25.125 149.527 24.5156 149.809 23.6094L148.918 23.3594C148.684 23.9844 148.141 24.2969 147.418 24.2969C146.336 24.2969 145.59 23.5977 145.547 22.3125H149.902V21.9219C149.902 19.6875 148.574 18.9219 147.324 18.9219C145.699 18.9219 144.621 20.2031 144.621 22.0469C144.621 23.8906 145.684 25.125 147.418 25.125ZM145.547 21.5156C145.609 20.582 146.27 19.75 147.324 19.75C148.324 19.75 148.965 20.5 148.965 21.5156H145.547ZM153.742 25.125C155.07 25.125 155.945 24.3125 156.102 23.25H155.18C155.008 23.9062 154.461 24.2969 153.742 24.2969C152.648 24.2969 151.945 23.3906 151.945 22C151.945 20.6406 152.664 19.75 153.742 19.75C154.555 19.75 155.039 20.25 155.18 20.7969H156.102C155.945 19.6719 154.992 18.9219 153.727 18.9219C152.102 18.9219 151.023 20.2031 151.023 22.0312C151.023 23.8281 152.055 25.125 153.742 25.125Z" fill="#374151"/>
<rect opacity="0.1" x="57" y="14" width="14" height="1" rx="0.5" transform="rotate(90 57 14)" fill="black"/>
</g>
<path d="M8 7C8 5.89543 8.89543 5 10 5H159C160.105 5 161 5.89543 161 7V11H8V7Z" fill="#F6821F"/>
<defs>
<filter id="filter0_d_715_548" x="0" y="0" width="169" height="43" filterUnits="userSpaceOnUse" color-interpolation-filters="sRGB">
<feFlood flood-opacity="0" result="BackgroundImageFix"/>
<feColorMatrix in="SourceAlpha" type="matrix" values="0 0 0 0 0 0 0 0 0 0 0 0 0 0 0 0 0 0 127 0" result="hardAlpha"/>
<feOffset dy="3"/>
<feGaussianBlur stdDeviation="4"/>
<feComposite in2="hardAlpha" operator="out"/>
<feColorMatrix type="matrix" values="0 0 0 0 0 0 0 0 0 0 0 0 0 0 0 0 0 0 0.08 0"/>
<feBlend mode="normal" in2="BackgroundImageFix" result="effect1_dropShadow_715_548"/>
<feBlend mode="normal" in="SourceGraphic" in2="effect1_dropShadow_715_548" result="shape"/>
</filter>
</defs>
</svg>
