<svg width="18" height="18" viewBox="0 0 18 18" fill="none" xmlns="http://www.w3.org/2000/svg">
<path d="M8.1665 4.83342H9.83317V6.50008H8.1665V4.83342ZM8.99984 13.1667C9.45817 13.1667 9.83317 12.7917 9.83317 12.3334V9.00008C9.83317 8.54175 9.45817 8.16675 8.99984 8.16675C8.5415 8.16675 8.1665 8.54175 8.1665 9.00008V12.3334C8.1665 12.7917 8.5415 13.1667 8.99984 13.1667ZM8.99984 0.666748C4.39984 0.666748 0.666504 4.40008 0.666504 9.00008C0.666504 13.6001 4.39984 17.3334 8.99984 17.3334C13.5998 17.3334 17.3332 13.6001 17.3332 9.00008C17.3332 4.40008 13.5998 0.666748 8.99984 0.666748ZM8.99984 15.6667C5.32484 15.6667 2.33317 12.6751 2.33317 9.00008C2.33317 5.32508 5.32484 2.33341 8.99984 2.33341C12.6748 2.33341 15.6665 5.32508 15.6665 9.00008C15.6665 12.6751 12.6748 15.6667 8.99984 15.6667Z" fill="#A7B1BC"/>
</svg>
