<svg width="24" height="23" viewBox="0 0 24 23" fill="none" xmlns="http://www.w3.org/2000/svg">
<path d="M22.2001 8.05333L15.7468 7.49333L13.2268 1.56C12.7734 0.48 11.2268 0.48 10.7734 1.56L8.25344 7.50667L1.81344 8.05333C0.640106 8.14667 0.160105 9.61333 1.05344 10.3867L5.94677 14.6267L4.48011 20.92C4.21344 22.0667 5.45344 22.9733 6.46677 22.36L12.0001 19.0267L17.5334 22.3733C18.5468 22.9867 19.7868 22.08 19.5201 20.9333L18.0534 14.6267L22.9468 10.3867C23.8401 9.61333 23.3734 8.14667 22.2001 8.05333ZM12.0001 16.5333V4.13333L14.2801 9.52L20.1201 10.0267L15.6934 13.8667L17.0268 19.5733L12.0001 16.5333Z" fill="#FCC04E"/>
</svg>
