<svg width="34" height="35" viewBox="0 0 34 35" fill="none" xmlns="http://www.w3.org/2000/svg">
<path d="M4.38197 25.5712V17.1305C4.38197 13.7727 5.71589 10.5523 8.09028 8.17791C10.4647 5.80352 13.685 4.4696 17.0429 4.4696C20.4008 4.4696 23.6212 5.80352 25.9955 8.17791C28.3699 10.5523 29.7039 13.7727 29.7039 17.1305V25.5712" stroke="#1787FC" stroke-width="2.7375" stroke-linecap="round" stroke-linejoin="round"/>
<path d="M29.7039 26.9795C29.7039 27.7257 29.4074 28.4413 28.8798 28.969C28.3521 29.4966 27.6365 29.793 26.8903 29.793H25.4835C24.7373 29.793 24.0217 29.4966 23.4941 28.969C22.9664 28.4413 22.67 27.7257 22.67 26.9795V22.7592C22.67 22.013 22.9664 21.2974 23.4941 20.7697C24.0217 20.2421 24.7373 19.9456 25.4835 19.9456H29.7039V26.9795ZM4.38197 26.9795C4.38197 27.7257 4.6784 28.4413 5.20604 28.969C5.73368 29.4966 6.44932 29.793 7.19552 29.793H8.60229C9.34848 29.793 10.0641 29.4966 10.5918 28.969C11.1194 28.4413 11.4158 27.7257 11.4158 26.9795V22.7592C11.4158 22.013 11.1194 21.2974 10.5918 20.7697C10.0641 20.2421 9.34848 19.9456 8.60229 19.9456H4.38197V26.9795Z" stroke="#1787FC" stroke-width="2.7375" stroke-linecap="round" stroke-linejoin="round"/>
</svg>
