<svg width="29" height="26" viewBox="0 0 29 26" fill="none" xmlns="http://www.w3.org/2000/svg">
<path d="M25.2545 3.42178C24.6331 2.80007 23.8953 2.30688 23.0832 1.9704C22.2711 1.63391 21.4007 1.46072 20.5217 1.46072C19.6427 1.46072 18.7722 1.63391 17.9602 1.9704C17.1481 2.30688 16.4103 2.80007 15.7889 3.42178L14.4992 4.71144L13.2095 3.42178C11.9543 2.16655 10.2518 1.46137 8.47668 1.46137C6.70153 1.46137 4.99908 2.16655 3.74385 3.42178C2.48863 4.677 1.78345 6.37945 1.78345 8.15461C1.78345 9.92977 2.48863 11.6322 3.74385 12.8874L5.03352 14.1771L14.4992 23.6428L23.9649 14.1771L25.2545 12.8874C25.8762 12.266 26.3694 11.5282 26.7059 10.7161C27.0424 9.90405 27.2156 9.03364 27.2156 8.15461C27.2156 7.27558 27.0424 6.40517 26.7059 5.5931C26.3694 4.78102 25.8762 4.0432 25.2545 3.42178V3.42178Z" stroke="#20BFA9" stroke-width="2.7375" stroke-linecap="round" stroke-linejoin="round"/>
</svg>
