<svg width="22" height="20" viewBox="0 0 22 20" fill="none" xmlns="http://www.w3.org/2000/svg">
<path d="M19.4231 1.12275C16.5202 -0.917266 12.9356 0.0347417 11.0003 2.36943C9.06505 0.0347417 5.48042 -0.9286 2.57754 1.12275C1.03813 2.21076 0.0705043 4.04677 0.00452968 5.98479C-0.149411 10.3822 3.63314 13.9069 9.40592 19.3129L9.51587 19.4149C10.3516 20.1969 11.6381 20.1969 12.4737 19.4036L12.5947 19.2902C18.3675 13.8955 22.139 10.3708 21.9961 5.97346C21.9301 4.04678 20.9625 2.21076 19.4231 1.12275ZM11.1103 17.6242L11.0003 17.7376L10.8903 17.6242C5.65636 12.7395 2.20368 9.50949 2.20368 6.23413C2.20368 3.96744 3.85305 2.26743 6.0522 2.26743C7.74555 2.26743 9.39492 3.38944 9.97769 4.94212H12.0339C12.6057 3.38944 14.2551 2.26743 15.9484 2.26743C18.1476 2.26743 19.7969 3.96744 19.7969 6.23413C19.7969 9.50949 16.3442 12.7395 11.1103 17.6242Z" fill="white"/>
</svg>
