<svg width="76" height="118" viewBox="0 0 76 118" fill="none" xmlns="http://www.w3.org/2000/svg">
<path opacity="0.78" fill-rule="evenodd" clip-rule="evenodd" d="M33.9866 0C34.6665 1.80685 34.4626 6.70791 28.2075 11.8574C21.9524 17.0069 7.69719 28.232 1.35147 33.2008C0.331618 34.443 -1.09617 37.605 1.35147 40.3152C3.7991 43.0255 5.99769 45.2841 6.79102 46.0746C8.49077 47.0909 12.4342 48.5138 14.6099 46.0746C17.3295 43.0255 22.769 41.6704 25.4883 42.3479C28.2075 43.0255 38.4063 41.3316 39.4262 37.2662C39.9928 40.5411 35.8227 50.3432 14.6099 63.3525L25.4883 78.259V80.2917H11.5503V93.1655H66.9621V80.2917H56.4237C57.6701 75.4358 62.8147 65.9273 73.4212 66.7403C73.7611 56.2381 73.1492 32.9975 67.982 24.0536C62.8147 15.1097 58.1234 11.5186 56.4237 10.8411C53.4774 11.1799 47.0411 11.2476 44.8654 8.80837C44.1214 7.97431 43.6064 6.93744 43.0767 5.87113C41.6701 3.03937 40.1603 0 33.9866 0ZM75.9437 100.521H2.44563V117.684H75.9437V100.521Z" fill="#3EC87B"/>
</svg>
