<svg width="18" height="18" viewBox="0 0 18 18" fill="none" xmlns="http://www.w3.org/2000/svg">
<path d="M8.1665 4.83335H9.83317V6.50002H8.1665V4.83335ZM8.99984 13.1667C9.45817 13.1667 9.83317 12.7917 9.83317 12.3334V9.00002C9.83317 8.54169 9.45817 8.16669 8.99984 8.16669C8.5415 8.16669 8.1665 8.54169 8.1665 9.00002V12.3334C8.1665 12.7917 8.5415 13.1667 8.99984 13.1667ZM8.99984 0.666687C4.39984 0.666687 0.666504 4.40002 0.666504 9.00002C0.666504 13.6 4.39984 17.3334 8.99984 17.3334C13.5998 17.3334 17.3332 13.6 17.3332 9.00002C17.3332 4.40002 13.5998 0.666687 8.99984 0.666687ZM8.99984 15.6667C5.32484 15.6667 2.33317 12.675 2.33317 9.00002C2.33317 5.32502 5.32484 2.33335 8.99984 2.33335C12.6748 2.33335 15.6665 5.32502 15.6665 9.00002C15.6665 12.675 12.6748 15.6667 8.99984 15.6667Z" fill="#A7B1BC"/>
</svg>
