<svg width="18" height="18" viewBox="0 0 18 18" fill="none" xmlns="http://www.w3.org/2000/svg">
<path d="M8.1665 4.83329H9.83317V6.49996H8.1665V4.83329ZM8.99984 13.1666C9.45817 13.1666 9.83317 12.7916 9.83317 12.3333V8.99996C9.83317 8.54163 9.45817 8.16663 8.99984 8.16663C8.5415 8.16663 8.1665 8.54163 8.1665 8.99996V12.3333C8.1665 12.7916 8.5415 13.1666 8.99984 13.1666ZM8.99984 0.666626C4.39984 0.666626 0.666504 4.39996 0.666504 8.99996C0.666504 13.6 4.39984 17.3333 8.99984 17.3333C13.5998 17.3333 17.3332 13.6 17.3332 8.99996C17.3332 4.39996 13.5998 0.666626 8.99984 0.666626ZM8.99984 15.6666C5.32484 15.6666 2.33317 12.675 2.33317 8.99996C2.33317 5.32496 5.32484 2.33329 8.99984 2.33329C12.6748 2.33329 15.6665 5.32496 15.6665 8.99996C15.6665 12.675 12.6748 15.6666 8.99984 15.6666Z" fill="#323232"/>
</svg>
