<svg width="14" height="14" viewBox="0 0 14 14" fill="none" xmlns="http://www.w3.org/2000/svg">
<path d="M6.05889 10.3367C6.36222 10.64 6.85222 10.64 7.15556 10.3367L9.94778 7.54444C10.2511 7.24111 10.2511 6.75111 9.94778 6.44778L7.15556 3.65556C6.85222 3.35222 6.36222 3.35222 6.05889 3.65556C5.75556 3.95889 5.75556 4.44889 6.05889 4.75222L7.52111 6.22222H0.777778C0.35 6.22222 0 6.57222 0 7C0 7.42778 0.35 7.77778 0.777778 7.77778H7.52111L6.05889 9.24C5.75556 9.54333 5.76333 10.0411 6.05889 10.3367ZM12.4444 0H1.55556C0.692222 0 0 0.7 0 1.55556V3.88889C0 4.31667 0.35 4.66667 0.777778 4.66667C1.20556 4.66667 1.55556 4.31667 1.55556 3.88889V2.33333C1.55556 1.90556 1.90556 1.55556 2.33333 1.55556H11.6667C12.0944 1.55556 12.4444 1.90556 12.4444 2.33333V11.6667C12.4444 12.0944 12.0944 12.4444 11.6667 12.4444H2.33333C1.90556 12.4444 1.55556 12.0944 1.55556 11.6667V10.1111C1.55556 9.68333 1.20556 9.33333 0.777778 9.33333C0.35 9.33333 0 9.68333 0 10.1111V12.4444C0 13.3 0.7 14 1.55556 14H12.4444C13.3 14 14 13.3 14 12.4444V1.55556C14 0.7 13.3 0 12.4444 0Z" fill="#204181"/>
</svg>
