<svg width="14" height="18" viewBox="0 0 14 18" fill="none" xmlns="http://www.w3.org/2000/svg">
<path d="M9.26625 0.531C8.93375 0.189 8.4875 0 8.02375 0H1.75C0.7875 0 0 0.81 0 1.8V16.2C0 17.19 0.77875 18 1.74125 18H12.25C13.2125 18 14 17.19 14 16.2V6.147C14 5.67 13.8162 5.211 13.4837 4.878L9.26625 0.531ZM9.625 14.4H4.375C3.89375 14.4 3.5 13.995 3.5 13.5C3.5 13.005 3.89375 12.6 4.375 12.6H9.625C10.1062 12.6 10.5 13.005 10.5 13.5C10.5 13.995 10.1062 14.4 9.625 14.4ZM9.625 10.8H4.375C3.89375 10.8 3.5 10.395 3.5 9.9C3.5 9.405 3.89375 9 4.375 9H9.625C10.1062 9 10.5 9.405 10.5 9.9C10.5 10.395 10.1062 10.8 9.625 10.8ZM7.875 5.4V1.35L12.6875 6.3H8.75C8.26875 6.3 7.875 5.895 7.875 5.4Z" fill="#204181"/>
</svg>
