<svg width="54" height="42" viewBox="0 0 54 42" fill="none" xmlns="http://www.w3.org/2000/svg">
<path fill-rule="evenodd" clip-rule="evenodd" d="M27.1022 33.5233C34.1219 33.5233 39.8125 27.8328 39.8125 20.8131C39.8125 13.7934 34.1219 8.10278 27.1022 8.10278C20.0825 8.10278 14.3919 13.7934 14.3919 20.8131C14.3919 27.8328 20.0825 33.5233 27.1022 33.5233ZM28.1706 17.0362H30.7939V15.5794H23.3715V17.0979H24.93C25.537 17.0979 26.0179 17.2058 26.3729 17.4216C26.7329 17.6322 26.9747 17.9251 27.0981 18.3002H23.3637V19.7647H27.0518C26.9078 20.1244 26.6583 20.4147 26.3034 20.6357C25.9536 20.8566 25.4856 20.9671 24.8992 20.9671H23.3715V22.3699H24.822C25.0278 22.3699 25.1821 22.3982 25.285 22.4547C25.393 22.5112 25.4907 22.6063 25.5781 22.7399L27.9237 26.3085C28.0883 26.586 28.3455 26.7247 28.6953 26.7247H30.5702L27.7771 22.6088C27.6691 22.4444 27.5456 22.3031 27.4068 22.1849C27.273 22.0667 27.1264 21.9717 26.967 21.8997C27.5431 21.6942 28.0086 21.4064 28.3635 21.0365C28.7184 20.6665 28.955 20.2426 29.0734 19.7647H30.7939V18.3002H29.0811C29.0193 18.0485 28.9165 17.8172 28.7724 17.6066C28.6284 17.3907 28.4278 17.2006 28.1706 17.0362Z" fill="#F6821F"/>
<path d="M47.9719 22.0426C47.6187 21.618 46.9882 21.5602 46.5636 21.9133L39.6444 27.6688C39.2198 28.022 39.1619 28.6525 39.5151 29.0771C39.8683 29.5017 40.4988 29.5596 40.9234 29.2064L47.0738 24.0904L52.1897 30.2408C52.5429 30.6654 53.1734 30.7232 53.598 30.3701C54.0226 30.0169 54.0805 29.3864 53.7273 28.9618L47.9719 22.0426ZM46.2072 22.5907C45.3109 32.3534 37.0986 39.9999 27.1015 39.9999V41.9999C38.1419 41.9999 47.2089 33.5562 48.1989 22.7736L46.2072 22.5907ZM27.1015 39.9999C17.1044 39.9999 8.89213 32.3534 7.99581 22.5907L6.00419 22.7736C6.99415 33.5562 16.0612 41.9999 27.1015 41.9999V39.9999Z" fill="#213053"/>
<path d="M7.6395 20.0867C7.2149 20.4398 6.58439 20.382 6.23121 19.9574L0.475731 13.0382C0.122546 12.6136 0.180434 11.9831 0.605027 11.6299C1.02962 11.2768 1.66013 11.3346 2.01332 11.7592L7.1293 17.9096L13.2796 12.7936C13.7042 12.4404 14.3347 12.4983 14.6879 12.9229C15.0411 13.3475 14.9832 13.978 14.5586 14.3312L7.6395 20.0867ZM46.2072 19.4093C45.3109 9.64657 37.0986 2.00011 27.1015 2.00011V0.000114441C38.1419 0.000114441 47.2089 8.44384 48.1989 19.2264L46.2072 19.4093ZM27.1015 2.00011C17.1044 2.00011 8.89213 9.64657 7.99581 19.4093L6.00419 19.2264C6.99415 8.44384 16.0612 0.000114441 27.1015 0.000114441V2.00011Z" fill="#F6821F"/>
</svg>
