<svg width="34" height="41" viewBox="0 0 34 41" fill="none" xmlns="http://www.w3.org/2000/svg">
<path fill-rule="evenodd" clip-rule="evenodd" d="M20.3871 2.03045C18.9244 0.921991 15.6001 1.199 14.0043 2.3075C0.972562 -4.48174 8.15343 7.4342 10.68 7.4342H22.6478C24.5095 7.4342 31.2912 -3.65037 20.3871 2.03049V2.03045Z" fill="url(#paint0_linear_731_1596)"/>
<path d="M10.6794 11.3134C8.81771 11.3134 8.81771 8.54236 10.6794 8.54236H22.5139C24.2425 8.54236 24.2425 11.3134 22.5139 11.3134H10.6794Z" fill="url(#paint1_linear_731_1596)"/>
<path fill-rule="evenodd" clip-rule="evenodd" d="M20.4907 40.7496C6.3954 42.6828 -11.4042 33.3291 9.74903 12.4198H23.1793C39.9533 28.2197 33.5968 37.5168 23.336 40.1898L18.9732 33.8129C18.6788 33.351 18.3174 33.0023 17.8891 32.7666C19.0223 32.4179 19.9324 31.8759 20.6195 31.1407C21.3155 30.4055 21.7572 29.5477 21.9445 28.5675H24.9292V26.4042H21.9713C21.8732 25.8104 21.6724 25.2778 21.369 24.8066C21.0656 24.3258 20.6329 23.9158 20.0707 23.5765H24.9292V21.4133H12.3481V23.6613H14.9981C16.2384 23.6613 17.211 23.9017 17.9159 24.3824C18.6297 24.8537 19.0803 25.5276 19.2677 26.4042H12.3213V28.5675H19.2008C18.9688 29.3875 18.4914 30.052 17.7687 30.561C17.0548 31.0606 16.1001 31.3104 14.9044 31.3104H12.3481V33.3888H14.6635C15.0294 33.3888 15.3015 33.4406 15.48 33.5443C15.6584 33.6385 15.8235 33.8035 15.9752 34.0391L20.4907 40.7496Z" fill="url(#paint2_linear_731_1596)"/>
<defs>
<linearGradient id="paint0_linear_731_1596" x1="16.4326" y1="0.216431" x2="25.5764" y2="40.6545" gradientUnits="userSpaceOnUse">
<stop stop-color="#02C3E2"/>
<stop offset="1" stop-color="#1264B0"/>
</linearGradient>
<linearGradient id="paint1_linear_731_1596" x1="16.5468" y1="8.54236" x2="26.2674" y2="39.4441" gradientUnits="userSpaceOnUse">
<stop stop-color="#02C3E2"/>
<stop offset="1" stop-color="#1264B0"/>
</linearGradient>
<linearGradient id="paint2_linear_731_1596" x1="7.5" y1="9.00183" x2="27.5" y2="44.5018" gradientUnits="userSpaceOnUse">
<stop stop-color="#02C3E2"/>
<stop offset="1" stop-color="#1264B0"/>
</linearGradient>
</defs>
</svg>
