<svg width="45" height="46" viewBox="0 0 45 46" fill="none" xmlns="http://www.w3.org/2000/svg">
<path fill-rule="evenodd" clip-rule="evenodd" d="M7.91334 24.478H0V45.6376H7.91334V24.478ZM3.44215 43.5731C4.10722 43.5731 4.64636 43.034 4.64636 42.3689C4.64636 41.7039 4.10722 41.1647 3.44215 41.1647C2.77709 41.1647 2.23795 41.7039 2.23795 42.3689C2.23795 43.034 2.77709 43.5731 3.44215 43.5731Z" fill="#F6821F"/>
<path fill-rule="evenodd" clip-rule="evenodd" d="M9.11281 28.6891C9.69555 28.5114 10.6821 28.2931 11.7002 28.23C12.7468 28.165 13.684 28.274 14.2763 28.6195C14.58 28.7968 14.852 28.9838 15.1526 29.1906L15.1526 29.1906L15.1526 29.1906C15.3213 29.3066 15.4989 29.4288 15.6962 29.5589C16.2171 29.9023 16.8092 30.2524 17.5302 30.5089C18.9983 31.031 20.8658 31.1188 23.6389 30.2877C26.3089 29.4875 28.2222 29.1556 29.6455 29.4699C30.8075 29.7265 31.7416 30.4422 32.4953 32.0308L22.5336 36.1774L23.11 37.5622L33.7708 33.1246L34.4463 32.8434L34.1819 32.1612C34.1119 31.9806 34.0395 31.806 33.9646 31.6371L33.4485 30.394L38.3258 28.696C39.1382 28.5306 40.3911 28.4786 41.526 28.8358C42.6029 29.1747 43.5445 29.8653 43.9716 31.1967C43.9389 31.2368 43.892 31.2894 43.8264 31.3547C43.5677 31.6118 43.1396 31.9477 42.55 32.3511C41.3801 33.1516 39.6937 34.1379 37.7744 35.1857C33.9424 37.2777 29.2589 39.5736 26.1141 41.0492L26.0199 41.0934L25.9414 41.1616C24.7546 42.1907 20.7255 43.9124 14.9967 41.0609C12.6605 39.8281 10.4453 39.7148 9.04219 39.9078V28.7107L9.11281 28.6891ZM44.0358 31.1042C44.0359 31.1041 44.0351 31.106 44.0331 31.1098C44.0347 31.1061 44.0357 31.1042 44.0358 31.1042Z" fill="#F6821F"/>
<path fill-rule="evenodd" clip-rule="evenodd" d="M21.5911 20.4781C27.246 20.4781 31.8301 15.8939 31.8301 10.239C31.8301 4.58418 27.246 0 21.5911 0C15.9362 0 11.3521 4.58418 11.3521 10.239C11.3521 15.8939 15.9362 20.4781 21.5911 20.4781ZM22.452 7.1966H24.5653V6.02309H18.586V7.24628H19.8415C20.3305 7.24628 20.7179 7.3332 21.0038 7.50706C21.2939 7.67677 21.4886 7.91272 21.5881 8.21489H18.5797V9.39462H21.5508C21.4347 9.68438 21.2338 9.91825 20.9479 10.0962C20.6661 10.2742 20.289 10.3632 19.8166 10.3632H18.586V11.4933H19.7545C19.9202 11.4933 20.0445 11.5161 20.1274 11.5616C20.2144 11.6071 20.2932 11.6837 20.3636 11.7913L22.2531 14.6661C22.3857 14.8897 22.5929 15.0014 22.8747 15.0014H24.3851L22.135 11.6858C22.048 11.5533 21.9486 11.4395 21.8367 11.3443C21.7289 11.2491 21.6109 11.1725 21.4824 11.1145C21.9465 10.949 22.3215 10.7172 22.6074 10.4191C22.8933 10.1211 23.0839 9.77958 23.1792 9.39462H24.5653V8.21489H23.1855C23.1357 8.01206 23.0529 7.82579 22.9368 7.65608C22.8208 7.48222 22.6592 7.32906 22.452 7.1966Z" fill="#213053"/>
</svg>
