<svg width="360" height="975" viewBox="0 0 360 975" fill="none" xmlns="http://www.w3.org/2000/svg">
<g filter="url(#filter0_d_157_94)">
<rect x="360" y="59.0938" width="746" height="360" rx="10" transform="rotate(90 360 59.0938)" fill="#FEF9ED"/>
</g>
<mask id="mask0_157_94" style="mask-type:alpha" maskUnits="userSpaceOnUse" x="0" y="59" width="360" height="747">
<rect x="360" y="59.0942" width="746" height="360" rx="10" transform="rotate(90 360 59.0942)" fill="#FEF9ED"/>
</mask>
<g mask="url(#mask0_157_94)">
<path opacity="0.14" d="M50.9632 -83.2405C50.9632 -83.2405 108.311 -94.2237 119.973 -55.3477C131.636 -16.4717 111.228 -13.3365 159.824 2.33984C208.42 18.0162 227.994 13.2075 248.073 28.7973C268.151 44.3871 257.84 60.9841 248.073 70.7318C231.513 87.2698 194.172 94.7349 147.192 81.9732C73.3196 61.9074 65.5448 14.2509 39.3003 44.3496C13.0559 74.4483 -9.29785 81.9716 -3.46515 49.9937C2.36756 18.0159 30.5519 -18.3537 59.7122 -3.30429C88.8724 11.7451 120.946 -10.1999 90.8148 -20.8623C60.6834 -31.5247 35.412 -64.1302 15.9725 -49.7069C-3.46687 -35.2836 -1.52095 9.23524 -16.1 13.6247C-30.679 18.0143 -54.9796 18.6382 -54.9796 18.6382" stroke="#F6821F" stroke-width="4"/>
<path opacity="0.14" d="M133.008 50.8193C142.802 58.484 156.971 68.486 185.163 71.3432C213.355 74.2005 255.154 50.0882 206.557 32.5319C157.961 14.9756 111.23 11.7451 113.175 23.0319C115.119 34.3187 123.211 43.1545 133.008 50.8193Z" stroke="#F6821F" stroke-width="4"/>
<path opacity="0.14" d="M214.007 -71.783C210.857 -64.4488 211.829 -45.637 238.075 -24.3181C264.32 -2.99921 351.793 28.3489 296.39 67.2275C240.988 106.106 209.749 108.657 168.323 108.16C126.896 107.663 95.1933 74.7521 63.1184 86.6625C31.0434 98.5728 -0.0612712 133.065 45.6204 161.908C91.302 190.751 162.675 231.996 190.543 208.309C218.412 184.622 118.431 179.767 112.686 149.367C106.941 118.967 201.638 137.033 230.296 149.367C258.953 161.7 285.951 198.915 262.372 222.105C239.593 244.509 180.088 243.521 176.079 243.429C175.928 243.425 175.856 243.423 175.706 243.411C171.002 243.05 64.2014 234.689 15.4886 215.835C-34.3267 196.555 -17.5878 165.671 -14.6741 161.91C-11.7605 158.149 6.3648 137.128 1.02866 115.025C-4.30748 92.9228 -36.0216 73.4956 -36.0216 73.4956" stroke="#F6821F" stroke-width="4"/>
<path opacity="0.14" d="M284.223 117.425C288.461 107.377 317.125 116.318 324.409 123.877C340.472 140.538 326.696 173.125 307.47 164.074C279.806 151.051 279.988 127.474 284.223 117.425Z" stroke="#F6821F" stroke-width="4"/>
<path opacity="0.14" d="M96.5539 130.836C110.269 119.64 113.005 95.7189 85.3418 104.883C57.6789 114.048 38.2365 122.058 46.46 130.836C54.6834 139.614 82.8387 142.033 96.5539 130.836Z" stroke="#F6821F" stroke-width="4"/>
<path opacity="0.14" d="M417.923 30.4165C417.923 30.4165 362.885 78.5026 324.749 87.184C286.613 95.8654 254.312 97.4087 246.088 121.766C237.863 146.124 266.732 173.641 284.968 181.577C303.205 189.513 312.211 200.248 305.155 212.445C298.099 224.643 275.299 239.129 275.299 239.129" stroke="#F6821F" stroke-width="4"/>
<path opacity="0.14" d="M-37.3515 219.151C-37.3515 219.151 11.9945 225.908 5.26513 243.268" stroke="#F6821F" stroke-width="4"/>
<path opacity="0.14" d="M64.6826 244.819C64.6826 244.819 122.031 233.836 133.693 272.712C145.355 311.588 124.947 314.723 173.544 330.399C222.14 346.076 241.714 341.267 261.792 356.857C281.871 372.447 271.559 389.044 261.792 398.791C245.233 415.329 207.891 422.794 160.912 410.033C87.0391 389.967 79.2642 342.31 53.0198 372.409C26.7754 402.508 4.42163 410.031 10.2543 378.053C16.087 346.075 44.2714 309.706 73.4316 324.755C102.592 339.805 134.666 317.86 104.534 307.197C74.4029 296.535 49.1314 263.929 29.692 278.353C10.2526 292.776 12.1985 337.295 -2.38048 341.684C-16.9595 346.074 -41.2601 346.698 -41.2601 346.698" stroke="#F6821F" stroke-width="4"/>
<path opacity="0.14" d="M152.484 379.236C162.277 386.9 176.446 396.902 204.638 399.759C232.831 402.617 274.629 378.504 226.033 360.948C177.436 343.392 130.705 340.161 132.65 351.448C134.595 362.735 142.686 371.571 152.484 379.236Z" stroke="#F6821F" stroke-width="4"/>
<path opacity="0.14" d="M172.991 257.692C157.439 250.796 151.614 279.013 165.215 297.823C178.815 316.633 208.952 324.157 229.366 327.293C249.78 330.43 188.544 264.588 172.991 257.692Z" stroke="#F6821F" stroke-width="4"/>
<path opacity="0.14" d="M233.486 256.63C230.336 263.964 231.308 282.776 257.554 304.095C283.799 325.413 371.272 356.762 315.87 395.64C260.467 434.519 229.228 437.069 187.802 436.573C146.375 436.076 114.673 403.165 82.5976 415.075C50.5227 426.985 19.418 461.478 65.0996 490.321C110.781 519.164 182.154 560.409 210.023 536.722C237.892 513.035 137.91 508.18 132.165 477.779C126.42 447.379 221.118 465.446 249.775 477.779C278.432 490.113 305.43 527.327 281.852 550.517C259.072 572.922 199.567 571.934 195.558 571.841C195.408 571.838 195.335 571.835 195.185 571.824C190.481 571.463 83.6806 563.101 34.9679 544.248C-14.8474 524.967 1.8915 494.083 4.80511 490.322C7.71872 486.561 25.844 465.54 20.5079 443.438C15.1718 421.335 -16.5423 401.908 -16.5423 401.908" stroke="#F6821F" stroke-width="4"/>
<path opacity="0.14" d="M303.698 445.835C307.936 435.787 336.6 444.728 343.884 452.287C359.948 468.949 346.171 501.535 326.945 492.484C299.281 479.461 299.464 455.885 303.698 445.835Z" stroke="#F6821F" stroke-width="4"/>
<path opacity="0.14" d="M116.031 459.246C129.746 448.05 132.482 424.129 104.819 433.294C77.1562 442.458 57.7138 450.468 65.9373 459.246C74.1607 468.024 102.316 470.443 116.031 459.246Z" stroke="#F6821F" stroke-width="4"/>
<path opacity="0.14" d="M437.4 358.829C437.4 358.829 382.362 406.915 344.226 415.596C306.091 424.278 273.79 425.821 265.565 450.179C257.341 474.536 286.209 502.053 304.446 509.989C322.683 517.925 331.688 528.661 324.632 540.858C317.576 553.055 294.776 567.541 294.776 567.541" stroke="#F6821F" stroke-width="4"/>
<path opacity="0.14" d="M279.659 245.172C279.659 245.172 281.852 284.785 317.564 309.275C353.276 333.766 383.663 348.777 422.537 343.135C461.412 337.492 430.312 299.241 422.537 296.107C414.762 292.972 315.62 259.106 333.116 236.539C350.611 213.971 304.928 233.738 308.817 245.172C312.706 256.606 376.722 292.037 370.969 301.312C365.216 310.588 331.173 323.696 289.377 230.269" stroke="#F6821F" stroke-width="4"/>
<path opacity="0.14" d="M-17.8743 547.565C-17.8743 547.565 31.4718 554.322 24.7424 571.683" stroke="#F6821F" stroke-width="4"/>
<path opacity="0.14" d="M25.2022 590.767C25.2022 590.767 82.5504 579.783 94.2125 618.659C105.875 657.535 85.4667 660.671 134.063 676.347C182.659 692.023 202.233 687.215 222.312 702.804C242.39 718.394 232.079 734.991 222.312 744.739C205.752 761.277 168.411 768.742 121.431 755.98C47.5586 735.914 39.7838 688.258 13.5393 718.357C-12.7051 748.455 -35.0588 755.979 -29.2261 724.001C-23.3934 692.023 4.79095 655.653 33.9512 670.703C63.1114 685.752 95.1852 663.807 65.0538 653.145C34.9224 642.482 9.65098 609.877 -9.78844 624.3C-29.2279 638.723 -27.2819 683.242 -41.8609 687.632C-56.44 692.021 -80.7406 692.645 -80.7406 692.645" stroke="#F6821F" stroke-width="4"/>
<path opacity="0.14" d="M107.249 724.828C117.042 732.493 131.212 742.495 159.404 745.352C187.596 748.209 229.395 724.097 180.798 706.541C132.202 688.985 85.471 685.754 87.4156 697.041C89.3602 708.328 97.4518 717.164 107.249 724.828Z" stroke="#F6821F" stroke-width="4"/>
<path opacity="0.14" d="M127.752 603.289C112.201 596.393 106.376 624.61 119.976 643.42C133.576 662.23 163.714 669.754 184.128 672.89C204.542 676.027 143.306 610.184 127.752 603.289Z" stroke="#F6821F" stroke-width="4"/>
<path opacity="0.14" d="M188.248 602.226C185.098 609.56 186.07 628.372 212.316 649.691C238.561 671.01 326.034 702.358 270.631 741.237C215.229 780.115 183.99 782.666 142.563 782.169C101.137 781.673 69.4343 748.761 37.3593 760.672C5.2844 772.582 -25.8203 807.074 19.8613 835.917C65.543 864.76 136.915 906.005 164.784 882.318C192.653 858.631 92.6716 853.776 86.9266 823.376C81.1816 792.976 175.879 811.043 204.537 823.376C233.194 835.71 260.192 872.924 236.613 896.114C213.834 918.518 154.328 917.531 150.32 917.438C150.169 917.435 150.097 917.432 149.947 917.42C145.243 917.06 38.4424 908.698 -10.2704 889.844C-60.0857 870.564 -43.3468 839.68 -40.4332 835.919C-37.5196 832.158 -19.3942 811.137 -24.7304 789.035C-30.0665 766.932 -61.7806 747.505 -61.7806 747.505" stroke="#F6821F" stroke-width="4"/>
<path opacity="0.14" d="M258.462 791.432C262.7 781.384 291.364 790.325 298.648 797.884C314.711 814.545 300.935 847.132 281.709 838.081C254.045 825.058 254.227 801.481 258.462 791.432Z" stroke="#F6821F" stroke-width="4"/>
<path opacity="0.14" d="M70.7949 804.839C84.5101 793.643 87.2456 769.722 59.5827 778.887C31.9199 788.051 12.4775 796.061 20.7009 804.839C28.9244 813.617 57.0796 816.036 70.7949 804.839Z" stroke="#F6821F" stroke-width="4"/>
<path opacity="0.14" d="M392.162 704.424C392.162 704.424 337.124 752.51 298.988 761.191C260.852 769.872 228.551 771.416 220.327 795.773C212.102 820.131 240.971 847.648 259.207 855.584C277.444 863.52 286.45 874.255 279.394 886.453C272.338 898.65 249.538 913.136 249.538 913.136" stroke="#F6821F" stroke-width="4"/>
<path opacity="0.14" d="M234.425 590.767C234.425 590.767 236.617 630.38 272.329 654.87C308.041 679.361 338.428 694.373 377.303 688.73C416.177 683.087 385.078 644.837 377.303 641.702C369.528 638.567 270.385 604.702 287.881 582.134C305.377 559.566 259.693 579.333 263.582 590.767C267.472 602.202 331.487 637.632 325.735 646.908C319.982 656.183 285.938 669.292 244.143 575.864" stroke="#F6821F" stroke-width="4"/>
</g>
<defs>
<filter id="filter0_d_157_94" x="-114" y="0.09375" width="588" height="974" filterUnits="userSpaceOnUse" color-interpolation-filters="sRGB">
<feFlood flood-opacity="0" result="BackgroundImageFix"/>
<feColorMatrix in="SourceAlpha" type="matrix" values="0 0 0 0 0 0 0 0 0 0 0 0 0 0 0 0 0 0 127 0" result="hardAlpha"/>
<feOffset dy="55"/>
<feGaussianBlur stdDeviation="57"/>
<feColorMatrix type="matrix" values="0 0 0 0 0 0 0 0 0 0 0 0 0 0 0 0 0 0 0.1 0"/>
<feBlend mode="normal" in2="BackgroundImageFix" result="effect1_dropShadow_157_94"/>
<feBlend mode="normal" in="SourceGraphic" in2="effect1_dropShadow_157_94" result="shape"/>
</filter>
</defs>
</svg>
