<svg width="1366" height="761" viewBox="0 0 1366 761" fill="none" xmlns="http://www.w3.org/2000/svg">
<mask id="mask0_70_242" style="mask-type:alpha" maskUnits="userSpaceOnUse" x="56" y="59" width="1254" height="573">
<rect x="56" y="59" width="1254" height="573" rx="10" fill="#FEF9ED"/>
</mask>
<g mask="url(#mask0_70_242)">
<path opacity="0.14" d="M-234.364 550.884C-234.364 550.884 -256.738 459.605 -177.545 441.043C-98.3513 422.481 -91.9646 454.963 -60.0308 377.614C-28.097 300.265 -37.8926 269.109 -6.13496 237.151C25.6226 205.193 59.432 221.606 79.2888 237.151C112.978 263.509 128.185 322.944 102.188 397.719C61.3128 515.3 -35.7671 527.675 25.5462 569.448C86.8596 611.22 102.185 646.8 37.0437 637.516C-28.0976 628.232 -102.185 583.372 -71.5283 536.959C-40.8716 490.545 -85.5752 439.495 -107.295 487.454C-129.015 535.413 -195.435 575.637 -166.054 606.578C-136.673 637.519 -45.9844 634.422 -37.0426 657.626C-28.1009 680.831 -26.8298 719.51 -26.8298 719.51" stroke="#F47A23" stroke-width="4"/>
<path opacity="0.14" d="M38.7262 420.298C54.3398 404.71 74.7146 382.158 80.535 337.285C86.3554 292.412 37.2369 225.883 1.47341 303.232C-34.2901 380.581 -40.8709 454.961 -17.8788 451.866C5.11327 448.771 23.1126 435.892 38.7262 420.298Z" stroke="#F47A23" stroke-width="4"/>
<path opacity="0.14" d="M-211.028 291.37C-196.088 296.385 -157.767 294.837 -114.338 253.063C-70.9103 211.289 -7.0518 72.0615 72.1468 160.244C151.345 248.426 156.541 298.148 155.529 364.085C154.517 430.022 87.475 480.483 111.737 531.535C135.999 582.588 206.262 632.096 265.018 559.386C323.774 486.676 407.793 373.075 359.54 328.717C311.288 284.359 301.398 443.496 239.471 452.641C177.543 461.785 214.347 311.057 239.471 265.445C264.595 219.832 340.403 176.86 387.643 214.389C434.884 251.918 431.071 352.078 431.071 352.078C431.071 352.078 414.147 528.056 374.871 607.346C335.596 686.635 272.683 659.992 265.021 655.355C257.36 650.717 214.539 621.868 169.514 630.361C124.49 638.855 84.9154 689.333 84.9154 689.333" stroke="#F47A23" stroke-width="4"/>
<path opacity="0.14" d="M174.402 179.615C153.933 172.87 172.147 127.246 187.546 115.652C221.486 90.0851 287.867 112.013 269.429 142.614C242.9 186.646 194.873 186.355 174.402 179.615Z" stroke="#F47A23" stroke-width="4"/>
<path opacity="0.14" d="M201.717 478.32C178.91 456.49 130.181 452.136 148.85 496.166C167.519 540.196 183.835 571.142 201.717 558.053C219.599 544.964 224.526 500.15 201.717 478.32Z" stroke="#F47A23" stroke-width="4"/>
<path opacity="0.14" d="M-2.83917 -33.1914C-2.83917 -33.1914 95.1158 54.4116 112.8 115.111C130.485 175.81 133.629 227.222 183.247 240.313C232.866 253.404 288.919 207.455 305.086 178.428C321.252 149.401 343.121 135.067 367.967 146.298C392.814 157.529 422.323 193.819 422.323 193.819" stroke="#F47A23" stroke-width="4"/>
<path opacity="0.14" d="M381.629 691.452C381.629 691.452 395.393 612.909 430.757 623.62" stroke="#F47A23" stroke-width="4"/>
<path opacity="0.14" d="M433.916 529.051C433.916 529.051 411.543 437.771 490.736 419.209C569.929 400.647 576.316 433.129 608.25 355.78C640.184 278.431 630.388 247.276 662.146 215.317C693.903 183.359 727.713 199.772 747.569 215.317C781.258 241.675 796.466 301.11 770.469 375.886C729.593 493.467 632.514 505.842 693.827 547.614C755.14 589.386 770.466 624.966 705.324 615.682C640.183 606.399 566.096 561.538 596.752 515.125C627.409 468.712 582.706 417.661 560.985 465.62C539.265 513.579 472.845 553.803 502.227 584.744C531.608 615.685 622.296 612.588 631.238 635.793C640.18 658.998 641.451 697.676 641.451 697.676" stroke="#F47A23" stroke-width="4"/>
<path opacity="0.14" d="M707.728 389.297C723.341 373.709 743.716 351.157 749.537 306.284C755.357 261.411 706.239 194.882 670.475 272.231C634.712 349.58 628.131 423.96 651.123 420.865C674.115 417.77 692.114 404.891 707.728 389.297Z" stroke="#F47A23" stroke-width="4"/>
<path opacity="0.14" d="M460.136 356.662C446.089 381.414 503.569 390.685 541.886 369.039C580.204 347.392 595.53 299.423 601.919 266.931C608.309 234.439 474.183 331.906 460.136 356.662Z" stroke="#F47A23" stroke-width="4"/>
<path opacity="0.14" d="M457.972 260.37C472.912 265.385 511.233 263.837 554.662 222.063C598.09 180.289 661.948 41.0615 741.147 129.244C820.345 217.426 825.541 267.148 824.529 333.085C823.517 399.022 756.475 449.483 780.737 500.535C805 551.588 875.263 601.096 934.018 528.386C992.774 455.676 1076.79 342.075 1028.54 297.717C980.288 253.359 970.398 412.496 908.471 421.641C846.543 430.785 883.347 280.057 908.471 234.445C933.595 188.832 1009.4 145.86 1056.64 183.389C1103.88 220.918 1100.07 321.078 1100.07 321.078C1100.07 321.078 1083.15 497.056 1043.87 576.346C1004.6 655.635 941.683 628.992 934.022 624.355C926.36 619.717 883.539 590.868 838.514 599.361C793.49 607.855 753.915 658.333 753.915 658.333" stroke="#F47A23" stroke-width="4"/>
<path opacity="0.14" d="M843.402 148.615C822.933 141.87 841.147 96.2461 856.546 84.6524C890.486 59.0851 956.867 81.0131 938.429 111.614C911.9 155.646 863.873 155.355 843.402 148.615Z" stroke="#F47A23" stroke-width="4"/>
<path opacity="0.14" d="M870.717 447.32C847.91 425.49 799.181 421.136 817.85 465.166C836.519 509.196 852.835 540.142 870.717 527.053C888.599 513.964 893.526 469.15 870.717 447.32Z" stroke="#F47A23" stroke-width="4"/>
<path opacity="0.14" d="M666.161 -64.1914C666.161 -64.1914 764.116 23.4116 781.8 84.1108C799.485 144.81 802.629 196.222 852.247 209.313C901.866 222.404 957.919 176.455 974.086 147.428C990.252 118.401 1012.12 104.067 1036.97 115.298C1061.81 126.529 1091.32 162.819 1091.32 162.819" stroke="#F47A23" stroke-width="4"/>
<path opacity="0.14" d="M434.635 186.876C434.635 186.876 515.329 183.387 565.218 126.545C615.107 69.7035 645.687 21.3375 634.193 -40.5377C622.698 -102.413 544.778 -52.9131 538.393 -40.5377C532.007 -28.1623 463.02 129.639 417.048 101.792C371.077 73.944 411.343 146.657 434.635 140.467C457.928 134.277 530.102 32.385 548.997 41.5414C567.893 50.6977 594.595 104.884 404.276 171.409" stroke="#F47A23" stroke-width="4"/>
<path opacity="0.14" d="M1050.63 660.452C1050.63 660.452 1064.39 581.909 1099.76 592.62" stroke="#F47A23" stroke-width="4"/>
<path opacity="0.14" d="M1138.64 591.884C1138.64 591.884 1116.26 500.605 1195.46 482.043C1274.65 463.481 1281.04 495.963 1312.97 418.614C1344.9 341.265 1335.11 310.109 1366.87 278.151C1398.62 246.193 1432.43 262.606 1452.29 278.151C1485.98 304.509 1501.18 363.944 1475.19 438.719C1434.31 556.3 1337.23 568.675 1398.55 610.448C1459.86 652.22 1475.19 687.8 1410.04 678.516C1344.9 669.232 1270.81 624.372 1301.47 577.959C1332.13 531.545 1287.42 480.495 1265.7 528.454C1243.98 576.413 1177.56 616.637 1206.95 647.578C1236.33 678.519 1327.02 675.422 1335.96 698.626C1344.9 721.831 1346.17 760.51 1346.17 760.51" stroke="#F47A23" stroke-width="4"/>
<path opacity="0.14" d="M1164.14 428.662C1150.09 453.414 1207.57 462.685 1245.89 441.039C1284.2 419.392 1299.53 371.423 1305.92 338.931C1312.31 306.439 1178.18 403.906 1164.14 428.662Z" stroke="#F47A23" stroke-width="4"/>
<path opacity="0.14" d="M1161.97 332.37C1176.91 337.385 1215.23 335.837 1258.66 294.063C1302.09 252.289 1365.95 113.062 1445.15 201.244C1524.35 289.426 1529.54 339.148 1528.53 405.085C1527.52 471.022 1460.48 521.483 1484.74 572.535C1509 623.588 1579.26 673.096 1638.02 600.386C1696.77 527.676 1780.79 414.075 1732.54 369.717C1684.29 325.359 1674.4 484.496 1612.47 493.641C1550.54 502.785 1587.35 352.057 1612.47 306.445C1637.59 260.832 1713.4 217.86 1760.64 255.389C1807.88 292.918 1804.07 393.078 1804.07 393.078C1804.07 393.078 1787.15 569.056 1747.87 648.346C1708.6 727.635 1645.68 700.992 1638.02 696.355C1630.36 691.717 1587.54 662.868 1542.51 671.361C1497.49 679.855 1457.92 730.333 1457.92 730.333" stroke="#F47A23" stroke-width="4"/>
<path opacity="0.14" d="M1138.64 258.876C1138.64 258.876 1219.33 255.387 1269.22 198.545C1319.11 141.703 1349.69 93.3375 1338.19 31.4623C1326.7 -30.4129 1248.78 19.0869 1242.39 31.4623C1236.01 43.8377 1167.02 201.639 1121.05 173.792C1075.08 145.944 1115.34 218.657 1138.64 212.467C1161.93 206.277 1234.1 104.385 1253 113.541C1271.89 122.698 1298.6 176.884 1108.28 243.409" stroke="#F47A23" stroke-width="4"/>
</g>
</svg>
