<svg width="360" height="2044" viewBox="0 0 360 2044" fill="none" xmlns="http://www.w3.org/2000/svg">
<g filter="url(#filter0_d_157_6)">
<rect x="360" y="59.001" width="1816" height="360" transform="rotate(90 360 59.001)" fill="#FEF9ED"/>
</g>
<mask id="mask0_157_6" style="mask-type:alpha" maskUnits="userSpaceOnUse" x="0" y="59" width="361" height="1816">
<rect x="360" y="59" width="1816" height="360" transform="rotate(90 360 59)" fill="#FEF9ED"/>
</mask>
<g mask="url(#mask0_157_6)">
<path opacity="0.14" d="M50.9634 -83.3328C50.9634 -83.3328 108.312 -94.316 119.974 -55.44C131.636 -16.564 111.228 -13.4288 159.824 2.24756C208.421 17.9239 227.995 13.1152 248.073 28.705C268.152 44.2948 257.84 60.8918 248.073 70.6395C231.513 87.1775 194.172 94.6426 147.193 81.8809C73.3198 61.8151 65.545 14.1586 39.3006 44.2573C13.0562 74.3561 -9.29761 81.8793 -3.4649 49.9014C2.3678 17.9236 30.5522 -18.4459 59.7124 -3.39658C88.8726 11.6528 120.946 -10.2922 90.8151 -20.9546C60.6836 -31.617 35.4122 -64.2225 15.9728 -49.7992C-3.46663 -35.3759 -1.5207 9.14296 -16.0997 13.5325C-30.6787 17.922 -54.9794 18.5459 -54.9794 18.5459" stroke="#F6821F" stroke-width="4"/>
<path opacity="0.14" d="M133.009 50.727C142.802 58.3917 156.971 68.3937 185.163 71.2509C213.356 74.1082 255.154 49.9959 206.558 32.4396C157.961 14.8833 111.23 11.6528 113.175 22.9396C115.119 34.2264 123.211 43.0623 133.009 50.727Z" stroke="#F6821F" stroke-width="4"/>
<path opacity="0.14" d="M214.007 -71.8752C210.857 -64.5411 211.829 -45.7292 238.075 -24.4104C264.32 -3.0915 351.793 28.2567 296.391 67.1353C240.988 106.014 209.749 108.565 168.323 108.068C126.896 107.571 95.1935 74.6599 63.1186 86.5702C31.0437 98.4805 -0.0610271 132.973 45.6206 161.816C91.3023 190.659 162.675 231.904 190.544 208.217C218.413 184.53 118.431 179.675 112.686 149.275C106.941 118.874 201.639 136.941 230.296 149.275C258.953 161.608 285.951 198.822 262.373 222.013C239.593 244.417 180.088 243.429 176.079 243.337C175.929 243.333 175.856 243.33 175.706 243.319C171.002 242.958 64.2016 234.596 15.4889 215.743C-34.3264 196.462 -17.5875 165.578 -14.6739 161.817C-11.7603 158.057 6.36504 137.036 1.02891 114.933C-4.30723 92.8305 -36.0213 73.4033 -36.0213 73.4033" stroke="#F6821F" stroke-width="4"/>
<path opacity="0.14" d="M284.223 117.333C288.461 107.284 317.125 116.225 324.409 123.785C340.473 140.446 326.696 173.033 307.47 163.981C279.806 150.958 279.989 127.382 284.223 117.333Z" stroke="#F6821F" stroke-width="4"/>
<path opacity="0.14" d="M96.5542 130.743C110.269 119.547 113.005 95.6267 85.342 104.791C57.6791 113.956 38.2368 121.965 46.4602 130.743C54.6836 139.522 82.8389 141.94 96.5542 130.743Z" stroke="#F6821F" stroke-width="4"/>
<path opacity="0.14" d="M417.923 30.3242C417.923 30.3242 362.885 78.4103 324.749 87.0917C286.614 95.7731 254.313 97.3164 246.088 121.674C237.863 146.032 266.732 173.548 284.969 181.484C303.206 189.421 312.211 200.156 305.155 212.353C298.099 224.55 275.299 239.037 275.299 239.037" stroke="#F6821F" stroke-width="4"/>
<path opacity="0.14" d="M-37.3513 219.059C-37.3513 219.059 11.9947 225.816 5.26537 243.176" stroke="#F6821F" stroke-width="4"/>
<path opacity="0.14" d="M64.6829 244.727C64.6829 244.727 122.031 233.744 133.693 272.62C145.355 311.496 124.947 314.631 173.544 330.307C222.14 345.983 241.714 341.175 261.793 356.765C281.871 372.354 271.56 388.951 261.793 398.699C245.233 415.237 207.892 422.702 160.912 409.941C87.0393 389.875 79.2645 342.218 53.0201 372.317C26.7756 402.416 4.42188 409.939 10.2546 377.961C16.0873 345.983 44.2717 309.614 73.4319 324.663C102.592 339.712 134.666 317.767 104.535 307.105C74.4031 296.443 49.1317 263.837 29.6923 278.26C10.2529 292.684 12.1988 337.203 -2.38024 341.592C-16.9593 345.982 -41.2599 346.606 -41.2599 346.606" stroke="#F6821F" stroke-width="4"/>
<path opacity="0.14" d="M152.484 379.143C162.277 386.808 176.446 396.81 204.639 399.667C232.831 402.524 274.629 378.412 226.033 360.856C177.437 343.3 130.706 340.069 132.65 351.356C134.595 362.643 142.686 371.479 152.484 379.143Z" stroke="#F6821F" stroke-width="4"/>
<path opacity="0.14" d="M172.991 257.6C157.439 250.704 151.615 278.921 165.215 297.731C178.815 316.541 208.952 324.065 229.366 327.201C249.78 330.338 188.544 264.495 172.991 257.6Z" stroke="#F6821F" stroke-width="4"/>
<path opacity="0.14" d="M233.487 256.537C230.336 263.871 231.309 282.683 257.554 304.002C283.8 325.321 371.272 356.669 315.87 395.548C260.467 434.426 229.228 436.977 187.802 436.48C146.376 435.984 114.673 403.072 82.5979 414.983C50.5229 426.893 19.4182 461.385 65.0999 490.228C110.782 519.071 182.154 560.316 210.023 536.629C237.892 512.942 137.91 508.087 132.165 477.687C126.42 447.287 221.118 465.354 249.775 477.687C278.432 490.021 305.43 527.235 281.852 550.425C259.073 572.829 199.567 571.842 195.559 571.749C195.408 571.746 195.335 571.743 195.185 571.731C190.481 571.371 83.6809 563.009 34.9681 544.155C-14.8472 524.875 1.89174 493.991 4.80535 490.23C7.71896 486.469 25.8443 465.448 20.5082 443.346C15.172 421.243 -16.5421 401.816 -16.5421 401.816" stroke="#F6821F" stroke-width="4"/>
<path opacity="0.14" d="M303.698 445.743C307.936 435.695 336.601 444.636 343.885 452.195C359.948 468.856 346.171 501.443 326.945 492.392C299.281 479.369 299.464 455.792 303.698 445.743Z" stroke="#F6821F" stroke-width="4"/>
<path opacity="0.14" d="M116.031 459.154C129.747 447.958 132.482 424.037 104.819 433.201C77.1564 442.366 57.7141 450.376 65.9375 459.154C74.1609 467.932 102.316 470.351 116.031 459.154Z" stroke="#F6821F" stroke-width="4"/>
<path opacity="0.14" d="M437.401 358.737C437.401 358.737 382.362 406.823 344.226 415.504C306.091 424.185 273.79 425.729 265.565 450.086C257.341 474.444 286.209 501.961 304.446 509.897C322.683 517.833 331.689 528.568 324.632 540.766C317.576 552.963 294.776 567.449 294.776 567.449" stroke="#F6821F" stroke-width="4"/>
<path opacity="0.14" d="M279.659 245.08C279.659 245.08 281.852 284.692 317.564 309.183C353.276 333.673 383.663 348.685 422.537 343.043C461.412 337.4 430.313 299.149 422.537 296.014C414.762 292.88 315.62 259.014 333.116 236.446C350.612 213.879 304.928 233.646 308.817 245.08C312.706 256.514 376.722 291.944 370.969 301.22C365.217 310.496 331.173 323.604 289.377 230.177" stroke="#F6821F" stroke-width="4"/>
<path opacity="0.14" d="M-17.874 547.473C-17.874 547.473 31.472 554.23 24.7427 571.59" stroke="#F6821F" stroke-width="4"/>
<path opacity="0.14" d="M25.2024 590.674C25.2024 590.674 82.5506 579.691 94.2127 618.567C105.875 657.443 85.467 660.578 134.063 676.255C182.66 691.931 202.234 687.122 222.312 702.712C242.391 718.302 232.079 734.899 222.312 744.647C205.752 761.185 168.411 768.65 121.432 755.888C47.5589 735.822 39.784 688.166 13.5396 718.264C-12.7048 748.363 -35.0586 755.886 -29.2259 723.909C-23.3932 691.931 4.79119 655.561 33.9514 670.611C63.1116 685.66 95.1855 663.715 65.0541 653.052C34.9226 642.39 9.65122 609.785 -9.7882 624.208C-29.2276 638.631 -27.2817 683.15 -41.8607 687.54C-56.4397 691.929 -80.7404 692.553 -80.7404 692.553" stroke="#F6821F" stroke-width="4"/>
<path opacity="0.14" d="M107.25 724.736C117.043 732.401 131.212 742.403 159.404 745.26C187.596 748.117 229.395 724.005 180.799 706.449C132.202 688.892 85.4712 685.662 87.4158 696.949C89.3604 708.235 97.452 717.071 107.25 724.736Z" stroke="#F6821F" stroke-width="4"/>
<path opacity="0.14" d="M127.752 603.196C112.201 596.301 106.376 624.517 119.977 643.328C133.577 662.138 163.714 669.661 184.128 672.798C204.542 675.934 143.306 610.092 127.752 603.196Z" stroke="#F6821F" stroke-width="4"/>
<path opacity="0.14" d="M188.248 602.134C185.098 609.468 186.07 628.28 212.316 649.599C238.561 670.918 326.034 702.266 270.632 741.145C215.229 780.023 183.99 782.574 142.564 782.077C101.137 781.58 69.4345 748.669 37.3596 760.579C5.28465 772.49 -25.8201 806.982 19.8616 835.825C65.5432 864.668 136.916 905.913 164.785 882.226C192.654 858.539 92.6719 853.684 86.9269 823.284C81.1818 792.884 175.88 810.95 204.537 823.284C233.194 835.617 260.192 872.832 236.614 896.022C213.834 918.426 154.329 917.438 150.32 917.346C150.169 917.342 150.097 917.34 149.947 917.328C145.243 916.967 38.4426 908.606 -10.2702 889.752C-60.0854 870.472 -43.3465 839.588 -40.4329 835.827C-37.5193 832.066 -19.394 811.045 -24.7301 788.942C-30.0663 766.84 -61.7803 747.413 -61.7803 747.413" stroke="#F6821F" stroke-width="4"/>
<path opacity="0.14" d="M258.462 791.34C262.7 781.291 291.364 790.233 298.648 797.792C314.712 814.453 300.935 847.04 281.709 837.988C254.045 824.965 254.228 801.389 258.462 791.34Z" stroke="#F6821F" stroke-width="4"/>
<path opacity="0.14" d="M70.7951 804.747C84.5104 793.551 87.2458 769.63 59.583 778.795C31.9201 787.959 12.4777 795.969 20.7012 804.747C28.9246 813.525 57.0799 815.944 70.7951 804.747Z" stroke="#F6821F" stroke-width="4"/>
<path opacity="0.14" d="M392.162 704.331C392.162 704.331 337.124 752.417 298.988 761.099C260.853 769.78 228.552 771.323 220.327 795.681C212.102 820.039 240.971 847.555 259.208 855.491C277.445 863.428 286.45 874.163 279.394 886.36C272.338 898.557 249.538 913.043 249.538 913.043" stroke="#F6821F" stroke-width="4"/>
<path opacity="0.14" d="M234.425 590.675C234.425 590.675 236.618 630.288 272.33 654.778C308.042 679.268 338.429 694.28 377.303 688.638C416.177 682.995 385.078 644.744 377.303 641.609C369.528 638.475 270.386 604.609 287.881 582.042C305.377 559.474 259.694 579.241 263.583 590.675C267.472 602.109 331.488 637.54 325.735 646.815C319.982 656.091 285.939 669.199 244.143 575.772" stroke="#F6821F" stroke-width="4"/>
</g>
<defs>
<filter id="filter0_d_157_6" x="-114" y="0.000976562" width="588" height="2044" filterUnits="userSpaceOnUse" color-interpolation-filters="sRGB">
<feFlood flood-opacity="0" result="BackgroundImageFix"/>
<feColorMatrix in="SourceAlpha" type="matrix" values="0 0 0 0 0 0 0 0 0 0 0 0 0 0 0 0 0 0 127 0" result="hardAlpha"/>
<feOffset dy="55"/>
<feGaussianBlur stdDeviation="57"/>
<feColorMatrix type="matrix" values="0 0 0 0 0 0 0 0 0 0 0 0 0 0 0 0 0 0 0.1 0"/>
<feBlend mode="normal" in2="BackgroundImageFix" result="effect1_dropShadow_157_6"/>
<feBlend mode="normal" in="SourceGraphic" in2="effect1_dropShadow_157_6" result="shape"/>
</filter>
</defs>
</svg>
