<svg width="1366" height="1746" viewBox="0 0 1366 1746" fill="none" xmlns="http://www.w3.org/2000/svg">
<mask id="mask0_70_60" style="mask-type:alpha" maskUnits="userSpaceOnUse" x="0" y="0" width="1366" height="1746">
<rect width="1366" height="1746" fill="#FEF9ED"/>
</mask>
<g mask="url(#mask0_70_60)">
<path opacity="0.14" d="M-603.439 1490.58C-603.439 1490.58 -655.304 1278.99 -471.727 1235.96C-288.15 1192.93 -273.345 1268.23 -199.32 1088.93C-125.294 909.623 -148.001 837.402 -74.3846 763.32C-0.767763 689.238 77.6051 727.284 123.635 763.32C201.729 824.42 236.98 962.194 176.718 1135.53C81.965 1408.09 -143.074 1436.78 -0.944895 1533.61C141.185 1630.44 176.71 1712.92 25.7073 1691.4C-125.296 1669.88 -297.037 1565.89 -225.972 1458.3C-154.907 1350.71 -258.534 1232.37 -308.883 1343.54C-359.232 1454.72 -513.199 1547.96 -445.09 1619.68C-376.982 1691.41 -166.759 1684.23 -146.031 1738.02C-125.303 1791.81 -122.357 1881.47 -122.357 1881.47" stroke="#F47A23" stroke-width="4"/>
<path opacity="0.14" d="M29.6121 1187.87C65.8057 1151.73 113.036 1099.45 126.528 995.435C140.021 891.417 26.1599 737.196 -56.7429 916.498C-139.646 1095.8 -154.901 1268.22 -101.603 1261.05C-48.3054 1253.87 -6.58158 1224.02 29.6121 1187.87Z" stroke="#F47A23" stroke-width="4"/>
<path opacity="0.14" d="M-549.343 889.005C-514.711 900.629 -425.879 897.041 -325.209 800.205C-224.539 703.369 -76.5094 380.629 107.08 585.042C290.669 789.456 302.713 904.717 300.367 1057.56C298.022 1210.41 142.612 1327.38 198.854 1445.73C255.096 1564.07 417.971 1678.84 554.171 1510.29C690.372 1341.74 885.135 1078.4 773.282 975.577C661.429 872.752 638.504 1241.65 494.951 1262.84C351.397 1284.04 436.711 934.641 494.951 828.907C553.19 723.174 728.92 623.56 838.427 710.556C947.935 797.552 939.096 1029.73 939.096 1029.73C939.096 1029.73 899.865 1437.66 808.821 1621.46C717.777 1805.26 571.939 1743.5 554.179 1732.75C536.42 1722 437.157 1655.13 332.786 1674.81C228.415 1694.5 136.678 1811.52 136.678 1811.52" stroke="#F47A23" stroke-width="4"/>
<path opacity="0.14" d="M344.116 629.948C296.667 614.312 338.888 508.551 374.584 481.676C453.26 422.409 607.137 473.24 564.396 544.175C502.9 646.245 391.57 645.571 344.116 629.948Z" stroke="#F47A23" stroke-width="4"/>
<path opacity="0.14" d="M407.433 1322.37C354.564 1271.77 241.608 1261.67 284.884 1363.74C328.159 1465.8 365.982 1537.54 407.433 1507.2C448.885 1476.86 460.306 1372.97 407.433 1322.37Z" stroke="#F47A23" stroke-width="4"/>
<path opacity="0.14" d="M-66.7461 136.644C-66.7461 136.644 160.322 339.715 201.316 480.421C242.311 621.127 249.599 740.305 364.618 770.651C479.638 800.996 609.574 694.483 647.049 627.196C684.525 559.908 735.218 526.681 792.815 552.715C850.412 578.749 918.816 662.873 918.816 662.873" stroke="#F47A23" stroke-width="4"/>
<path opacity="0.14" d="M824.485 1816.43C824.485 1816.43 856.392 1634.36 938.369 1659.19" stroke="#F47A23" stroke-width="4"/>
<path opacity="0.14" d="M945.692 1439.97C945.692 1439.97 893.827 1228.37 1077.4 1185.35C1260.98 1142.32 1275.79 1217.61 1349.81 1038.31C1423.84 859.011 1401.13 786.79 1474.75 712.708C1548.36 638.626 1626.74 676.672 1672.77 712.708C1750.86 773.807 1786.11 911.582 1725.85 1084.92C1631.1 1357.48 1406.06 1386.17 1548.19 1483C1690.32 1579.83 1725.84 1662.31 1574.84 1640.79C1423.84 1619.27 1252.09 1515.28 1323.16 1407.69C1394.22 1300.1 1290.6 1181.76 1240.25 1292.93C1189.9 1404.1 1035.93 1497.35 1104.04 1569.07C1172.15 1640.79 1382.37 1633.61 1403.1 1687.4C1423.83 1741.2 1426.77 1830.86 1426.77 1830.86" stroke="#F47A23" stroke-width="4"/>
<path opacity="0.14" d="M1006.47 1040.36C973.91 1097.73 1107.15 1119.23 1195.98 1069.05C1284.8 1018.87 1320.33 907.672 1335.14 832.352C1349.95 757.033 1039.03 982.97 1006.47 1040.36Z" stroke="#F47A23" stroke-width="4"/>
<path opacity="0.14" d="M1001.45 817.145C1036.09 828.768 1124.92 825.181 1225.59 728.345C1326.26 631.509 1474.29 308.768 1657.88 513.182C1841.47 717.596 1853.51 832.856 1851.17 985.704C1848.82 1138.55 1693.41 1255.52 1749.65 1373.87C1805.89 1492.21 1968.77 1606.98 2104.97 1438.43C2241.17 1269.88 2435.93 1006.54 2324.08 903.717C2212.23 800.891 2189.3 1169.79 2045.75 1190.98C1902.2 1212.18 1987.51 862.78 2045.75 757.047C2103.99 651.313 2279.72 551.7 2389.23 638.696C2498.73 725.691 2489.89 957.87 2489.89 957.87C2489.89 957.87 2450.66 1365.8 2359.62 1549.6C2268.57 1733.4 2122.74 1671.64 2104.98 1660.89C2087.22 1650.14 1987.95 1583.27 1883.58 1602.95C1779.21 1622.64 1687.48 1739.66 1687.48 1739.66" stroke="#F47A23" stroke-width="4"/>
<path opacity="0.14" d="M947.359 646.779C947.359 646.779 1134.41 638.69 1250.06 506.926C1365.71 375.162 1436.59 263.046 1409.95 119.614C1383.3 -23.8177 1202.68 90.927 1187.88 119.614C1173.07 148.301 1013.16 514.099 906.59 449.546C800.024 384.992 893.365 553.548 947.359 539.199C1001.35 524.849 1168.66 288.655 1212.46 309.88C1256.26 331.106 1318.16 456.714 876.984 610.924" stroke="#F47A23" stroke-width="4"/>
</g>
</svg>
