<svg width="256" height="256" viewBox="0 0 256 256" fill="none" xmlns="http://www.w3.org/2000/svg">
<circle cx="128" cy="128" r="128" fill="#B02A30"/>
<path d="M256 128C256 149.781 250.442 171.201 239.852 190.234C229.262 209.267 213.991 225.283 195.483 236.766C176.975 248.249 155.844 254.819 134.088 255.855C112.331 256.891 90.671 252.358 71.1559 242.685C51.6409 233.013 34.9168 218.52 22.5666 200.58C10.2163 182.639 2.6484 161.843 0.579028 140.161C-1.49035 118.479 2.00728 96.6275 10.7409 76.6745C19.4745 56.7215 33.1552 39.3272 50.4883 26.1377L128 128H256Z" fill="#4A5462"/>
<path d="M256 128C256 146.099 252.162 163.993 244.738 180.499C237.315 197.006 226.475 211.751 212.935 223.761C199.394 235.77 183.461 244.772 166.186 250.171C148.911 255.571 130.687 257.245 112.718 255.084C94.7479 252.923 77.4408 246.976 61.9384 237.635C46.4361 228.294 33.091 215.772 22.7838 200.894C12.4766 186.017 5.4417 169.122 2.14339 151.326C-1.15493 133.53 -0.641684 115.237 3.64925 97.6538L128 128H256Z" fill="#5E6977"/>
<path d="M256 128C256 161.095 243.182 192.904 220.234 216.751C197.287 240.599 165.995 254.632 132.925 255.905C99.8541 257.179 67.5757 245.593 42.8628 223.581C18.15 201.568 2.92362 170.839 0.378936 137.842L128 128H256Z" fill="#5F6C8F"/>
<path d="M256 128C256 157.886 245.543 186.829 226.441 209.813C207.339 232.797 180.797 248.373 151.415 253.84C122.034 259.307 91.6659 254.321 65.5753 239.746C39.4847 225.171 19.3165 201.926 8.56689 174.041L128 128H256Z" fill="#A7B1BC"/>
<path d="M256 128C256 154.514 247.766 180.374 232.436 202.007C217.107 223.64 195.437 239.979 170.421 248.766C145.406 257.553 118.279 258.355 92.7876 251.061C67.2965 243.767 44.6995 228.737 28.1183 208.048L128 128H256Z" fill="#F2F6FA"/>
<path d="M256 128C256 151.373 249.6 174.299 237.495 194.293C225.39 214.287 208.042 230.585 187.332 241.418C166.622 252.252 143.34 257.209 120.013 255.751C96.6861 254.292 74.2035 246.475 55.004 233.146L128 128H256Z" fill="#F9F1DC"/>
<path d="M256 128C256 147.951 251.336 167.625 242.382 185.453C233.427 203.281 220.429 218.769 204.424 230.681C188.42 242.593 169.853 250.598 150.205 254.059C130.557 257.52 110.372 256.34 91.2605 250.614L128 128H256Z" fill="#FCC04E"/>
<path d="M256 128C256 157.262 245.974 185.64 227.593 208.407C209.211 231.175 183.584 246.957 154.979 253.124L128 128H256Z" fill="#F47A23"/>
<path d="M256 128C256 156.715 246.344 184.597 228.585 207.162L128 128H256Z" fill="#FF5824"/>
</svg>
