<svg width="103" height="98" viewBox="0 0 103 98" fill="none" xmlns="http://www.w3.org/2000/svg">
<path d="M11.1674 28.369L22.8493 16.6606C22.4891 14.4943 21.923 12.4828 21.2025 10.7291C20.6365 9.38806 20.4306 7.8407 20.7394 6.24176C21.4084 2.52811 25.0108 -0.0508186 28.819 0.000759923C37.0015 0.155496 44.2577 4.17862 48.8893 10.3165H74.6206C90.2652 10.3165 102.925 23.0048 102.925 38.6847C102.925 50.2898 95.8746 77.2654 92.2207 90.4695C90.9856 94.9053 86.9201 98 82.2885 98H72.0474C66.3866 98 61.755 93.3579 61.755 87.6843H51.4625C51.4625 93.3579 46.8308 98 41.17 98H30.826C26.2973 98 22.2832 95.0084 20.9452 90.6243L14.5124 69.1676L3.49945 65.4539C1.38949 64.7318 0 62.7719 0 60.554V33.5268C0 30.69 2.31581 28.369 5.14625 28.369H11.1674ZM51.4625 36.1057H66.9012C69.7316 36.1057 72.0474 33.7847 72.0474 30.9479C72.0474 28.1111 69.7316 25.79 66.9012 25.79H51.4625C48.632 25.79 46.3162 28.1111 46.3162 30.9479C46.3162 33.7847 48.632 36.1057 51.4625 36.1057ZM30.8775 46.4215C33.7079 46.4215 36.0237 44.1004 36.0237 41.2636C36.0237 38.4268 33.7079 36.1057 30.8775 36.1057C28.047 36.1057 25.7312 38.4268 25.7312 41.2636C25.7312 44.1004 28.047 46.4215 30.8775 46.4215Z" fill="url(#paint0_linear_1_222)"/>
<defs>
<linearGradient id="paint0_linear_1_222" x1="51.4625" y1="0" x2="51.4625" y2="98" gradientUnits="userSpaceOnUse">
<stop stop-color="#FFBBA6"/>
<stop offset="1" stop-color="#FF5824" stop-opacity="0.69"/>
</linearGradient>
</defs>
</svg>
