<svg width="273" height="220" viewBox="0 0 273 220" fill="none" xmlns="http://www.w3.org/2000/svg">
<path d="M71.9203 194.061C56.5815 180.312 45.7857 162.223 40.9654 142.196C36.145 122.169 37.5279 101.149 44.9306 81.9257C52.3332 62.7025 65.4057 46.1844 82.4137 34.563C99.4217 22.9415 119.561 16.766 140.16 16.8557C160.759 16.9454 180.844 23.2962 197.75 35.0655C214.657 46.8347 227.585 63.4661 234.82 82.753C242.054 102.04 243.254 123.071 238.259 143.055C233.265 163.04 222.312 181.034 206.854 194.649L191.06 176.718C202.882 166.306 211.258 152.545 215.078 137.262C218.897 121.979 217.98 105.895 212.447 91.1453C206.914 76.3956 197.027 63.6767 184.098 54.6761C171.169 45.6756 155.809 40.8188 140.056 40.7502C124.303 40.6815 108.901 45.4043 95.8944 54.2918C82.8875 63.1794 72.8902 75.8116 67.229 90.5126C61.5678 105.214 60.5103 121.288 64.1966 136.604C67.883 151.92 76.1391 165.753 87.8695 176.269L71.9203 194.061Z" fill="#F2F6FA"/>
<path d="M71.9203 194.061C56.6007 180.329 45.8124 162.268 40.9832 142.27C36.1539 122.271 37.5115 101.277 44.8761 82.0674C52.2408 62.8573 65.2653 46.3365 82.2259 34.6916C99.1865 23.0467 119.283 16.8267 139.857 16.8548L139.824 40.714C124.083 40.6925 108.707 45.4514 95.7307 54.361C82.7541 63.2705 72.789 75.9106 67.1543 90.6083C61.5196 105.306 60.4809 121.368 64.1758 136.669C67.8706 151.97 76.1248 165.788 87.8458 176.295L71.9203 194.061Z" fill="url(#paint0_linear_715_443)"/>
<path d="M139.718 16.855C160.35 16.855 180.492 23.138 197.465 34.868C214.438 46.598 227.437 63.2187 234.731 82.5182C242.025 101.818 243.269 122.881 238.297 142.905C233.325 162.929 222.373 180.964 206.898 194.61L191.118 176.715C202.957 166.274 211.337 152.475 215.141 137.155C218.945 121.835 217.993 105.719 212.412 90.9533C206.832 76.1871 196.887 63.4706 183.9 54.496C170.914 45.5214 155.503 40.7142 139.718 40.7142V16.855Z" fill="url(#paint1_linear_715_443)"/>
<path d="M76.3388 132.126L75.9077 132.23L76.3388 132.126ZM78.9015 93.3339L79.3152 93.4939L78.9015 93.3339ZM103.126 62.8494L103.376 63.2161L103.126 62.8494ZM140.447 51.4523L140.449 51.0087L140.447 51.4523ZM177.667 63.1728L177.92 62.8083L177.667 63.1728ZM201.624 93.8664L201.209 94.0228L201.624 93.8664ZM203.848 132.679L204.278 132.787L203.848 132.679ZM93.1065 161.776C92.9365 161.599 92.6557 161.594 92.4793 161.764C92.3029 161.934 92.2976 162.215 92.4675 162.391L93.1065 161.776ZM86.1334 154.735C86.2748 154.935 86.5516 154.982 86.7516 154.841C86.9516 154.699 86.9991 154.422 86.8576 154.222L86.1334 154.735ZM81.8171 145.814C81.7074 145.595 81.4409 145.507 81.2219 145.616C81.0028 145.726 80.9142 145.993 81.0239 146.212L81.8171 145.814ZM77.258 137.016C77.3334 137.249 77.5835 137.377 77.8166 137.301C78.0496 137.226 78.1775 136.976 78.102 136.743L77.258 137.016ZM75.8 127.219C75.7607 126.977 75.5328 126.813 75.291 126.852C75.0492 126.892 74.8851 127.12 74.9245 127.361L75.8 127.219ZM74.0758 117.47C74.0782 117.715 74.2787 117.912 74.5237 117.91C74.7686 117.907 74.9653 117.707 74.9629 117.462L74.0758 117.47ZM75.6086 107.69C75.6432 107.448 75.4747 107.223 75.2322 107.188C74.9897 107.154 74.765 107.322 74.7304 107.565L75.6086 107.69ZM76.8729 97.8713C76.8021 98.1058 76.9348 98.3533 77.1693 98.4242C77.4038 98.495 77.6513 98.3623 77.7221 98.1278L76.8729 97.8713ZM81.2571 88.9871C81.3625 88.766 81.2686 88.5013 81.0475 88.3959C80.8264 88.2905 80.5617 88.3843 80.4563 88.6055L81.2571 88.9871ZM85.3998 79.9799C85.2623 80.1826 85.3151 80.4584 85.5179 80.5959C85.7206 80.7334 85.9964 80.6806 86.1339 80.4779L85.3998 79.9799ZM92.2371 72.8003C92.4036 72.6206 92.3928 72.34 92.2131 72.1735C92.0334 72.007 91.7528 72.0178 91.5863 72.1975L92.2371 72.8003ZM98.8727 65.4339C98.6811 65.5866 98.6495 65.8657 98.8022 66.0572C98.9548 66.2488 99.2339 66.2804 99.4255 66.1277L98.8727 65.4339ZM107.543 60.6046C107.755 60.4825 107.828 60.2113 107.706 59.999C107.584 59.7867 107.313 59.7136 107.1 59.8357L107.543 60.6046ZM116.084 55.5315C115.856 55.6204 115.743 55.8775 115.832 56.1058C115.921 56.334 116.178 56.447 116.406 56.3581L116.084 55.5315ZM125.806 53.4884C126.045 53.4347 126.196 53.1974 126.142 52.9584C126.088 52.7194 125.851 52.5692 125.612 52.6229L125.806 53.4884ZM135.468 51.1743C135.223 51.1916 135.039 51.4037 135.057 51.6481C135.074 51.8924 135.286 52.0765 135.53 52.0592L135.468 51.1743ZM145.359 52.1018C145.603 52.1212 145.817 51.939 145.836 51.6948C145.856 51.4507 145.673 51.2369 145.429 51.2175L145.359 52.1018ZM155.272 52.7516C155.033 52.6958 154.795 52.8439 154.739 53.0824C154.683 53.321 154.831 53.5596 155.07 53.6153L155.272 52.7516ZM164.444 56.5664C164.672 56.6573 164.93 56.5466 165.021 56.3192C165.112 56.0917 165.001 55.8336 164.774 55.7427L164.444 56.5664ZM173.72 60.1248C173.508 60.0008 173.237 60.0715 173.113 60.2827C172.989 60.494 173.059 60.7658 173.271 60.8898L173.72 60.1248ZM181.339 66.4831C181.53 66.6375 181.809 66.6083 181.963 66.4181C182.118 66.2279 182.088 65.9485 181.898 65.7942L181.339 66.4831ZM189.125 72.6207C188.96 72.4396 188.68 72.4264 188.499 72.5913C188.317 72.7562 188.304 73.0367 188.469 73.2179L189.125 72.6207ZM194.505 80.9481C194.641 81.152 194.916 81.2073 195.12 81.0716C195.324 80.9358 195.379 80.6605 195.243 80.4565L194.505 80.9481ZM200.111 89.1247C200.008 88.9027 199.744 88.8065 199.522 88.91C199.3 89.0134 199.204 89.2773 199.307 89.4993L200.111 89.1247ZM202.762 98.6704C202.831 98.9055 203.077 99.0403 203.312 98.9716C203.547 98.9028 203.682 98.6565 203.613 98.4214L202.762 98.6704ZM205.671 108.133C205.638 107.89 205.415 107.72 205.172 107.752C204.93 107.785 204.759 108.008 204.792 108.251L205.671 108.133ZM205.352 118.028C205.347 118.273 205.542 118.475 205.787 118.479C206.032 118.484 206.234 118.289 206.239 118.044L205.352 118.028ZM205.304 127.927C205.345 127.686 205.183 127.457 204.942 127.415C204.7 127.374 204.471 127.536 204.429 127.777L205.304 127.927ZM202.044 137.28C201.967 137.513 202.092 137.764 202.325 137.841C202.557 137.919 202.808 137.793 202.886 137.561L202.044 137.28ZM199.039 146.724C199.151 146.506 199.065 146.239 198.847 146.127C198.629 146.015 198.361 146.102 198.25 146.32L199.039 146.724ZM193.136 154.683C192.993 154.882 193.038 155.159 193.236 155.303C193.435 155.446 193.712 155.401 193.856 155.202L193.136 154.683ZM187.455 162.803C187.626 162.628 187.623 162.348 187.448 162.176C187.273 162.005 186.993 162.007 186.821 162.182L187.455 162.803ZM96.64 165.178C95.4165 164.086 94.2381 162.951 93.1065 161.776L92.4675 162.391C93.6146 163.582 94.8091 164.733 96.0493 165.84L96.64 165.178ZM86.8576 154.222C84.9673 151.55 83.2823 148.739 81.8171 145.814L81.0239 146.212C82.5092 149.177 84.2173 152.026 86.1334 154.735L86.8576 154.222ZM78.102 136.743C77.5998 135.19 77.1552 133.616 76.77 132.022L75.9077 132.23C76.2982 133.846 76.7489 135.442 77.258 137.016L78.102 136.743ZM76.77 132.022C76.3851 130.43 76.0619 128.827 75.8 127.219L74.9245 127.361C75.1899 128.992 75.5176 130.616 75.9077 132.23L76.77 132.022ZM74.9629 117.462C74.9308 114.193 75.1467 110.926 75.6086 107.69L74.7304 107.565C74.2622 110.845 74.0433 114.157 74.0758 117.47L74.9629 117.462ZM77.7221 98.1278C78.1933 96.5677 78.7244 95.0219 79.3152 93.4939L78.4878 93.1739C77.8889 94.7229 77.3505 96.2898 76.8729 97.8713L77.7221 98.1278ZM79.3152 93.4939C79.9068 91.9639 80.5548 90.4608 81.2571 88.9871L80.4563 88.6055C79.7444 90.0993 79.0875 91.623 78.4878 93.1739L79.3152 93.4939ZM86.1339 80.4779C87.9713 77.7694 90.0116 75.2029 92.2371 72.8003L91.5863 72.1975C89.3304 74.6328 87.2623 77.2344 85.3998 79.9799L86.1339 80.4779ZM99.4255 66.1277C100.702 65.1106 102.019 64.1392 103.376 63.2161L102.877 62.4827C101.502 63.4183 100.166 64.403 98.8727 65.4339L99.4255 66.1277ZM103.376 63.2161C104.735 62.2913 106.125 61.4205 107.543 60.6046L107.1 59.8357C105.663 60.6627 104.254 61.5453 102.877 62.4827L103.376 63.2161ZM116.406 56.3581C119.463 55.1673 122.605 54.208 125.806 53.4884L125.612 52.6229C122.367 53.3523 119.182 54.3246 116.084 55.5315L116.406 56.3581ZM135.53 52.0592C137.162 51.9435 138.801 51.8887 140.445 51.8958L140.449 51.0087C138.783 51.0015 137.121 51.057 135.468 51.1743L135.53 52.0592ZM140.445 51.8958C142.089 51.903 143.728 51.972 145.359 52.1018L145.429 51.2175C143.777 51.0859 142.116 51.016 140.449 51.0087L140.445 51.8958ZM155.07 53.6153C158.265 54.3627 161.399 55.3492 164.444 56.5664L164.774 55.7427C161.687 54.509 158.51 53.509 155.272 52.7516L155.07 53.6153ZM173.271 60.8898C174.681 61.7179 176.064 62.6008 177.414 63.5373L177.92 62.8083C176.551 61.859 175.15 60.9642 173.72 60.1248L173.271 60.8898ZM177.414 63.5373C178.763 64.4722 180.072 65.455 181.339 66.4831L181.898 65.7942C180.613 64.7521 179.287 63.7559 177.92 62.8083L177.414 63.5373ZM188.469 73.2179C190.673 75.6397 192.691 78.2238 194.505 80.9481L195.243 80.4565C193.405 77.695 191.36 75.0756 189.125 72.6207L188.469 73.2179ZM199.307 89.4993C199.996 90.979 200.631 92.4877 201.209 94.0228L202.04 93.7101C201.453 92.154 200.81 90.6246 200.111 89.1247L199.307 89.4993ZM201.209 94.0228C201.787 95.5559 202.304 97.1062 202.762 98.6704L203.613 98.4214C203.15 96.8358 202.625 95.2642 202.04 93.7101L201.209 94.0228ZM204.792 108.251C205.225 111.491 205.412 114.759 205.352 118.028L206.239 118.044C206.3 114.731 206.11 111.418 205.671 108.133L204.792 108.251ZM204.429 127.777C204.153 129.383 203.816 130.983 203.417 132.571L204.278 132.787C204.682 131.177 205.024 129.555 205.304 127.927L204.429 127.777ZM203.417 132.571C203.018 134.162 202.56 135.732 202.044 137.28L202.886 137.561C203.409 135.992 203.873 134.4 204.278 132.787L203.417 132.571ZM198.25 146.32C196.759 149.232 195.049 152.028 193.136 154.683L193.856 155.202C195.795 152.51 197.528 149.676 199.039 146.724L198.25 146.32ZM186.821 162.182C185.679 163.347 184.491 164.472 183.258 165.554L183.843 166.221C185.093 165.124 186.297 163.984 187.455 162.803L186.821 162.182ZM76.3388 132.126L75.4766 132.335L76.3388 132.126ZM78.9015 93.3339L79.7289 93.6538H79.7289L78.9015 93.3339ZM103.126 62.8494L103.625 63.5828L103.126 62.8494ZM140.447 51.4523L140.451 50.5652L140.447 51.4523ZM177.667 63.1728L178.173 62.4438L177.667 63.1728ZM201.624 93.8664L200.794 94.1791V94.1791L201.624 93.8664ZM203.848 132.679L204.708 132.895L203.848 132.679ZM93.4259 161.468C93.0861 161.115 92.5245 161.105 92.1716 161.444C91.8187 161.784 91.8082 162.346 92.1481 162.699L93.4259 161.468ZM85.7712 154.991C86.0542 155.391 86.6078 155.486 87.0078 155.203C87.4077 154.92 87.5026 154.366 87.2197 153.966L85.7712 154.991ZM82.2137 145.616C81.9942 145.178 81.4612 145 81.0232 145.22C80.5851 145.439 80.4079 145.972 80.6274 146.41L82.2137 145.616ZM76.836 137.152C76.9868 137.618 77.487 137.874 77.9531 137.723C78.4193 137.572 78.6749 137.072 78.524 136.606L76.836 137.152ZM76.2378 127.148C76.1591 126.664 75.7033 126.336 75.2197 126.415C74.7361 126.493 74.4079 126.949 74.4867 127.433L76.2378 127.148ZM73.6323 117.475C73.6371 117.965 74.0381 118.358 74.528 118.353C75.0179 118.348 75.4112 117.947 75.4064 117.457L73.6323 117.475ZM76.0477 107.753C76.1169 107.268 75.7799 106.818 75.2948 106.749C74.8098 106.68 74.3605 107.017 74.2913 107.502L76.0477 107.753ZM76.4483 97.7431C76.3067 98.2121 76.572 98.7071 77.0411 98.8488C77.5101 98.9904 78.0051 98.725 78.1467 98.256L76.4483 97.7431ZM81.6575 89.1779C81.8683 88.7356 81.6806 88.2062 81.2383 87.9955C80.796 87.7847 80.2666 87.9724 80.0559 88.4147L81.6575 89.1779ZM85.0328 79.7308C84.7577 80.1363 84.8634 80.6879 85.2689 80.963C85.6743 81.238 86.2259 81.1323 86.501 80.7269L85.0328 79.7308ZM92.5625 73.1017C92.8954 72.7423 92.8739 72.181 92.5145 71.8481C92.1551 71.5152 91.5938 71.5366 91.2609 71.8961L92.5625 73.1017ZM98.5962 65.0871C98.2131 65.3924 98.15 65.9505 98.4553 66.3337C98.7606 66.7168 99.3187 66.7799 99.7019 66.4746L98.5962 65.0871ZM107.764 60.9891C108.189 60.7448 108.335 60.2024 108.091 59.7778C107.846 59.3531 107.304 59.207 106.879 59.4513L107.764 60.9891ZM115.923 55.1182C115.467 55.296 115.241 55.8103 115.419 56.2668C115.597 56.7233 116.111 56.9492 116.567 56.7713L115.923 55.1182ZM125.904 53.9212C126.382 53.8137 126.682 53.3391 126.575 52.8611C126.467 52.3831 125.993 52.0827 125.515 52.1902L125.904 53.9212ZM135.436 50.7318C134.948 50.7665 134.58 51.1908 134.614 51.6795C134.649 52.1682 135.073 52.5362 135.562 52.5016L135.436 50.7318ZM145.324 52.5439C145.812 52.5828 146.239 52.2184 146.278 51.7301C146.317 51.2417 145.953 50.8142 145.464 50.7753L145.324 52.5439ZM155.373 52.3197C154.896 52.2081 154.419 52.5044 154.307 52.9814C154.195 53.4585 154.492 53.9357 154.969 54.0472L155.373 52.3197ZM164.28 56.9783C164.735 57.1601 165.251 56.9387 165.433 56.4838C165.615 56.0288 165.393 55.5126 164.938 55.3308L164.28 56.9783ZM173.944 59.7423C173.522 59.4942 172.978 59.6357 172.73 60.0582C172.482 60.4807 172.623 61.0243 173.046 61.2723L173.944 59.7423ZM181.06 66.8276C181.44 67.1363 181.999 67.078 182.308 66.6975C182.616 66.317 182.558 65.7584 182.178 65.4497L181.06 66.8276ZM189.453 72.3222C189.123 71.9599 188.562 71.9335 188.2 72.2633C187.838 72.5931 187.811 73.1541 188.141 73.5164L189.453 72.3222ZM194.136 81.1939C194.407 81.6018 194.958 81.7123 195.366 81.4408C195.773 81.1693 195.884 80.6186 195.612 80.2107L194.136 81.1939ZM200.513 88.9374C200.306 88.4933 199.779 88.301 199.334 88.5079C198.89 88.7148 198.698 89.2425 198.905 89.6866L200.513 88.9374ZM202.336 98.7949C202.474 99.2651 202.966 99.5348 203.437 99.3973C203.907 99.2598 204.177 98.7671 204.039 98.2968L202.336 98.7949ZM206.111 108.074C206.046 107.589 205.599 107.248 205.114 107.313C204.628 107.378 204.287 107.824 204.352 108.31L206.111 108.074ZM204.908 118.019C204.899 118.509 205.289 118.914 205.779 118.923C206.269 118.932 206.673 118.542 206.682 118.052L204.908 118.019ZM205.741 128.002C205.824 127.52 205.5 127.061 205.017 126.978C204.534 126.895 204.075 127.219 203.992 127.702L205.741 128.002ZM201.623 137.14C201.468 137.605 201.72 138.107 202.184 138.262C202.649 138.417 203.152 138.166 203.306 137.701L201.623 137.14ZM199.434 146.926C199.657 146.49 199.485 145.955 199.049 145.732C198.613 145.509 198.078 145.681 197.855 146.117L199.434 146.926ZM192.776 154.424C192.49 154.822 192.58 155.376 192.977 155.662C193.375 155.949 193.929 155.859 194.215 155.461L192.776 154.424ZM187.771 163.114C188.114 162.764 188.109 162.202 187.759 161.859C187.409 161.516 186.847 161.522 186.504 161.872L187.771 163.114ZM96.9354 164.847C95.7203 163.762 94.5499 162.635 93.4259 161.468L92.1481 162.699C93.3029 163.898 94.5054 165.056 95.7539 166.171L96.9354 164.847ZM87.2197 153.966C85.3424 151.312 83.6689 148.521 82.2137 145.616L80.6274 146.41C82.1227 149.395 83.8423 152.264 85.7712 154.991L87.2197 153.966ZM78.524 136.606C78.0252 135.064 77.5837 133.501 77.2011 131.918L75.4766 132.335C75.8697 133.961 76.3234 135.568 76.836 137.152L78.524 136.606ZM77.2011 131.918C76.8189 130.336 76.4979 128.745 76.2378 127.148L74.4867 127.433C74.7539 129.074 75.0838 130.709 75.4766 132.335L77.2011 131.918ZM75.4064 117.457C75.3746 114.211 75.589 110.967 76.0477 107.753L74.2913 107.502C73.8199 110.805 73.5996 114.139 73.6323 117.475L75.4064 117.457ZM78.1467 98.256C78.6146 96.7066 79.1421 95.1714 79.7289 93.6538L78.0741 93.014C77.4711 94.5734 76.9291 96.1509 76.4483 97.7431L78.1467 98.256ZM79.7289 93.6538C80.3164 92.1343 80.96 90.6415 81.6575 89.1779L80.0559 88.4147C79.3392 89.9186 78.6779 91.4526 78.0741 93.014L79.7289 93.6538ZM86.501 80.7269C88.3259 78.0369 90.3522 75.4879 92.5625 73.1017L91.2609 71.8961C88.9899 74.3478 86.9078 76.9669 85.0328 79.7308L86.501 80.7269ZM99.7019 66.4746C100.97 65.4644 102.278 64.4996 103.625 63.5828L102.627 62.116C101.243 63.0579 99.8987 64.0492 98.5962 65.0871L99.7019 66.4746ZM103.625 63.5828C104.975 62.6643 106.356 61.7994 107.764 60.9891L106.879 59.4513C105.432 60.2838 104.014 61.1724 102.627 62.116L103.625 63.5828ZM116.567 56.7713C119.603 55.5887 122.724 54.6359 125.904 53.9212L125.515 52.1902C122.248 52.9244 119.042 53.9032 115.923 55.1182L116.567 56.7713ZM135.562 52.5016C137.182 52.3867 138.811 52.3323 140.444 52.3394L140.451 50.5652C138.774 50.5579 137.101 50.6138 135.436 50.7318L135.562 52.5016ZM140.444 52.3394C142.076 52.3465 143.704 52.415 145.324 52.5439L145.464 50.7753C143.801 50.6429 142.129 50.5725 140.451 50.5652L140.444 52.3394ZM154.969 54.0472C158.142 54.7895 161.255 55.7694 164.28 56.9783L164.938 55.3308C161.83 54.0888 158.633 53.0822 155.373 52.3197L154.969 54.0472ZM173.046 61.2723C174.447 62.0948 175.82 62.9717 177.162 63.9018L178.173 62.4438C176.794 61.4882 175.384 60.5873 173.944 59.7423L173.046 61.2723ZM177.162 63.9018C178.501 64.8303 179.801 65.8065 181.06 66.8276L182.178 65.4497C180.884 64.4006 179.549 63.3977 178.173 62.4438L177.162 63.9018ZM188.141 73.5164C190.33 75.9217 192.334 78.4882 194.136 81.1939L195.612 80.2107C193.762 77.4306 191.703 74.7935 189.453 72.3222L188.141 73.5164ZM198.905 89.6866C199.59 91.1562 200.22 92.6546 200.794 94.1791L202.455 93.5537C201.865 91.9872 201.217 90.4475 200.513 88.9374L198.905 89.6866ZM200.794 94.1791C201.368 95.7017 201.882 97.2415 202.336 98.7949L204.039 98.2968C203.572 96.7005 203.044 95.1183 202.455 93.5537L200.794 94.1791ZM204.352 108.31C204.783 111.528 204.969 114.774 204.908 118.019L206.682 118.052C206.744 114.717 206.553 111.381 206.111 108.074L204.352 108.31ZM203.992 127.702C203.718 129.297 203.383 130.885 202.987 132.464L204.708 132.895C205.115 131.274 205.459 129.642 205.741 128.002L203.992 127.702ZM202.987 132.464C202.591 134.043 202.136 135.603 201.623 137.14L203.306 137.701C203.833 136.121 204.301 134.518 204.708 132.895L202.987 132.464ZM197.855 146.117C196.374 149.01 194.677 151.787 192.776 154.424L194.215 155.461C196.168 152.751 197.913 149.898 199.434 146.926L197.855 146.117ZM186.504 161.872C185.37 163.029 184.19 164.146 182.966 165.22L184.135 166.554C185.394 165.45 186.606 164.303 187.771 163.114L186.504 161.872Z" fill="#DBDBDB"/>
<circle cx="139.718" cy="118.427" r="11.9758" fill="#F2F6FA"/>
<path d="M106.984 54.113C106.984 54.113 132.699 118.343 135.61 122.634C137.336 125.179 140.478 126.122 143.187 124.665C146.089 123.104 147.017 119.338 145.381 116.476C143.406 113.021 106.984 54.113 106.984 54.113Z" fill="#5E6977" stroke="#5E6977" stroke-width="0.887097"/>
<path d="M111.671 198.387C111.762 198.557 111.844 198.736 111.919 198.922C111.999 199.103 112.076 199.287 112.151 199.473C112.225 199.281 112.302 199.092 112.382 198.906C112.462 198.72 112.547 198.542 112.638 198.371L116.055 191.976C116.097 191.896 116.14 191.832 116.182 191.785C116.23 191.737 116.281 191.702 116.334 191.681C116.393 191.659 116.456 191.646 116.526 191.641C116.595 191.635 116.677 191.633 116.773 191.633H118.394V203.177H116.502V195.721C116.502 195.582 116.504 195.43 116.51 195.265C116.52 195.1 116.534 194.933 116.55 194.762L113.061 201.309C112.981 201.458 112.877 201.575 112.749 201.661C112.622 201.74 112.473 201.78 112.302 201.78H112.007C111.836 201.78 111.687 201.74 111.56 201.661C111.432 201.575 111.328 201.458 111.248 201.309L107.711 194.739C107.733 194.914 107.746 195.087 107.751 195.257C107.762 195.422 107.767 195.577 107.767 195.721V203.177H105.875V191.633H107.496C107.592 191.633 107.674 191.635 107.743 191.641C107.813 191.646 107.874 191.659 107.927 191.681C107.986 191.702 108.039 191.737 108.087 191.785C108.135 191.832 108.18 191.896 108.222 191.976L111.671 198.387ZM124.105 194.858C124.717 194.858 125.271 194.957 125.766 195.154C126.266 195.351 126.692 195.63 127.043 195.992C127.395 196.354 127.666 196.796 127.858 197.317C128.049 197.839 128.145 198.422 128.145 199.066C128.145 199.715 128.049 200.301 127.858 200.822C127.666 201.344 127.395 201.788 127.043 202.156C126.692 202.523 126.266 202.805 125.766 203.002C125.271 203.199 124.717 203.297 124.105 203.297C123.493 203.297 122.937 203.199 122.437 203.002C121.936 202.805 121.508 202.523 121.151 202.156C120.8 201.788 120.526 201.344 120.329 200.822C120.137 200.301 120.042 199.715 120.042 199.066C120.042 198.422 120.137 197.839 120.329 197.317C120.526 196.796 120.8 196.354 121.151 195.992C121.508 195.63 121.936 195.351 122.437 195.154C122.937 194.957 123.493 194.858 124.105 194.858ZM124.105 201.78C124.787 201.78 125.29 201.551 125.614 201.094C125.944 200.636 126.109 199.965 126.109 199.082C126.109 198.198 125.944 197.525 125.614 197.062C125.29 196.599 124.787 196.367 124.105 196.367C123.413 196.367 122.902 196.601 122.572 197.07C122.242 197.533 122.077 198.204 122.077 199.082C122.077 199.96 122.242 200.631 122.572 201.094C122.902 201.551 123.413 201.78 124.105 201.78ZM135.448 203.177C135.193 203.177 135.025 203.058 134.945 202.818L134.786 202.028C134.615 202.219 134.437 202.392 134.251 202.547C134.064 202.701 133.862 202.834 133.644 202.946C133.431 203.058 133.199 203.143 132.949 203.201C132.704 203.265 132.438 203.297 132.151 203.297C131.704 203.297 131.294 203.204 130.921 203.018C130.549 202.832 130.227 202.563 129.955 202.211C129.689 201.855 129.482 201.416 129.333 200.894C129.189 200.372 129.117 199.776 129.117 199.106C129.117 198.499 129.199 197.935 129.364 197.413C129.529 196.892 129.766 196.439 130.075 196.056C130.384 195.673 130.754 195.375 131.185 195.162C131.616 194.943 132.1 194.834 132.638 194.834C133.096 194.834 133.487 194.909 133.812 195.058C134.136 195.202 134.426 195.396 134.682 195.641V191.313H136.654V203.177H135.448ZM132.822 201.732C133.231 201.732 133.58 201.647 133.867 201.477C134.155 201.307 134.426 201.064 134.682 200.75V197.078C134.458 196.806 134.213 196.615 133.947 196.503C133.686 196.391 133.404 196.335 133.101 196.335C132.803 196.335 132.531 196.391 132.287 196.503C132.047 196.615 131.842 196.785 131.672 197.014C131.507 197.237 131.379 197.525 131.289 197.876C131.198 198.222 131.153 198.632 131.153 199.106C131.153 199.585 131.19 199.992 131.265 200.327C131.344 200.657 131.456 200.929 131.6 201.142C131.744 201.349 131.919 201.501 132.127 201.597C132.334 201.687 132.566 201.732 132.822 201.732ZM142.176 194.858C142.692 194.858 143.166 194.941 143.597 195.106C144.033 195.271 144.408 195.513 144.722 195.832C145.036 196.146 145.281 196.535 145.457 196.998C145.633 197.456 145.72 197.98 145.72 198.571C145.72 198.72 145.712 198.845 145.696 198.946C145.686 199.042 145.662 199.119 145.625 199.178C145.593 199.231 145.547 199.271 145.489 199.297C145.43 199.319 145.356 199.329 145.265 199.329H140.204C140.262 200.17 140.488 200.788 140.882 201.182C141.276 201.575 141.798 201.772 142.447 201.772C142.766 201.772 143.041 201.735 143.269 201.661C143.504 201.586 143.706 201.504 143.876 201.413C144.052 201.323 144.204 201.24 144.331 201.166C144.464 201.091 144.592 201.054 144.714 201.054C144.794 201.054 144.864 201.07 144.922 201.102C144.981 201.134 145.031 201.179 145.074 201.237L145.649 201.956C145.43 202.211 145.186 202.427 144.914 202.603C144.643 202.773 144.358 202.911 144.06 203.018C143.767 203.119 143.466 203.191 143.158 203.233C142.854 203.276 142.559 203.297 142.271 203.297C141.702 203.297 141.172 203.204 140.683 203.018C140.193 202.826 139.767 202.547 139.405 202.18C139.043 201.807 138.759 201.349 138.551 200.806C138.343 200.258 138.24 199.625 138.24 198.906C138.24 198.347 138.33 197.823 138.511 197.333C138.692 196.838 138.95 196.41 139.285 196.048C139.626 195.681 140.039 195.391 140.523 195.178C141.013 194.965 141.564 194.858 142.176 194.858ZM142.216 196.271C141.641 196.271 141.191 196.434 140.866 196.758C140.542 197.083 140.334 197.544 140.244 198.14H143.948C143.948 197.884 143.913 197.645 143.844 197.421C143.775 197.192 143.669 196.993 143.525 196.822C143.381 196.652 143.2 196.519 142.982 196.423C142.764 196.322 142.508 196.271 142.216 196.271ZM147.32 203.177V194.986H148.478C148.68 194.986 148.821 195.023 148.901 195.098C148.981 195.172 149.034 195.3 149.061 195.481L149.18 196.471C149.473 195.965 149.816 195.566 150.21 195.273C150.604 194.981 151.046 194.834 151.536 194.834C151.94 194.834 152.275 194.927 152.542 195.114L152.286 196.591C152.27 196.687 152.235 196.756 152.182 196.798C152.129 196.836 152.057 196.854 151.967 196.854C151.887 196.854 151.778 196.836 151.639 196.798C151.501 196.761 151.317 196.742 151.088 196.742C150.679 196.742 150.327 196.857 150.035 197.086C149.742 197.309 149.494 197.639 149.292 198.076V203.177H147.32ZM160.023 203.177H159.137C158.951 203.177 158.804 203.151 158.698 203.098C158.592 203.039 158.512 202.925 158.458 202.754L158.283 202.172C158.075 202.358 157.87 202.523 157.668 202.667C157.471 202.805 157.266 202.922 157.053 203.018C156.84 203.114 156.614 203.185 156.375 203.233C156.135 203.281 155.869 203.305 155.576 203.305C155.23 203.305 154.911 203.26 154.618 203.17C154.325 203.074 154.073 202.933 153.86 202.746C153.652 202.56 153.49 202.329 153.373 202.052C153.256 201.775 153.197 201.453 153.197 201.086C153.197 200.777 153.277 200.474 153.437 200.176C153.602 199.872 153.873 199.601 154.251 199.361C154.629 199.116 155.132 198.914 155.76 198.754C156.388 198.595 157.168 198.504 158.099 198.483V198.004C158.099 197.456 157.982 197.051 157.748 196.79C157.519 196.524 157.184 196.391 156.742 196.391C156.423 196.391 156.156 196.428 155.944 196.503C155.731 196.577 155.544 196.663 155.385 196.758C155.23 196.849 155.087 196.931 154.954 197.006C154.82 197.08 154.674 197.118 154.514 197.118C154.381 197.118 154.267 197.083 154.171 197.014C154.075 196.945 153.998 196.86 153.94 196.758L153.58 196.128C154.522 195.265 155.659 194.834 156.989 194.834C157.468 194.834 157.894 194.914 158.267 195.074C158.645 195.228 158.964 195.446 159.225 195.729C159.486 196.005 159.683 196.338 159.816 196.727C159.954 197.115 160.023 197.541 160.023 198.004V203.177ZM156.191 201.948C156.393 201.948 156.58 201.929 156.75 201.892C156.92 201.855 157.08 201.799 157.229 201.724C157.383 201.65 157.53 201.559 157.668 201.453C157.812 201.341 157.955 201.211 158.099 201.062V199.681C157.524 199.707 157.043 199.758 156.654 199.832C156.271 199.901 155.962 199.992 155.728 200.104C155.494 200.215 155.326 200.346 155.225 200.495C155.129 200.644 155.081 200.806 155.081 200.982C155.081 201.328 155.182 201.575 155.385 201.724C155.592 201.873 155.861 201.948 156.191 201.948ZM164.653 203.305C163.945 203.305 163.399 203.106 163.016 202.706C162.633 202.302 162.441 201.746 162.441 201.038V196.463H161.611C161.505 196.463 161.411 196.428 161.332 196.359C161.257 196.29 161.22 196.186 161.22 196.048V195.265L162.537 195.05L162.952 192.814C162.974 192.708 163.022 192.625 163.096 192.567C163.176 192.508 163.274 192.479 163.391 192.479H164.413V195.058H166.569V196.463H164.413V200.902C164.413 201.158 164.477 201.357 164.605 201.501C164.733 201.645 164.903 201.716 165.116 201.716C165.238 201.716 165.34 201.703 165.419 201.677C165.505 201.645 165.576 201.613 165.635 201.581C165.699 201.549 165.755 201.52 165.803 201.493C165.851 201.461 165.898 201.445 165.946 201.445C166.005 201.445 166.053 201.461 166.09 201.493C166.127 201.52 166.167 201.562 166.21 201.621L166.801 202.579C166.513 202.818 166.183 202.999 165.811 203.122C165.438 203.244 165.052 203.305 164.653 203.305ZM171.523 194.858C172.039 194.858 172.513 194.941 172.944 195.106C173.38 195.271 173.755 195.513 174.069 195.832C174.383 196.146 174.628 196.535 174.804 196.998C174.98 197.456 175.067 197.98 175.067 198.571C175.067 198.72 175.059 198.845 175.043 198.946C175.033 199.042 175.009 199.119 174.972 199.178C174.94 199.231 174.894 199.271 174.836 199.297C174.777 199.319 174.703 199.329 174.612 199.329H169.551C169.609 200.17 169.835 200.788 170.229 201.182C170.623 201.575 171.145 201.772 171.794 201.772C172.113 201.772 172.387 201.735 172.616 201.661C172.851 201.586 173.053 201.504 173.223 201.413C173.399 201.323 173.55 201.24 173.678 201.166C173.811 201.091 173.939 201.054 174.061 201.054C174.141 201.054 174.21 201.07 174.269 201.102C174.328 201.134 174.378 201.179 174.421 201.237L174.996 201.956C174.777 202.211 174.532 202.427 174.261 202.603C173.99 202.773 173.705 202.911 173.407 203.018C173.114 203.119 172.813 203.191 172.505 203.233C172.201 203.276 171.906 203.297 171.618 203.297C171.049 203.297 170.519 203.204 170.03 203.018C169.54 202.826 169.114 202.547 168.752 202.18C168.39 201.807 168.105 201.349 167.898 200.806C167.69 200.258 167.587 199.625 167.587 198.906C167.587 198.347 167.677 197.823 167.858 197.333C168.039 196.838 168.297 196.41 168.632 196.048C168.973 195.681 169.386 195.391 169.87 195.178C170.36 194.965 170.91 194.858 171.523 194.858ZM171.562 196.271C170.988 196.271 170.538 196.434 170.213 196.758C169.889 197.083 169.681 197.544 169.59 198.14H173.295C173.295 197.884 173.26 197.645 173.191 197.421C173.122 197.192 173.016 196.993 172.872 196.822C172.728 196.652 172.547 196.519 172.329 196.423C172.111 196.322 171.855 196.271 171.562 196.271Z" fill="black"/>
<path d="M35.7534 190.1H39.0534V190.968H34.7208V183.341H35.7534V190.1ZM42.035 185.491C42.4289 185.491 42.7837 185.556 43.0995 185.688C43.4189 185.819 43.6885 186.005 43.9085 186.247C44.1321 186.488 44.3024 186.781 44.4195 187.125C44.5402 187.466 44.6005 187.847 44.6005 188.269C44.6005 188.695 44.5402 189.078 44.4195 189.419C44.3024 189.76 44.1321 190.051 43.9085 190.292C43.6885 190.533 43.4189 190.719 43.0995 190.851C42.7837 190.978 42.4289 191.042 42.035 191.042C41.6411 191.042 41.2845 190.978 40.9652 190.851C40.6494 190.719 40.3797 190.533 40.1561 190.292C39.9326 190.051 39.7605 189.76 39.6398 189.419C39.5192 189.078 39.4589 188.695 39.4589 188.269C39.4589 187.847 39.5192 187.466 39.6398 187.125C39.7605 186.781 39.9326 186.488 40.1561 186.247C40.3797 186.005 40.6494 185.819 40.9652 185.688C41.2845 185.556 41.6411 185.491 42.035 185.491ZM42.035 190.302C42.5673 190.302 42.9647 190.125 43.2273 189.77C43.4898 189.412 43.6211 188.913 43.6211 188.275C43.6211 187.632 43.4898 187.132 43.2273 186.774C42.9647 186.415 42.5673 186.236 42.035 186.236C41.7653 186.236 41.5311 186.282 41.3324 186.374C41.1337 186.467 40.9669 186.6 40.8321 186.774C40.7008 186.947 40.6014 187.162 40.534 187.418C40.4702 187.67 40.4382 187.955 40.4382 188.275C40.4382 188.594 40.4702 188.88 40.534 189.131C40.6014 189.383 40.7008 189.596 40.8321 189.77C40.9669 189.941 41.1337 190.072 41.3324 190.164C41.5311 190.256 41.7653 190.302 42.035 190.302ZM45.0653 185.576H45.8105C45.8885 185.576 45.9524 185.596 46.0021 185.635C46.0517 185.674 46.0855 185.72 46.1032 185.773L47.1358 189.243C47.1642 189.371 47.1908 189.495 47.2156 189.616C47.2405 189.733 47.2617 189.852 47.2795 189.972C47.3079 189.852 47.3398 189.733 47.3753 189.616C47.4108 189.495 47.448 189.371 47.4871 189.243L48.6261 185.752C48.6438 185.698 48.674 185.654 48.7166 185.619C48.7627 185.583 48.8195 185.565 48.8869 185.565H49.2967C49.3677 185.565 49.4263 185.583 49.4724 185.619C49.5185 185.654 49.5505 185.698 49.5682 185.752L50.6806 189.243C50.7196 189.367 50.7534 189.49 50.7817 189.611C50.8137 189.731 50.8438 189.85 50.8722 189.967C50.89 189.85 50.913 189.728 50.9414 189.6C50.9698 189.472 51 189.353 51.0319 189.243L52.0858 185.773C52.1035 185.716 52.1372 185.67 52.1869 185.635C52.2366 185.596 52.2951 185.576 52.3626 185.576H53.0758L51.33 190.968H50.5795C50.4872 190.968 50.4234 190.907 50.3879 190.787L49.1956 187.13C49.1672 187.049 49.1442 186.967 49.1264 186.885C49.1087 186.8 49.0909 186.717 49.0732 186.635C49.0555 186.717 49.0377 186.8 49.02 186.885C49.0022 186.971 48.9792 187.054 48.9508 187.136L47.7426 190.787C47.7035 190.907 47.6308 190.968 47.5243 190.968H46.8111L45.0653 185.576Z" fill="#4A5462"/>
<path d="M5.04594 62.2429C5.09562 62.3281 5.1382 62.4185 5.17368 62.5144C5.21271 62.6066 5.24997 62.7006 5.28546 62.7965C5.32094 62.6971 5.3582 62.6031 5.39723 62.5144C5.43626 62.4221 5.48062 62.3298 5.53029 62.2376L8.11175 57.5484C8.15788 57.4668 8.20578 57.4171 8.25546 57.3994C8.30513 57.3816 8.3761 57.3727 8.46836 57.3727H9.22949V65H8.32465V59.3953C8.32465 59.3208 8.32642 59.241 8.32997 59.1558C8.33352 59.0706 8.33884 58.9837 8.34594 58.895L5.73255 63.664C5.64384 63.8237 5.51965 63.9035 5.35997 63.9035H5.21094C5.05126 63.9035 4.92707 63.8237 4.83836 63.664L2.16642 58.879C2.17707 58.9713 2.18417 59.0618 2.18771 59.1505C2.19481 59.2392 2.19836 59.3208 2.19836 59.3953V65H1.29352V57.3727H2.05465C2.14691 57.3727 2.21788 57.3816 2.26755 57.3994C2.31723 57.4171 2.36513 57.4668 2.41126 57.5484L5.04594 62.2429ZM13.1195 59.5231C13.5133 59.5231 13.8682 59.5887 14.184 59.72C14.5033 59.8513 14.773 60.0376 14.993 60.2789C15.2166 60.5202 15.3869 60.8129 15.504 61.1571C15.6246 61.4977 15.6849 61.8792 15.6849 62.3015C15.6849 62.7273 15.6246 63.1105 15.504 63.4511C15.3869 63.7918 15.2166 64.0827 14.993 64.324C14.773 64.5653 14.5033 64.7516 14.184 64.8829C13.8682 65.0106 13.5133 65.0745 13.1195 65.0745C12.7256 65.0745 12.369 65.0106 12.0496 64.8829C11.7338 64.7516 11.4641 64.5653 11.2406 64.324C11.017 64.0827 10.8449 63.7918 10.7243 63.4511C10.6037 63.1105 10.5433 62.7273 10.5433 62.3015C10.5433 61.8792 10.6037 61.4977 10.7243 61.1571C10.8449 60.8129 11.017 60.5202 11.2406 60.2789C11.4641 60.0376 11.7338 59.8513 12.0496 59.72C12.369 59.5887 12.7256 59.5231 13.1195 59.5231ZM13.1195 64.3347C13.6517 64.3347 14.0491 64.1573 14.3117 63.8024C14.5743 63.444 14.7056 62.9455 14.7056 62.3068C14.7056 61.6645 14.5743 61.1642 14.3117 60.8058C14.0491 60.4474 13.6517 60.2682 13.1195 60.2682C12.8498 60.2682 12.6156 60.3144 12.4169 60.4066C12.2182 60.4989 12.0514 60.6319 11.9166 60.8058C11.7853 60.9797 11.6859 61.1944 11.6185 61.4498C11.5546 61.7018 11.5227 61.9874 11.5227 62.3068C11.5227 62.6261 11.5546 62.9118 11.6185 63.1637C11.6859 63.4156 11.7853 63.6285 11.9166 63.8024C12.0514 63.9727 12.2182 64.104 12.4169 64.1963C12.6156 64.2885 12.8498 64.3347 13.1195 64.3347ZM20.6473 65C20.5125 65 20.4273 64.9344 20.3919 64.8031L20.3067 64.1484C20.076 64.4287 19.8117 64.654 19.5136 64.8244C19.2191 64.9911 18.8802 65.0745 18.497 65.0745C18.1883 65.0745 17.908 65.016 17.656 64.8989C17.4041 64.7782 17.1894 64.6026 17.012 64.3719C16.8346 64.1413 16.698 63.8539 16.6022 63.5097C16.5064 63.1655 16.4585 62.7698 16.4585 62.3227C16.4585 61.9253 16.5117 61.5563 16.6181 61.2156C16.7246 60.8715 16.8772 60.5734 17.0759 60.3215C17.2781 60.0695 17.523 59.8726 17.8104 59.7306C18.0978 59.5852 18.4243 59.5124 18.7898 59.5124C19.1198 59.5124 19.4019 59.5692 19.636 59.6827C19.8702 59.7927 20.0796 59.9489 20.2641 60.1511V57.1598H21.2115V65H20.6473ZM18.811 64.3081C19.1198 64.3081 19.3894 64.2371 19.6201 64.0952C19.8543 63.9532 20.069 63.7527 20.2641 63.4937V60.8856C20.0902 60.6515 19.8986 60.4882 19.6893 60.396C19.4835 60.3002 19.2546 60.2523 19.0027 60.2523C18.4988 60.2523 18.112 60.4315 17.8423 60.7898C17.5727 61.1482 17.4378 61.6592 17.4378 62.3227C17.4378 62.674 17.468 62.9756 17.5283 63.2276C17.5886 63.476 17.6773 63.6818 17.7944 63.845C17.9115 64.0047 18.0552 64.1218 18.2256 64.1963C18.3959 64.2708 18.591 64.3081 18.811 64.3081ZM24.933 59.5231C25.2559 59.5231 25.554 59.5781 25.8272 59.6881C26.1004 59.7945 26.3364 59.9506 26.5351 60.1565C26.7338 60.3587 26.8882 60.6106 26.9982 60.9123C27.1117 61.2103 27.1685 61.551 27.1685 61.9342C27.1685 62.0832 27.1525 62.1826 27.1206 62.2323C27.0887 62.2819 27.0283 62.3068 26.9396 62.3068H23.3522C23.3593 62.6474 23.4054 62.9437 23.4906 63.1956C23.5758 63.4476 23.6929 63.6587 23.8419 63.829C23.9909 63.9958 24.1683 64.1218 24.3741 64.2069C24.5799 64.2885 24.8106 64.3294 25.0661 64.3294C25.3038 64.3294 25.5079 64.3027 25.6782 64.2495C25.852 64.1927 26.0011 64.1324 26.1253 64.0685C26.2495 64.0047 26.3524 63.9461 26.434 63.8929C26.5191 63.8361 26.5919 63.8077 26.6522 63.8077C26.7303 63.8077 26.7906 63.8379 26.8332 63.8982L27.0993 64.2442C26.9822 64.3861 26.842 64.5103 26.6788 64.6168C26.5156 64.7197 26.3399 64.8048 26.1519 64.8723C25.9674 64.9397 25.7758 64.9894 25.577 65.0213C25.3783 65.0568 25.1814 65.0745 24.9862 65.0745C24.6137 65.0745 24.2695 65.0124 23.9537 64.8882C23.6414 64.7605 23.3699 64.576 23.1393 64.3347C22.9122 64.0898 22.7348 63.7882 22.607 63.4298C22.4793 63.0715 22.4154 62.6598 22.4154 62.195C22.4154 61.8189 22.4722 61.4676 22.5858 61.1411C22.7029 60.8147 22.8696 60.5326 23.0861 60.2948C23.3025 60.0535 23.5669 59.8655 23.8791 59.7306C24.1914 59.5923 24.5427 59.5231 24.933 59.5231ZM24.9543 60.2203C24.4966 60.2203 24.1364 60.3534 23.8738 60.6195C23.6112 60.8821 23.448 61.2476 23.3841 61.716H26.3169C26.3169 61.496 26.2867 61.2955 26.2264 61.1145C26.1661 60.93 26.0774 60.7721 25.9603 60.6408C25.8432 60.506 25.6995 60.4031 25.5291 60.3321C25.3624 60.2576 25.1708 60.2203 24.9543 60.2203ZM28.3811 65V59.6082H28.924C29.0269 59.6082 29.0979 59.6277 29.1369 59.6668C29.176 59.7058 29.2026 59.7732 29.2168 59.869L29.2806 60.71C29.4652 60.3339 29.6923 60.0411 29.9619 59.8318C30.2352 59.6189 30.5545 59.5124 30.92 59.5124C31.069 59.5124 31.2039 59.5302 31.3245 59.5656C31.4452 59.5976 31.5569 59.6437 31.6598 59.704L31.5374 60.4119C31.5126 60.5006 31.4576 60.545 31.3724 60.545C31.3227 60.545 31.2465 60.529 31.1435 60.4971C31.0406 60.4616 30.8969 60.4439 30.7124 60.4439C30.3824 60.4439 30.1056 60.5397 29.8821 60.7313C29.6621 60.9229 29.4776 61.2015 29.3285 61.5669V65H28.3811ZM36.437 65H36.0165C35.9243 65 35.8498 64.9858 35.793 64.9574C35.7362 64.929 35.699 64.8687 35.6812 64.7765L35.5748 64.2761C35.4328 64.4039 35.2944 64.5192 35.1596 64.6221C35.0248 64.7215 34.8828 64.8066 34.7338 64.8776C34.5848 64.945 34.4251 64.9965 34.2548 65.0319C34.088 65.0674 33.9017 65.0852 33.6959 65.0852C33.4865 65.0852 33.2896 65.0568 33.1051 65C32.9241 64.9397 32.7662 64.851 32.6314 64.7339C32.4965 64.6168 32.3883 64.4695 32.3067 64.2921C32.2286 64.1111 32.1896 63.8982 32.1896 63.6534C32.1896 63.4405 32.2482 63.2365 32.3652 63.0413C32.4823 62.8426 32.6704 62.6669 32.9294 62.5144C33.192 62.3618 33.5344 62.2376 33.9567 62.1418C34.379 62.0424 34.8952 61.9856 35.5056 61.9715V61.551C35.5056 61.1323 35.4151 60.8165 35.2341 60.6035C35.0567 60.3871 34.7923 60.2789 34.4411 60.2789C34.2104 60.2789 34.0152 60.309 33.8556 60.3694C33.6994 60.4261 33.5628 60.4918 33.4457 60.5663C33.3322 60.6373 33.2328 60.7029 33.1477 60.7632C33.0661 60.82 32.9844 60.8484 32.9028 60.8484C32.839 60.8484 32.7822 60.8324 32.7325 60.8005C32.6864 60.765 32.6491 60.7224 32.6207 60.6727L32.4504 60.3694C32.7485 60.0819 33.0696 59.8673 33.4138 59.7253C33.758 59.5834 34.1394 59.5124 34.5582 59.5124C34.8598 59.5124 35.1277 59.5621 35.3619 59.6615C35.5961 59.7608 35.793 59.8992 35.9527 60.0766C36.1123 60.254 36.233 60.4687 36.3146 60.7206C36.3962 60.9726 36.437 61.2494 36.437 61.551V65ZM33.978 64.4198C34.1448 64.4198 34.2973 64.4039 34.4357 64.3719C34.5741 64.3365 34.7036 64.2885 34.8243 64.2282C34.9485 64.1644 35.0656 64.0881 35.1756 63.9994C35.2891 63.9106 35.3991 63.8095 35.5056 63.696V62.5729C35.0691 62.5871 34.6983 62.6226 34.3932 62.6794C34.088 62.7326 33.8396 62.8035 33.648 62.8923C33.4564 62.981 33.3162 63.0856 33.2275 63.2063C33.1423 63.3269 33.0998 63.4618 33.0998 63.6108C33.0998 63.7527 33.1228 63.8752 33.169 63.9781C33.2151 64.081 33.2772 64.1661 33.3552 64.2335C33.4333 64.2974 33.5256 64.3453 33.632 64.3773C33.7385 64.4056 33.8538 64.4198 33.978 64.4198ZM39.5064 65.0852C39.0806 65.0852 38.7524 64.9663 38.5217 64.7285C38.2946 64.4908 38.1811 64.1484 38.1811 63.7013V60.4013H37.5317C37.475 60.4013 37.4271 60.3853 37.388 60.3534C37.349 60.3179 37.3295 60.2647 37.3295 60.1937V59.8158L38.213 59.704L38.4312 58.0381C38.4383 57.9848 38.4614 57.9423 38.5004 57.9103C38.5395 57.8748 38.5891 57.8571 38.6495 57.8571H39.1285V59.7147H40.6721V60.4013H39.1285V63.6374C39.1285 63.8645 39.1835 64.0331 39.2935 64.1431C39.4035 64.2531 39.5454 64.3081 39.7193 64.3081C39.8187 64.3081 39.9038 64.2956 39.9748 64.2708C40.0493 64.2424 40.1132 64.2123 40.1664 64.1803C40.2196 64.1484 40.264 64.12 40.2995 64.0952C40.3385 64.0668 40.3722 64.0526 40.4006 64.0526C40.4503 64.0526 40.4946 64.0827 40.5337 64.1431L40.8104 64.5955C40.6472 64.7481 40.4503 64.8687 40.2196 64.9574C39.989 65.0426 39.7512 65.0852 39.5064 65.0852ZM43.9779 59.5231C44.3008 59.5231 44.5988 59.5781 44.8721 59.6881C45.1453 59.7945 45.3813 59.9506 45.58 60.1565C45.7787 60.3587 45.933 60.6106 46.043 60.9123C46.1566 61.2103 46.2134 61.551 46.2134 61.9342C46.2134 62.0832 46.1974 62.1826 46.1655 62.2323C46.1335 62.2819 46.0732 62.3068 45.9845 62.3068H42.3971C42.4042 62.6474 42.4503 62.9437 42.5355 63.1956C42.6206 63.4476 42.7377 63.6587 42.8867 63.829C43.0358 63.9958 43.2132 64.1218 43.419 64.2069C43.6248 64.2885 43.8555 64.3294 44.1109 64.3294C44.3487 64.3294 44.5527 64.3027 44.723 64.2495C44.8969 64.1927 45.0459 64.1324 45.1701 64.0685C45.2943 64.0047 45.3972 63.9461 45.4788 63.8929C45.564 63.8361 45.6367 63.8077 45.6971 63.8077C45.7751 63.8077 45.8355 63.8379 45.878 63.8982L46.1442 64.2442C46.0271 64.3861 45.8869 64.5103 45.7237 64.6168C45.5605 64.7197 45.3848 64.8048 45.1967 64.8723C45.0122 64.9397 44.8206 64.9894 44.6219 65.0213C44.4232 65.0568 44.2263 65.0745 44.0311 65.0745C43.6585 65.0745 43.3143 65.0124 42.9985 64.8882C42.6863 64.7605 42.4148 64.576 42.1842 64.3347C41.9571 64.0898 41.7796 63.7882 41.6519 63.4298C41.5242 63.0715 41.4603 62.6598 41.4603 62.195C41.4603 61.8189 41.5171 61.4676 41.6306 61.1411C41.7477 60.8147 41.9145 60.5326 42.1309 60.2948C42.3474 60.0535 42.6117 59.8655 42.924 59.7306C43.2363 59.5923 43.5876 59.5231 43.9779 59.5231ZM43.9992 60.2203C43.5414 60.2203 43.1813 60.3534 42.9187 60.6195C42.6561 60.8821 42.4929 61.2476 42.429 61.716H45.3617C45.3617 61.496 45.3316 61.2955 45.2713 61.1145C45.2109 60.93 45.1222 60.7721 45.0051 60.6408C44.888 60.506 44.7443 60.4031 44.574 60.3321C44.4072 60.2576 44.2156 60.2203 43.9992 60.2203Z" fill="#4A5462"/>
<path d="M102.419 7.2429C102.468 7.32806 102.511 7.41855 102.546 7.51435C102.585 7.60661 102.623 7.70065 102.658 7.79645C102.694 7.6971 102.731 7.60306 102.77 7.51435C102.809 7.4221 102.853 7.32984 102.903 7.23758L105.484 2.54839C105.531 2.46677 105.579 2.4171 105.628 2.39935C105.678 2.38161 105.749 2.37274 105.841 2.37274H106.602V10H105.697V4.39532C105.697 4.32081 105.699 4.24097 105.703 4.15581C105.706 4.07065 105.712 3.98371 105.719 3.895L103.105 8.66403C103.017 8.82371 102.892 8.90355 102.733 8.90355H102.584C102.424 8.90355 102.3 8.82371 102.211 8.66403L99.5392 3.87903C99.5498 3.97129 99.5569 4.06177 99.5604 4.15048C99.5675 4.23919 99.5711 4.32081 99.5711 4.39532V10H98.6663V2.37274H99.4274C99.5196 2.37274 99.5906 2.38161 99.6403 2.39935C99.69 2.4171 99.7379 2.46677 99.784 2.54839L102.419 7.2429ZM110.492 4.52306C110.886 4.52306 111.241 4.58871 111.557 4.72C111.876 4.85129 112.146 5.03758 112.366 5.27887C112.589 5.52016 112.76 5.8129 112.877 6.1571C112.997 6.49774 113.058 6.87919 113.058 7.30145C113.058 7.72726 112.997 8.11048 112.877 8.45113C112.76 8.79177 112.589 9.08274 112.366 9.32403C112.146 9.56532 111.876 9.75161 111.557 9.8829C111.241 10.0106 110.886 10.0745 110.492 10.0745C110.098 10.0745 109.742 10.0106 109.422 9.8829C109.107 9.75161 108.837 9.56532 108.613 9.32403C108.39 9.08274 108.218 8.79177 108.097 8.45113C107.976 8.11048 107.916 7.72726 107.916 7.30145C107.916 6.87919 107.976 6.49774 108.097 6.1571C108.218 5.8129 108.39 5.52016 108.613 5.27887C108.837 5.03758 109.107 4.85129 109.422 4.72C109.742 4.58871 110.098 4.52306 110.492 4.52306ZM110.492 9.33468C111.024 9.33468 111.422 9.15726 111.684 8.80242C111.947 8.44403 112.078 7.94548 112.078 7.30677C112.078 6.66452 111.947 6.16419 111.684 5.80581C111.422 5.44742 111.024 5.26823 110.492 5.26823C110.223 5.26823 109.988 5.31435 109.79 5.40661C109.591 5.49887 109.424 5.63194 109.289 5.80581C109.158 5.97968 109.059 6.19435 108.991 6.44984C108.927 6.70177 108.895 6.98742 108.895 7.30677C108.895 7.62613 108.927 7.91177 108.991 8.16371C109.059 8.41565 109.158 8.62855 109.289 8.80242C109.424 8.97274 109.591 9.10403 109.79 9.19629C109.988 9.28855 110.223 9.33468 110.492 9.33468ZM118.02 10C117.885 10 117.8 9.93435 117.765 9.80306L117.679 9.14839C117.449 9.42871 117.184 9.65403 116.886 9.82435C116.592 9.99113 116.253 10.0745 115.87 10.0745C115.561 10.0745 115.281 10.016 115.029 9.89887C114.777 9.77823 114.562 9.60258 114.385 9.37194C114.207 9.14129 114.071 8.85387 113.975 8.50968C113.879 8.16548 113.831 7.76984 113.831 7.32274C113.831 6.92532 113.884 6.55629 113.991 6.21565C114.097 5.87145 114.25 5.57339 114.449 5.32145C114.651 5.06952 114.896 4.87258 115.183 4.73065C115.471 4.58516 115.797 4.51242 116.162 4.51242C116.492 4.51242 116.775 4.56919 117.009 4.68274C117.243 4.79274 117.452 4.94887 117.637 5.15113V2.15984H118.584V10H118.02ZM116.184 9.30806C116.492 9.30806 116.762 9.2371 116.993 9.09516C117.227 8.95323 117.442 8.75274 117.637 8.49371V5.88565C117.463 5.65145 117.271 5.48823 117.062 5.39597C116.856 5.30016 116.627 5.25226 116.375 5.25226C115.872 5.25226 115.485 5.43145 115.215 5.78984C114.945 6.14823 114.811 6.65919 114.811 7.32274C114.811 7.67403 114.841 7.97565 114.901 8.22758C114.961 8.47597 115.05 8.68177 115.167 8.845C115.284 9.00468 115.428 9.12177 115.598 9.19629C115.769 9.27081 115.964 9.30806 116.184 9.30806ZM122.306 4.52306C122.629 4.52306 122.927 4.57806 123.2 4.68806C123.473 4.79452 123.709 4.95065 123.908 5.15645C124.107 5.35871 124.261 5.61065 124.371 5.91226C124.484 6.21032 124.541 6.55097 124.541 6.93419C124.541 7.08323 124.525 7.18258 124.493 7.23226C124.461 7.28194 124.401 7.30677 124.312 7.30677H120.725C120.732 7.64742 120.778 7.94371 120.863 8.19565C120.948 8.44758 121.066 8.65871 121.215 8.82903C121.364 8.99581 121.541 9.12177 121.747 9.20694C121.953 9.28855 122.183 9.32935 122.439 9.32935C122.677 9.32935 122.881 9.30274 123.051 9.24952C123.225 9.19274 123.374 9.13242 123.498 9.06855C123.622 9.00468 123.725 8.94613 123.807 8.8929C123.892 8.83613 123.965 8.80774 124.025 8.80774C124.103 8.80774 124.163 8.8379 124.206 8.89823L124.472 9.24419C124.355 9.38613 124.215 9.51032 124.052 9.61677C123.888 9.71968 123.713 9.80484 123.525 9.87226C123.34 9.93968 123.148 9.98935 122.95 10.0213C122.751 10.0568 122.554 10.0745 122.359 10.0745C121.986 10.0745 121.642 10.0124 121.326 9.88823C121.014 9.76048 120.743 9.57597 120.512 9.33468C120.285 9.08984 120.108 8.78823 119.98 8.42984C119.852 8.07145 119.788 7.65984 119.788 7.195C119.788 6.81887 119.845 6.46758 119.958 6.14113C120.076 5.81468 120.242 5.53258 120.459 5.29484C120.675 5.05355 120.94 4.86548 121.252 4.73065C121.564 4.59226 121.915 4.52306 122.306 4.52306ZM122.327 5.22032C121.869 5.22032 121.509 5.35339 121.247 5.61952C120.984 5.8821 120.821 6.24758 120.757 6.71597H123.69C123.69 6.49597 123.659 6.29548 123.599 6.11452C123.539 5.93 123.45 5.7721 123.333 5.64081C123.216 5.50597 123.072 5.40306 122.902 5.3321C122.735 5.25758 122.543 5.22032 122.327 5.22032ZM125.754 10V4.60823H126.297C126.4 4.60823 126.471 4.62774 126.51 4.66677C126.549 4.70581 126.575 4.77323 126.59 4.86903L126.653 5.71C126.838 5.33387 127.065 5.04113 127.335 4.83177C127.608 4.61887 127.927 4.51242 128.293 4.51242C128.442 4.51242 128.577 4.53016 128.697 4.56565C128.818 4.59758 128.93 4.64371 129.033 4.70403L128.91 5.41194C128.885 5.50065 128.83 5.545 128.745 5.545C128.695 5.545 128.619 5.52903 128.516 5.4971C128.413 5.46161 128.27 5.44387 128.085 5.44387C127.755 5.44387 127.478 5.53968 127.255 5.73129C127.035 5.9229 126.85 6.20145 126.701 6.56694V10H125.754ZM133.81 10H133.389C133.297 10 133.222 9.98581 133.166 9.95742C133.109 9.92903 133.072 9.86871 133.054 9.77645L132.947 9.27613C132.806 9.40387 132.667 9.51919 132.532 9.6221C132.397 9.72145 132.256 9.80661 132.107 9.87758C131.957 9.945 131.798 9.99645 131.627 10.0319C131.461 10.0674 131.274 10.0852 131.069 10.0852C130.859 10.0852 130.662 10.0568 130.478 10C130.297 9.93968 130.139 9.85097 130.004 9.73387C129.869 9.61677 129.761 9.46952 129.679 9.2921C129.601 9.11113 129.562 8.89823 129.562 8.65339C129.562 8.44048 129.621 8.23645 129.738 8.04129C129.855 7.84258 130.043 7.66694 130.302 7.51435C130.565 7.36177 130.907 7.23758 131.329 7.14177C131.752 7.04242 132.268 6.98565 132.878 6.97145V6.55097C132.878 6.13226 132.788 5.81645 132.607 5.60355C132.429 5.3871 132.165 5.27887 131.814 5.27887C131.583 5.27887 131.388 5.30903 131.228 5.36935C131.072 5.42613 130.936 5.49177 130.818 5.56629C130.705 5.63726 130.606 5.7029 130.52 5.76323C130.439 5.82 130.357 5.84839 130.276 5.84839C130.212 5.84839 130.155 5.83242 130.105 5.80048C130.059 5.765 130.022 5.72242 129.993 5.67274L129.823 5.36935C130.121 5.08194 130.442 4.86726 130.787 4.72532C131.131 4.58339 131.512 4.51242 131.931 4.51242C132.232 4.51242 132.5 4.5621 132.735 4.66145C132.969 4.76081 133.166 4.89919 133.325 5.07661C133.485 5.25403 133.606 5.46871 133.687 5.72065C133.769 5.97258 133.81 6.24935 133.81 6.55097V10ZM131.351 9.41984C131.517 9.41984 131.67 9.40387 131.808 9.37194C131.947 9.33645 132.076 9.28855 132.197 9.22823C132.321 9.16435 132.438 9.08806 132.548 8.99935C132.662 8.91065 132.772 8.80952 132.878 8.69597V7.5729C132.442 7.5871 132.071 7.62258 131.766 7.67935C131.461 7.73258 131.212 7.80355 131.021 7.89226C130.829 7.98097 130.689 8.08565 130.6 8.20629C130.515 8.32694 130.472 8.46177 130.472 8.61081C130.472 8.75274 130.496 8.87516 130.542 8.97806C130.588 9.08097 130.65 9.16613 130.728 9.23355C130.806 9.29742 130.898 9.34532 131.005 9.37726C131.111 9.40565 131.227 9.41984 131.351 9.41984ZM136.879 10.0852C136.453 10.0852 136.125 9.96629 135.894 9.72855C135.667 9.49081 135.554 9.14839 135.554 8.70129V5.40129H134.904C134.848 5.40129 134.8 5.38532 134.761 5.35339C134.722 5.3179 134.702 5.26468 134.702 5.19371V4.81581L135.586 4.70403L135.804 3.03806C135.811 2.98484 135.834 2.94226 135.873 2.91032C135.912 2.87484 135.962 2.8571 136.022 2.8571H136.501V4.71468H138.045V5.40129H136.501V8.63742C136.501 8.86452 136.556 9.03306 136.666 9.14306C136.776 9.25306 136.918 9.30806 137.092 9.30806C137.191 9.30806 137.277 9.29565 137.348 9.27081C137.422 9.24242 137.486 9.21226 137.539 9.18032C137.592 9.14839 137.637 9.12 137.672 9.09516C137.711 9.06677 137.745 9.05258 137.773 9.05258C137.823 9.05258 137.867 9.08274 137.906 9.14306L138.183 9.59548C138.02 9.74806 137.823 9.86871 137.592 9.95742C137.362 10.0426 137.124 10.0852 136.879 10.0852ZM141.351 4.52306C141.674 4.52306 141.972 4.57806 142.245 4.68806C142.518 4.79452 142.754 4.95065 142.953 5.15645C143.151 5.35871 143.306 5.61065 143.416 5.91226C143.529 6.21032 143.586 6.55097 143.586 6.93419C143.586 7.08323 143.57 7.18258 143.538 7.23226C143.506 7.28194 143.446 7.30677 143.357 7.30677H139.77C139.777 7.64742 139.823 7.94371 139.908 8.19565C139.993 8.44758 140.11 8.65871 140.259 8.82903C140.409 8.99581 140.586 9.12177 140.792 9.20694C140.998 9.28855 141.228 9.32935 141.484 9.32935C141.721 9.32935 141.925 9.30274 142.096 9.24952C142.27 9.19274 142.419 9.13242 142.543 9.06855C142.667 9.00468 142.77 8.94613 142.852 8.8929C142.937 8.83613 143.009 8.80774 143.07 8.80774C143.148 8.80774 143.208 8.8379 143.251 8.89823L143.517 9.24419C143.4 9.38613 143.26 9.51032 143.096 9.61677C142.933 9.71968 142.758 9.80484 142.569 9.87226C142.385 9.93968 142.193 9.98935 141.995 10.0213C141.796 10.0568 141.599 10.0745 141.404 10.0745C141.031 10.0745 140.687 10.0124 140.371 9.88823C140.059 9.76048 139.788 9.57597 139.557 9.33468C139.33 9.08984 139.152 8.78823 139.025 8.42984C138.897 8.07145 138.833 7.65984 138.833 7.195C138.833 6.81887 138.89 6.46758 139.003 6.14113C139.12 5.81468 139.287 5.53258 139.504 5.29484C139.72 5.05355 139.984 4.86548 140.297 4.73065C140.609 4.59226 140.96 4.52306 141.351 4.52306ZM141.372 5.22032C140.914 5.22032 140.554 5.35339 140.291 5.61952C140.029 5.8821 139.866 6.24758 139.802 6.71597H142.734C142.734 6.49597 142.704 6.29548 142.644 6.11452C142.584 5.93 142.495 5.7721 142.378 5.64081C142.261 5.50597 142.117 5.40306 141.947 5.3321C141.78 5.25758 141.588 5.22032 141.372 5.22032ZM145.853 2.15984V10H144.905V2.15984H145.853ZM149.103 11.5915C149.071 11.6624 149.03 11.7192 148.981 11.7618C148.935 11.8044 148.862 11.8256 148.763 11.8256H148.06L149.045 9.68597L146.82 4.60823H147.639C147.721 4.60823 147.785 4.62952 147.831 4.6721C147.877 4.71113 147.911 4.75548 147.932 4.80516L149.375 8.20097C149.407 8.27903 149.433 8.3571 149.454 8.43516C149.479 8.51323 149.501 8.59306 149.518 8.67468C149.543 8.59306 149.568 8.51323 149.593 8.43516C149.618 8.3571 149.646 8.27726 149.678 8.19565L151.078 4.80516C151.099 4.74839 151.135 4.70226 151.184 4.66677C151.238 4.62774 151.294 4.60823 151.355 4.60823H152.11L149.103 11.5915ZM161.362 10H160.324V6.52968H156.215V10H155.177V2.37274H156.215V5.77387H160.324V2.37274H161.362V10ZM164.128 4.60823V10H163.181V4.60823H164.128ZM164.341 2.91565C164.341 3.0079 164.322 3.09484 164.283 3.17645C164.247 3.25452 164.197 3.32548 164.133 3.38935C164.073 3.44968 164.002 3.49758 163.921 3.53306C163.839 3.56855 163.752 3.58629 163.66 3.58629C163.568 3.58629 163.481 3.56855 163.399 3.53306C163.321 3.49758 163.25 3.44968 163.186 3.38935C163.126 3.32548 163.078 3.25452 163.042 3.17645C163.007 3.09484 162.989 3.0079 162.989 2.91565C162.989 2.82339 163.007 2.73645 163.042 2.65484C163.078 2.56968 163.126 2.49694 163.186 2.43661C163.25 2.37274 163.321 2.32306 163.399 2.28758C163.481 2.2521 163.568 2.23435 163.66 2.23435C163.752 2.23435 163.839 2.2521 163.921 2.28758C164.002 2.32306 164.073 2.37274 164.133 2.43661C164.197 2.49694 164.247 2.56968 164.283 2.65484C164.322 2.73645 164.341 2.82339 164.341 2.91565ZM167.613 4.51774C167.847 4.51774 168.065 4.54435 168.268 4.59758C168.473 4.64726 168.66 4.72177 168.827 4.82113H170.29V5.17242C170.29 5.28952 170.216 5.36403 170.067 5.39597L169.455 5.48113C169.575 5.71177 169.636 5.96903 169.636 6.2529C169.636 6.51548 169.584 6.755 169.481 6.97145C169.382 7.18435 169.242 7.3671 169.061 7.51968C168.883 7.67226 168.67 7.78935 168.422 7.87097C168.177 7.95258 167.907 7.99339 167.613 7.99339C167.361 7.99339 167.123 7.96323 166.9 7.9029C166.786 7.97387 166.699 8.05016 166.639 8.13177C166.582 8.21339 166.554 8.29323 166.554 8.37129C166.554 8.49903 166.605 8.59661 166.708 8.66403C166.811 8.7279 166.948 8.77403 167.118 8.80242C167.288 8.83081 167.482 8.84855 167.698 8.85565C167.915 8.86274 168.135 8.87516 168.358 8.8929C168.585 8.9071 168.807 8.93371 169.023 8.97274C169.24 9.01177 169.433 9.07565 169.604 9.16435C169.774 9.25306 169.911 9.37548 170.013 9.53161C170.116 9.68774 170.168 9.89 170.168 10.1384C170.168 10.369 170.109 10.5926 169.992 10.809C169.879 11.0255 169.714 11.2171 169.497 11.3839C169.281 11.5542 169.016 11.689 168.704 11.7884C168.392 11.8913 168.039 11.9427 167.645 11.9427C167.251 11.9427 166.905 11.9037 166.607 11.8256C166.312 11.7476 166.068 11.6429 165.872 11.5116C165.677 11.3803 165.53 11.2277 165.431 11.0539C165.335 10.8835 165.287 10.7044 165.287 10.5163C165.287 10.2502 165.37 10.0248 165.537 9.84032C165.707 9.65226 165.94 9.50323 166.234 9.39323C166.082 9.32226 165.959 9.22823 165.867 9.11113C165.778 8.99048 165.734 8.83081 165.734 8.6321C165.734 8.55403 165.748 8.47419 165.777 8.39258C165.805 8.30742 165.848 8.22403 165.904 8.14242C165.965 8.06081 166.037 7.98274 166.123 7.90823C166.208 7.83371 166.307 7.76806 166.421 7.71129C166.155 7.56226 165.945 7.36532 165.793 7.12048C165.644 6.8721 165.569 6.5829 165.569 6.2529C165.569 5.99032 165.619 5.75258 165.718 5.53968C165.821 5.32323 165.963 5.14048 166.144 4.99145C166.325 4.83887 166.54 4.72177 166.788 4.64016C167.04 4.55855 167.315 4.51774 167.613 4.51774ZM169.295 10.2927C169.295 10.1579 169.258 10.0497 169.183 9.96806C169.109 9.88645 169.007 9.82435 168.88 9.78177C168.752 9.73565 168.605 9.70194 168.438 9.68065C168.271 9.65935 168.096 9.64516 167.911 9.63806C167.727 9.62742 167.538 9.61677 167.347 9.60613C167.155 9.59548 166.972 9.57597 166.799 9.54758C166.596 9.64339 166.431 9.76048 166.304 9.89887C166.179 10.0373 166.117 10.2023 166.117 10.3939C166.117 10.5145 166.147 10.6263 166.208 10.7292C166.272 10.8356 166.367 10.9261 166.495 11.0006C166.623 11.0787 166.783 11.139 166.974 11.1816C167.169 11.2277 167.398 11.2508 167.661 11.2508C167.916 11.2508 168.145 11.2277 168.347 11.1816C168.55 11.1355 168.72 11.0698 168.858 10.9847C169 10.8995 169.109 10.7984 169.183 10.6813C169.258 10.5642 169.295 10.4347 169.295 10.2927ZM167.613 7.36532C167.805 7.36532 167.973 7.33871 168.119 7.28548C168.268 7.23226 168.392 7.15774 168.491 7.06194C168.591 6.96613 168.665 6.85258 168.715 6.72129C168.764 6.58645 168.789 6.43919 168.789 6.27952C168.789 5.94952 168.688 5.68694 168.486 5.49177C168.287 5.29661 167.996 5.19903 167.613 5.19903C167.233 5.19903 166.942 5.29661 166.74 5.49177C166.541 5.68694 166.442 5.94952 166.442 6.27952C166.442 6.43919 166.467 6.58645 166.517 6.72129C166.57 6.85258 166.646 6.96613 166.745 7.06194C166.845 7.15774 166.967 7.23226 167.113 7.28548C167.258 7.33871 167.425 7.36532 167.613 7.36532ZM171.235 10V2.15984H172.182V5.3321C172.413 5.08726 172.668 4.8921 172.949 4.74661C173.229 4.59758 173.552 4.52306 173.917 4.52306C174.212 4.52306 174.471 4.57274 174.695 4.6721C174.922 4.7679 175.11 4.90629 175.259 5.08726C175.411 5.26468 175.527 5.47935 175.605 5.73129C175.683 5.98323 175.722 6.26177 175.722 6.56694V10H174.774V6.56694C174.774 6.15887 174.68 5.84306 174.492 5.61952C174.308 5.39242 174.024 5.27887 173.641 5.27887C173.36 5.27887 173.098 5.34629 172.853 5.48113C172.612 5.61597 172.388 5.79871 172.182 6.02935V10H171.235Z" fill="#4A5462"/>
<path d="M240.445 65H239.407V61.5297H235.298V65H234.26V57.3727H235.298V60.7739H239.407V57.3727H240.445V65ZM243.211 59.6082V65H242.264V59.6082H243.211ZM243.424 57.9156C243.424 58.0079 243.405 58.0948 243.366 58.1765C243.33 58.2545 243.281 58.3255 243.217 58.3894C243.156 58.4497 243.085 58.4976 243.004 58.5331C242.922 58.5685 242.835 58.5863 242.743 58.5863C242.651 58.5863 242.564 58.5685 242.482 58.5331C242.404 58.4976 242.333 58.4497 242.269 58.3894C242.209 58.3255 242.161 58.2545 242.126 58.1765C242.09 58.0948 242.072 58.0079 242.072 57.9156C242.072 57.8234 242.09 57.7365 242.126 57.6548C242.161 57.5697 242.209 57.4969 242.269 57.4366C242.333 57.3727 242.404 57.3231 242.482 57.2876C242.564 57.2521 242.651 57.2344 242.743 57.2344C242.835 57.2344 242.922 57.2521 243.004 57.2876C243.085 57.3231 243.156 57.3727 243.217 57.4366C243.281 57.4969 243.33 57.5697 243.366 57.6548C243.405 57.7365 243.424 57.8234 243.424 57.9156ZM246.696 59.5177C246.93 59.5177 247.149 59.5444 247.351 59.5976C247.557 59.6473 247.743 59.7218 247.91 59.8211H249.374V60.1724C249.374 60.2895 249.299 60.364 249.15 60.396L248.538 60.4811C248.659 60.7118 248.719 60.969 248.719 61.2529C248.719 61.5155 248.667 61.755 248.564 61.9715C248.465 62.1844 248.325 62.3671 248.144 62.5197C247.967 62.6723 247.754 62.7894 247.505 62.871C247.26 62.9526 246.991 62.9934 246.696 62.9934C246.444 62.9934 246.207 62.9632 245.983 62.9029C245.869 62.9739 245.783 63.0502 245.722 63.1318C245.665 63.2134 245.637 63.2932 245.637 63.3713C245.637 63.499 245.689 63.5966 245.791 63.664C245.894 63.7279 246.031 63.774 246.201 63.8024C246.372 63.8308 246.565 63.8485 246.781 63.8556C246.998 63.8627 247.218 63.8752 247.441 63.8929C247.669 63.9071 247.89 63.9337 248.107 63.9727C248.323 64.0118 248.517 64.0756 248.687 64.1644C248.857 64.2531 248.994 64.3755 249.097 64.5316C249.2 64.6877 249.251 64.89 249.251 65.1384C249.251 65.369 249.193 65.5926 249.075 65.809C248.962 66.0255 248.797 66.2171 248.58 66.3839C248.364 66.5542 248.1 66.689 247.787 66.7884C247.475 66.8913 247.122 66.9427 246.728 66.9427C246.334 66.9427 245.988 66.9037 245.69 66.8256C245.396 66.7476 245.151 66.6429 244.956 66.5116C244.761 66.3803 244.613 66.2277 244.514 66.0539C244.418 65.8835 244.37 65.7044 244.37 65.5163C244.37 65.2502 244.454 65.0248 244.62 64.8403C244.791 64.6523 245.023 64.5032 245.318 64.3932C245.165 64.3223 245.043 64.2282 244.95 64.1111C244.862 63.9905 244.817 63.8308 244.817 63.6321C244.817 63.554 244.832 63.4742 244.86 63.3926C244.888 63.3074 244.931 63.224 244.988 63.1424C245.048 63.0608 245.121 62.9827 245.206 62.9082C245.291 62.8337 245.39 62.7681 245.504 62.7113C245.238 62.5623 245.029 62.3653 244.876 62.1205C244.727 61.8721 244.652 61.5829 244.652 61.2529C244.652 60.9903 244.702 60.7526 244.801 60.5397C244.904 60.3232 245.046 60.1405 245.227 59.9915C245.408 59.8389 245.623 59.7218 245.871 59.6402C246.123 59.5585 246.398 59.5177 246.696 59.5177ZM248.378 65.2927C248.378 65.1579 248.341 65.0497 248.266 64.9681C248.192 64.8865 248.091 64.8244 247.963 64.7818C247.835 64.7356 247.688 64.7019 247.521 64.6806C247.354 64.6594 247.179 64.6452 246.994 64.6381C246.81 64.6274 246.622 64.6168 246.43 64.6061C246.239 64.5955 246.056 64.576 245.882 64.5476C245.68 64.6434 245.515 64.7605 245.387 64.8989C245.263 65.0373 245.201 65.2023 245.201 65.3939C245.201 65.5145 245.231 65.6263 245.291 65.7292C245.355 65.8356 245.451 65.9261 245.579 66.0006C245.706 66.0787 245.866 66.139 246.058 66.1816C246.253 66.2277 246.482 66.2508 246.744 66.2508C247 66.2508 247.229 66.2277 247.431 66.1816C247.633 66.1355 247.803 66.0698 247.942 65.9847C248.084 65.8995 248.192 65.7984 248.266 65.6813C248.341 65.5642 248.378 65.4347 248.378 65.2927ZM246.696 62.3653C246.888 62.3653 247.056 62.3387 247.202 62.2855C247.351 62.2323 247.475 62.1577 247.574 62.0619C247.674 61.9661 247.748 61.8526 247.798 61.7213C247.848 61.5865 247.873 61.4392 247.873 61.2795C247.873 60.9495 247.771 60.6869 247.569 60.4918C247.37 60.2966 247.079 60.199 246.696 60.199C246.317 60.199 246.026 60.2966 245.823 60.4918C245.625 60.6869 245.525 60.9495 245.525 61.2795C245.525 61.4392 245.55 61.5865 245.6 61.7213C245.653 61.8526 245.729 61.9661 245.829 62.0619C245.928 62.1577 246.05 62.2323 246.196 62.2855C246.341 62.3387 246.508 62.3653 246.696 62.3653ZM250.318 65V57.1598H251.266V60.3321C251.496 60.0873 251.752 59.8921 252.032 59.7466C252.312 59.5976 252.635 59.5231 253.001 59.5231C253.295 59.5231 253.554 59.5727 253.778 59.6721C254.005 59.7679 254.193 59.9063 254.342 60.0873C254.495 60.2647 254.61 60.4794 254.688 60.7313C254.766 60.9832 254.805 61.2618 254.805 61.5669V65H253.858V61.5669C253.858 61.1589 253.764 60.8431 253.576 60.6195C253.391 60.3924 253.107 60.2789 252.724 60.2789C252.444 60.2789 252.181 60.3463 251.936 60.4811C251.695 60.616 251.471 60.7987 251.266 61.0294V65H250.318Z" fill="#4A5462"/>
<path d="M226.254 183.341H227.079C227.171 183.341 227.246 183.364 227.303 183.41C227.359 183.456 227.402 183.514 227.43 183.585L229.586 188.966C229.636 189.087 229.68 189.218 229.719 189.36C229.762 189.502 229.802 189.65 229.842 189.802C229.873 189.65 229.907 189.502 229.943 189.36C229.982 189.218 230.026 189.087 230.076 188.966L232.221 183.585C232.246 183.525 232.288 183.47 232.348 183.42C232.409 183.367 232.483 183.341 232.572 183.341H233.402L230.294 190.968H229.362L226.254 183.341ZM235.745 185.491C236.068 185.491 236.366 185.546 236.639 185.656C236.912 185.762 237.148 185.918 237.347 186.124C237.546 186.326 237.7 186.578 237.81 186.88C237.924 187.178 237.98 187.519 237.98 187.902C237.98 188.051 237.965 188.15 237.933 188.2C237.901 188.25 237.84 188.275 237.752 188.275H234.164C234.171 188.615 234.217 188.911 234.303 189.163C234.388 189.415 234.505 189.626 234.654 189.797C234.803 189.964 234.98 190.09 235.186 190.175C235.392 190.256 235.623 190.297 235.878 190.297C236.116 190.297 236.32 190.271 236.49 190.217C236.664 190.161 236.813 190.1 236.937 190.036C237.061 189.972 237.164 189.914 237.246 189.861C237.331 189.804 237.404 189.776 237.464 189.776C237.542 189.776 237.603 189.806 237.645 189.866L237.911 190.212C237.794 190.354 237.654 190.478 237.491 190.585C237.328 190.687 237.152 190.773 236.964 190.84C236.779 190.907 236.588 190.957 236.389 190.989C236.19 191.025 235.993 191.042 235.798 191.042C235.426 191.042 235.081 190.98 234.766 190.856C234.453 190.728 234.182 190.544 233.951 190.302C233.724 190.058 233.547 189.756 233.419 189.398C233.291 189.039 233.227 188.628 233.227 188.163C233.227 187.787 233.284 187.435 233.398 187.109C233.515 186.782 233.682 186.5 233.898 186.263C234.115 186.021 234.379 185.833 234.691 185.698C235.003 185.56 235.355 185.491 235.745 185.491ZM235.766 186.188C235.309 186.188 234.948 186.321 234.686 186.587C234.423 186.85 234.26 187.215 234.196 187.684H237.129C237.129 187.464 237.099 187.263 237.038 187.082C236.978 186.898 236.889 186.74 236.772 186.609C236.655 186.474 236.511 186.371 236.341 186.3C236.174 186.225 235.983 186.188 235.766 186.188ZM239.193 190.968V185.576H239.736C239.839 185.576 239.91 185.596 239.949 185.635C239.988 185.674 240.015 185.741 240.029 185.837L240.093 186.678C240.277 186.302 240.504 186.009 240.774 185.8C241.047 185.587 241.367 185.48 241.732 185.48C241.881 185.48 242.016 185.498 242.137 185.533C242.257 185.565 242.369 185.611 242.472 185.672L242.349 186.38C242.325 186.468 242.27 186.513 242.184 186.513C242.135 186.513 242.058 186.497 241.956 186.465C241.853 186.429 241.709 186.412 241.524 186.412C241.194 186.412 240.918 186.507 240.694 186.699C240.474 186.891 240.29 187.169 240.141 187.535V190.968H239.193ZM245.067 192.559C245.035 192.63 244.995 192.687 244.945 192.73C244.899 192.772 244.826 192.793 244.727 192.793H244.024L245.009 190.654L242.784 185.576H243.604C243.685 185.576 243.749 185.597 243.795 185.64C243.841 185.679 243.875 185.723 243.896 185.773L245.339 189.169C245.371 189.247 245.397 189.325 245.419 189.403C245.443 189.481 245.465 189.561 245.482 189.642C245.507 189.561 245.532 189.481 245.557 189.403C245.582 189.325 245.61 189.245 245.642 189.163L247.042 185.773C247.063 185.716 247.099 185.67 247.148 185.635C247.202 185.596 247.258 185.576 247.319 185.576H248.075L245.067 192.559ZM257.326 190.968H256.288V187.497H252.179V190.968H251.141V183.341H252.179V186.742H256.288V183.341H257.326V190.968ZM260.092 185.576V190.968H259.145V185.576H260.092ZM260.305 183.883C260.305 183.976 260.286 184.063 260.247 184.144C260.211 184.222 260.162 184.293 260.098 184.357C260.037 184.417 259.966 184.465 259.885 184.501C259.803 184.536 259.716 184.554 259.624 184.554C259.532 184.554 259.445 184.536 259.363 184.501C259.285 184.465 259.214 184.417 259.15 184.357C259.09 184.293 259.042 184.222 259.007 184.144C258.971 184.063 258.953 183.976 258.953 183.883C258.953 183.791 258.971 183.704 259.007 183.623C259.042 183.537 259.09 183.465 259.15 183.404C259.214 183.341 259.285 183.291 259.363 183.255C259.445 183.22 259.532 183.202 259.624 183.202C259.716 183.202 259.803 183.22 259.885 183.255C259.966 183.291 260.037 183.341 260.098 183.404C260.162 183.465 260.211 183.537 260.247 183.623C260.286 183.704 260.305 183.791 260.305 183.883ZM263.577 185.486C263.811 185.486 264.03 185.512 264.232 185.565C264.438 185.615 264.624 185.69 264.791 185.789H266.254V186.14C266.254 186.257 266.18 186.332 266.031 186.364L265.419 186.449C265.539 186.68 265.6 186.937 265.6 187.221C265.6 187.483 265.548 187.723 265.445 187.939C265.346 188.152 265.206 188.335 265.025 188.487C264.847 188.64 264.635 188.757 264.386 188.839C264.141 188.92 263.872 188.961 263.577 188.961C263.325 188.961 263.087 188.931 262.864 188.871C262.75 188.942 262.663 189.018 262.603 189.1C262.546 189.181 262.518 189.261 262.518 189.339C262.518 189.467 262.569 189.564 262.672 189.632C262.775 189.696 262.912 189.742 263.082 189.77C263.252 189.799 263.446 189.816 263.662 189.823C263.879 189.831 264.099 189.843 264.322 189.861C264.549 189.875 264.771 189.901 264.988 189.941C265.204 189.98 265.397 190.043 265.568 190.132C265.738 190.221 265.875 190.343 265.978 190.499C266.08 190.656 266.132 190.858 266.132 191.106C266.132 191.337 266.073 191.56 265.956 191.777C265.843 191.993 265.678 192.185 265.461 192.352C265.245 192.522 264.98 192.657 264.668 192.756C264.356 192.859 264.003 192.911 263.609 192.911C263.215 192.911 262.869 192.871 262.571 192.793C262.277 192.715 262.032 192.611 261.837 192.479C261.641 192.348 261.494 192.196 261.395 192.022C261.299 191.851 261.251 191.672 261.251 191.484C261.251 191.218 261.335 190.993 261.501 190.808C261.672 190.62 261.904 190.471 262.199 190.361C262.046 190.29 261.924 190.196 261.831 190.079C261.743 189.958 261.698 189.799 261.698 189.6C261.698 189.522 261.712 189.442 261.741 189.36C261.769 189.275 261.812 189.192 261.869 189.11C261.929 189.029 262.002 188.951 262.087 188.876C262.172 188.801 262.271 188.736 262.385 188.679C262.119 188.53 261.909 188.333 261.757 188.088C261.608 187.84 261.533 187.551 261.533 187.221C261.533 186.958 261.583 186.72 261.682 186.507C261.785 186.291 261.927 186.108 262.108 185.959C262.289 185.807 262.504 185.69 262.752 185.608C263.004 185.526 263.279 185.486 263.577 185.486ZM265.259 191.261C265.259 191.126 265.222 191.017 265.147 190.936C265.073 190.854 264.972 190.792 264.844 190.75C264.716 190.703 264.569 190.67 264.402 190.648C264.235 190.627 264.06 190.613 263.875 190.606C263.691 190.595 263.503 190.585 263.311 190.574C263.119 190.563 262.937 190.544 262.763 190.515C262.56 190.611 262.395 190.728 262.268 190.867C262.144 191.005 262.081 191.17 262.081 191.362C262.081 191.482 262.112 191.594 262.172 191.697C262.236 191.803 262.332 191.894 262.459 191.968C262.587 192.046 262.747 192.107 262.938 192.149C263.134 192.196 263.362 192.219 263.625 192.219C263.88 192.219 264.109 192.196 264.312 192.149C264.514 192.103 264.684 192.038 264.823 191.952C264.965 191.867 265.073 191.766 265.147 191.649C265.222 191.532 265.259 191.402 265.259 191.261ZM263.577 188.333C263.769 188.333 263.937 188.306 264.083 188.253C264.232 188.2 264.356 188.126 264.455 188.03C264.555 187.934 264.629 187.82 264.679 187.689C264.729 187.554 264.753 187.407 264.753 187.247C264.753 186.917 264.652 186.655 264.45 186.46C264.251 186.264 263.96 186.167 263.577 186.167C263.197 186.167 262.906 186.264 262.704 186.46C262.505 186.655 262.406 186.917 262.406 187.247C262.406 187.407 262.431 187.554 262.481 187.689C262.534 187.82 262.61 187.934 262.71 188.03C262.809 188.126 262.931 188.2 263.077 188.253C263.222 188.306 263.389 188.333 263.577 188.333ZM267.199 190.968V183.128H268.146V186.3C268.377 186.055 268.633 185.86 268.913 185.714C269.193 185.565 269.516 185.491 269.882 185.491C270.176 185.491 270.435 185.541 270.659 185.64C270.886 185.736 271.074 185.874 271.223 186.055C271.375 186.232 271.491 186.447 271.569 186.699C271.647 186.951 271.686 187.23 271.686 187.535V190.968H270.739V187.535C270.739 187.127 270.645 186.811 270.456 186.587C270.272 186.36 269.988 186.247 269.605 186.247C269.325 186.247 269.062 186.314 268.817 186.449C268.576 186.584 268.352 186.766 268.146 186.997V190.968H267.199Z" fill="#4A5462"/>
<defs>
<linearGradient id="paint0_linear_715_443" x1="140" y1="28.4998" x2="130.1" y2="164.32" gradientUnits="userSpaceOnUse">
<stop stop-color="#FFC600"/>
<stop offset="1" stop-color="#38D32A"/>
</linearGradient>
<linearGradient id="paint1_linear_715_443" x1="140" y1="28" x2="254.001" y2="121.432" gradientUnits="userSpaceOnUse">
<stop stop-color="#FFC600"/>
<stop offset="1" stop-color="#FF5152"/>
</linearGradient>
</defs>
</svg>
