<svg width="12" height="18" viewBox="0 0 12 18" fill="none" xmlns="http://www.w3.org/2000/svg">
<path d="M2.61998 12.5L9.37998 12.5L5.99998 15.88L2.61998 12.5ZM5.28998 17.29C5.67998 17.68 6.30998 17.68 6.69998 17.29L11.29 12.7C11.92 12.08 11.48 11 10.59 11L1.41998 11C0.529981 11 0.0799803 12.08 0.70998 12.71L5.28998 17.29ZM1.40998 6.99997L10.59 6.99997C11.48 6.99997 11.93 5.91997 11.3 5.28997L6.70998 0.69997C6.31998 0.30997 5.68998 0.30997 5.29998 0.69997L0.709981 5.28997C0.0799806 5.91997 0.519981 6.99997 1.40998 6.99997Z" fill="#A7B1BC"/>
</svg>
