<svg width="30" height="32" viewBox="0 0 30 32" fill="none" xmlns="http://www.w3.org/2000/svg">
<path d="M0.750036 7.14209C0.746692 6.75932 0.978078 6.41332 1.33326 6.26992L1.38998 6.24702L14.6492 0.816218L14.6534 0.814508L14.6534 0.814545C14.7326 0.783744 14.8154 0.764417 14.8985 0.756183C15.034 0.740506 15.1708 0.754789 15.2995 0.797326H15.3055L15.351 0.81598L28.6667 6.26992C28.667 6.27001 28.6672 6.2701 28.6674 6.27018C29.0222 6.41374 29.2533 6.75952 29.25 7.14205M0.750036 7.14209V7.14092H1.00004L0.750049 7.14347C0.750044 7.14301 0.75004 7.14255 0.750036 7.14209ZM0.750036 7.14209L0.750032 24.8674L0.750039 24.8687C0.751992 25.2467 0.982353 25.5857 1.33268 25.7274L1.3321 25.7272L1.42686 25.4958M1.42686 25.4958L1.33326 25.7277L14.649 31.1816L14.6945 31.2002H14.6992M1.42686 25.4958L14.7437 30.9502H14.744M1.42686 25.4958C1.1701 25.3922 1.00146 25.1439 1.00004 24.8674L15.256 30.9502M14.6992 31.2002C14.9106 31.2722 15.1417 31.2661 15.3497 31.182L15.3508 31.1816L28.6505 25.7342M14.6992 31.2002C14.6828 31.1946 14.6665 31.1886 14.6503 31.182L14.7437 30.9508L14.744 30.9502M14.6992 31.2002H14.7437H14.744V30.9502M28.6505 25.7342L28.6667 25.7276C29.0174 25.5861 29.248 25.2469 29.25 24.8687V24.8674V7.14205M28.6505 25.7342L28.6217 25.7458H28.5731H28.5729V25.4958M28.6505 25.7342L28.6667 25.7276L28.6677 25.7272L28.5897 25.5369L28.5731 25.4964L28.5729 25.4958M29.25 7.14205V7.14092H29L29.25 7.14346C29.25 7.14299 29.25 7.14252 29.25 7.14205ZM28.5729 25.4958L15.256 30.9502M28.5729 25.4958H28.5731C28.8299 25.3922 28.9985 25.1439 29 24.8674L15.256 30.9502M15.256 30.9502C15.0919 31.0166 14.9081 31.0166 14.744 30.9502M1.4271 6.50198L1.42686 6.50174L1.4271 6.50198ZM4.15643 7.14057L15 2.6917L25.8436 7.14057L15 11.5792L4.15643 7.14057ZM2.61606 24.2312V8.52558L14.0671 13.2209V28.9265L2.61606 24.2312ZM15.9329 13.2209L27.3839 8.52558V24.2312L15.9329 28.9265V13.2209Z" fill="#FF794C" stroke="#FF794C" stroke-width="0.5"/>
</svg>
