<svg width="28" height="28" viewBox="0 0 28 28" fill="none" xmlns="http://www.w3.org/2000/svg">
<path d="M20.8217 10.4998V10.5516C20.811 12.7511 20.1212 14.8115 18.8879 16.5312L18.8383 16.6003L18.8986 16.6603L27.4063 25.1304L27.4062 25.1305L27.4098 25.1338C28.0612 25.7225 28.0668 26.7758 27.406 27.4392L27.4059 27.4392C27.0797 27.7672 26.6886 27.9 26.2218 27.9C25.7554 27.9 25.3643 27.7672 25.0375 27.4392L16.5989 18.9691L16.5386 18.9086L16.4695 18.9586C14.7428 20.2063 12.6714 20.8996 10.4609 20.8996C4.72809 20.8996 0.1 16.2548 0.1 10.4998C0.1 4.7448 4.72809 0.1 10.4609 0.1C16.1936 0.1 20.8217 4.7448 20.8217 10.4998ZM3.38695 10.4998C3.38695 14.4048 6.56951 17.5997 10.4609 17.5997C14.3522 17.5997 17.5348 14.4048 17.5348 10.4998C17.5348 6.59488 14.3522 3.39994 10.4609 3.39994C6.56951 3.39994 3.38695 6.59488 3.38695 10.4998Z" fill="#20BFA9" stroke="#EEF3E9" stroke-width="0.2"/>
</svg>
