<svg width="30" height="30" viewBox="0 0 30 30" fill="none" xmlns="http://www.w3.org/2000/svg">
<path d="M28.9288 13.9284H27.8573C27.6004 10.8939 26.2749 8.049 24.1167 5.90056C21.9582 3.75202 19.1072 2.43939 16.0716 2.1962V1.07119C16.0716 0.479631 15.5916 0 15 0C14.4084 0 13.9284 0.47964 13.9284 1.07119V2.1962C10.9025 2.45126 8.06416 3.76929 5.91672 5.91672C3.76929 8.06416 2.45133 10.9025 2.1962 13.9284H1.07119C0.479631 13.9284 0 14.4084 0 15C0 15.5916 0.47964 16.0716 1.07119 16.0716H2.1962C2.43942 19.1072 3.75202 21.9582 5.90056 24.1167C8.0491 26.2749 10.8939 27.6005 13.9284 27.8572V28.9288C13.9284 29.5204 14.4084 30 15 30C15.5916 30 16.0716 29.5204 16.0716 28.9288V27.8572C19.1155 27.6126 21.9732 26.2924 24.1328 24.1328C26.2924 21.9731 27.6126 19.1154 27.8573 16.0716H28.9288C29.5204 16.0716 30 15.5916 30 15C30 14.4084 29.5204 13.9284 28.9288 13.9284ZM16.0716 25.6074V24.6431C16.0716 24.0516 15.5916 23.5716 15 23.5716C14.4084 23.5716 13.9284 24.0516 13.9284 24.6431V25.6074C11.4872 25.3509 9.20818 24.2636 7.47217 22.528C5.73663 20.7921 4.64927 18.513 4.39277 16.0717H5.35706C5.94863 16.0717 6.42863 15.5917 6.42863 15.0002C6.42863 14.4086 5.94863 13.9286 5.35706 13.9286H4.39277C4.64927 11.4874 5.73663 9.20836 7.47217 7.47236C9.20808 5.73681 11.4872 4.64946 13.9284 4.39295V5.35725C13.9284 5.94881 14.4084 6.42881 15 6.42881C15.5916 6.42881 16.0716 5.94881 16.0716 5.35725V4.39295C18.5128 4.64946 20.7918 5.73681 22.5278 7.47236C24.2634 9.20827 25.3507 11.4874 25.6072 13.9286H24.6429C24.0514 13.9286 23.5714 14.4086 23.5714 15.0002C23.5714 15.5917 24.0514 16.0717 24.6429 16.0717H25.6072C25.3507 18.513 24.2634 20.792 22.5278 22.528C20.7919 24.2636 18.5128 25.3509 16.0716 25.6074Z" fill="#FF4C82"/>
</svg>
