<svg width="44" height="41" viewBox="0 0 44 41" fill="none" xmlns="http://www.w3.org/2000/svg">
<path fill-rule="evenodd" clip-rule="evenodd" d="M16.8822 41C21.7661 41 25.7253 37.0408 25.7253 32.1569C25.7253 27.2729 21.7661 23.3137 16.8822 23.3137C11.9983 23.3137 8.03906 27.2729 8.03906 32.1569C8.03906 37.0408 11.9983 41 16.8822 41ZM17.6257 29.5292H19.4509V28.5157H14.2868V29.5721H15.3711C15.7934 29.5721 16.128 29.6472 16.375 29.7973C16.6255 29.9439 16.7937 30.1477 16.8796 30.4087H14.2814V31.4275H16.8474C16.7472 31.6778 16.5736 31.8798 16.3267 32.0335C16.0833 32.1872 15.7576 32.2641 15.3496 32.2641H14.2868V33.2401H15.296C15.4391 33.2401 15.5465 33.2598 15.6181 33.2991C15.6932 33.3384 15.7612 33.4046 15.822 33.4975L17.454 35.9804C17.5685 36.1734 17.7474 36.27 17.9908 36.27H19.2952L17.352 33.4063C17.2768 33.2919 17.1909 33.1936 17.0943 33.1114C17.0013 33.0292 16.8993 32.963 16.7883 32.913C17.1891 32.77 17.513 32.5698 17.7599 32.3124C18.0069 32.055 18.1715 31.76 18.2538 31.4275H19.4509V30.4087H18.2592C18.2162 30.2335 18.1447 30.0726 18.0445 29.926C17.9443 29.7759 17.8047 29.6436 17.6257 29.5292Z" fill="#213053"/>
<path fill-rule="evenodd" clip-rule="evenodd" d="M4.01961 27.3334C6.23958 27.3334 8.03922 25.5338 8.03922 23.3138C8.03922 21.0938 6.23958 19.2942 4.01961 19.2942C1.79964 19.2942 0 21.0938 0 23.3138C0 25.5338 1.79964 27.3334 4.01961 27.3334ZM4.35783 22.1193H5.18746V21.6586H2.84011V22.1388H3.333C3.52496 22.1388 3.67705 22.1729 3.7893 22.2412C3.90317 22.3078 3.97962 22.4004 4.01866 22.519H2.83767V22.9822H4.00402C3.95848 23.0959 3.87958 23.1877 3.76734 23.2576C3.65672 23.3275 3.50869 23.3624 3.32324 23.3624H2.84011V23.8061H3.29884C3.36391 23.8061 3.41271 23.815 3.44525 23.8329C3.47941 23.8507 3.51032 23.8808 3.53797 23.9231L4.27975 25.0516C4.33181 25.1394 4.41314 25.1833 4.52376 25.1833H5.1167L4.23339 23.8816C4.19923 23.8296 4.16019 23.7849 4.11627 23.7476C4.07397 23.7102 4.02761 23.6801 3.97718 23.6574C4.15938 23.5924 4.30659 23.5014 4.41884 23.3844C4.53108 23.2674 4.60591 23.1333 4.64332 22.9822H5.18746V22.519H4.64576C4.62624 22.4394 4.59371 22.3663 4.54816 22.2997C4.50261 22.2314 4.43917 22.1713 4.35783 22.1193Z" fill="#213053"/>
<path d="M36.2554 17.3617H35.0086L34.5667 16.9356C36.4606 14.7261 37.4391 11.7116 36.9025 8.50776C36.1607 4.12022 32.4992 0.616505 28.0801 0.0798999C21.4041 -0.74079 15.7855 4.87778 16.6062 11.5538C17.1428 15.9729 20.6465 19.6344 25.034 20.3762C28.2379 20.9128 31.2523 19.9343 33.4619 18.0404L33.888 18.4823V19.7291L40.5956 26.4367C41.2427 27.0838 42.3001 27.0838 42.9472 26.4367C43.5943 25.7896 43.5943 24.7322 42.9472 24.0851L36.2554 17.3617ZM26.7859 17.3617C22.856 17.3617 19.6838 14.1895 19.6838 10.2596C19.6838 6.32977 22.856 3.15749 26.7859 3.15749C30.7157 3.15749 33.888 6.32977 33.888 10.2596C33.888 14.1895 30.7157 17.3617 26.7859 17.3617Z" fill="#F6821F"/>
</svg>
