<svg width="36" height="43" viewBox="0 0 36 43" fill="none" xmlns="http://www.w3.org/2000/svg">
<path d="M27.4745 11.8126C28.6281 9.42583 27.9551 6.67445 27.4745 5.5971C26.5596 2.97167 23.7784 2.61367 22.5022 2.76285C20.1155 0.495443 17.0657 0.889918 15.8392 1.37058C9.8226 1.47003 8.33083 6.19379 8.33083 8.03357C8.33083 9.50539 8.76181 11.6634 8.9773 12.5584C8.18172 12.5584 8.33083 12.7076 7.68442 13.5529C7.1673 14.2291 7.89989 17.3816 8.33083 18.8733L10.1706 20.0667C11.7618 23.5474 13.8999 26.5805 18.8723 26.5308C22.8502 26.491 24.9386 22.9341 25.4855 21.1606C25.5518 20.7794 25.8734 19.8977 26.6292 19.4203C29.1651 17.8789 28.5187 15.5916 28.6181 14.0004C28.6977 12.7275 27.8888 12.0115 27.4745 11.8126Z" stroke="#213053" stroke-width="2"/>
<path fill-rule="evenodd" clip-rule="evenodd" d="M8.9303 12.2956C9.37722 11.8805 10.9719 11.3923 13.9711 11.3923C14.774 11.3923 15.6382 11.416 16.5196 11.4402C20.0591 11.5373 23.8751 11.642 25.1092 10.2486C25.3081 10.5304 26.0142 11.2531 27.2473 11.8895L27.5477 11.7271C28.6272 9.367 27.9678 6.68464 27.4947 5.6242C26.5798 2.99877 23.7986 2.64077 22.5224 2.78995C20.1357 0.522543 17.0859 0.917018 15.8594 1.39768C9.84281 1.49713 8.35104 6.22089 8.35104 8.06066C8.35104 9.39166 8.70349 11.2838 8.9303 12.2956Z" fill="#213053"/>
<path d="M8.9303 12.2956L8.44241 12.405L8.6328 13.2543L9.27057 12.662L8.9303 12.2956ZM16.5196 11.4402L16.5333 10.9404L16.5196 11.4402ZM25.1092 10.2486L25.5177 9.96029L25.1536 9.44445L24.7349 9.91712L25.1092 10.2486ZM27.2473 11.8895L27.018 12.3338L27.2528 12.455L27.4853 12.3293L27.2473 11.8895ZM27.5477 11.7271L27.7856 12.1668L27.9327 12.0872L28.0023 11.935L27.5477 11.7271ZM27.4947 5.6242L27.0225 5.78874L27.0295 5.80866L27.0381 5.82792L27.4947 5.6242ZM22.5224 2.78995L22.178 3.15244L22.3478 3.31376L22.5804 3.28657L22.5224 2.78995ZM15.8594 1.39768L15.8676 1.89761L15.9578 1.89612L16.0418 1.86321L15.8594 1.39768ZM13.9711 10.8923C12.4465 10.8923 11.2623 11.0162 10.391 11.1989C9.95548 11.2903 9.59118 11.3977 9.29831 11.5154C9.01252 11.6302 8.76555 11.7663 8.59003 11.9293L9.27057 12.662C9.31851 12.6175 9.43848 12.5368 9.67112 12.4433C9.89668 12.3527 10.2023 12.2603 10.5962 12.1776C11.3838 12.0125 12.4966 11.8923 13.9711 11.8923V10.8923ZM16.5333 10.9404C15.6535 10.9162 14.7822 10.8923 13.9711 10.8923V11.8923C14.7659 11.8923 15.623 11.9158 16.5058 11.94L16.5333 10.9404ZM24.7349 9.91712C24.5106 10.1703 24.137 10.3885 23.5941 10.5594C23.0557 10.7288 22.3922 10.8389 21.6353 10.9053C20.119 11.0381 18.3111 10.9892 16.5333 10.9404L16.5058 11.94C18.2675 11.9883 20.1375 12.0403 21.7226 11.9014C22.5163 11.8319 23.2594 11.713 23.8943 11.5132C24.5245 11.3149 25.0907 11.0236 25.4835 10.5802L24.7349 9.91712ZM27.4767 11.4452C26.3003 10.838 25.6616 10.1642 25.5177 9.96029L24.7007 10.537C24.9546 10.8966 25.7281 11.6681 27.018 12.3338L27.4767 11.4452ZM27.3097 11.2873L27.0094 11.4497L27.4853 12.3293L27.7856 12.1668L27.3097 11.2873ZM28.0023 11.935C29.1652 9.39291 28.455 6.54954 27.9513 5.42048L27.0381 5.82792C27.4806 6.81974 28.0892 9.34108 27.093 11.5191L28.0023 11.935ZM27.9668 5.45966C27.4535 3.98646 26.4085 3.1465 25.3344 2.70425C24.2746 2.26791 23.1728 2.21051 22.4643 2.29333L22.5804 3.28657C23.1481 3.2202 24.0751 3.26722 24.9537 3.62894C25.8179 3.98476 26.621 4.63652 27.0225 5.78874L27.9668 5.45966ZM22.8667 2.42745C20.2911 -0.0194499 17.0128 0.408666 15.677 0.932152L16.0418 1.86321C17.1591 1.42537 19.9802 1.06454 22.178 3.15244L22.8667 2.42745ZM15.8511 0.897749C12.694 0.949933 10.6755 2.22454 9.45674 3.7665C8.25622 5.28537 7.85104 7.03784 7.85104 8.06066H8.85104C8.85104 7.24371 9.19175 5.71441 10.2413 4.3866C11.2725 3.08187 13.0082 1.94488 15.8676 1.89761L15.8511 0.897749ZM7.85104 8.06066C7.85104 9.4507 8.21461 11.3888 8.44241 12.405L9.41819 12.1863C9.19237 11.1789 8.85104 9.33262 8.85104 8.06066H7.85104Z" fill="#213053"/>
<path fill-rule="evenodd" clip-rule="evenodd" d="M13.7238 27.9006L13.1769 27.1051C12.9448 27.1051 12.2818 27.3238 11.4862 28.199C11.071 28.6557 10.3266 28.679 9.32514 28.7105C7.92778 28.7544 6.03011 28.814 3.82873 30.0885C0.805525 31.8388 0.0165746 36.9504 0 39.2874H13.6321C13.6992 39.443 13.7238 39.4011 13.7238 39.2874H13.6321C13.5135 39.0119 13.262 38.1174 12.7791 35.9062C12.0233 32.4454 13.094 29.1272 13.7238 27.9006ZM22.2762 27.9007L22.8231 27.1051C23.0552 27.1051 23.7182 27.3239 24.5138 28.199C24.929 28.6557 25.6734 28.6791 26.6749 28.7105C28.0722 28.7544 29.9699 28.814 32.1713 30.0885C35.1945 31.8388 35.9834 36.9504 36 39.2874H22.3679C22.4865 39.0119 22.738 38.1175 23.2209 35.9062C23.9767 32.4454 22.906 29.1272 22.2762 27.9007ZM22.2762 39.2874C22.2762 39.4011 22.3008 39.4431 22.3679 39.2874H22.2762Z" fill="#213053"/>
<path fill-rule="evenodd" clip-rule="evenodd" d="M18.6949 32.5249L21.4297 38.989L18.0484 42.42L18.0238 41.4385L17.9992 42.42L14.618 38.9891L17.3528 32.525C17.1539 32.177 16.6368 31.3615 16.1594 30.8841C15.6821 30.4068 15.4633 29.525 15.4136 29.1438L17.7037 28.678L17.7004 28.547L18.024 28.6129L18.3473 28.5471L18.344 28.6779L20.6341 29.1437C20.5844 29.5249 20.3656 30.4067 19.8882 30.884C19.4109 31.3614 18.8937 32.1769 18.6949 32.5249Z" fill="#F6821F"/>
</svg>
