<svg width="45" height="32" viewBox="0 0 45 32" fill="none" xmlns="http://www.w3.org/2000/svg">
<path fill-rule="evenodd" clip-rule="evenodd" d="M42.75 1C42.75 0.447715 42.3023 0 41.75 0H1C0.447715 0 0 0.447715 0 1V31C0 31.5523 0.447717 32 1 32H41.75C42.3023 32 42.75 31.5523 42.75 31V23.8571C42.75 23.3049 42.3023 22.8571 41.75 22.8571H25.75C25.1977 22.8571 24.75 22.4094 24.75 21.8571V10.1429C24.75 9.59057 25.1977 9.14286 25.75 9.14286H41.75C42.3023 9.14286 42.75 8.69514 42.75 8.14286V1ZM4.5 7.41964C4.5 7.10898 4.75184 6.85714 5.0625 6.85714C5.37316 6.85714 5.625 7.10898 5.625 7.41964V24.5804C5.625 24.891 5.37316 25.1429 5.0625 25.1429C4.75184 25.1429 4.5 24.891 4.5 24.5804V7.41964Z" fill="url(#paint0_linear_731_1726)"/>
<path fill-rule="evenodd" clip-rule="evenodd" d="M27 12.4286C27 11.8763 27.4477 11.4286 28 11.4286H44C44.5523 11.4286 45 11.8763 45 12.4286V19.5714C45 20.1237 44.5523 20.5714 44 20.5714H28C27.4477 20.5714 27 20.1237 27 19.5714V12.4286ZM33.75 16C33.75 17.2624 32.7426 18.2857 31.5 18.2857C30.2574 18.2857 29.25 17.2624 29.25 16C29.25 14.7376 30.2574 13.7143 31.5 13.7143C32.7426 13.7143 33.75 14.7376 33.75 16Z" fill="url(#paint1_linear_731_1726)"/>
<defs>
<linearGradient id="paint0_linear_731_1726" x1="5.21366" y1="43.4286" x2="29.6664" y2="-20.255" gradientUnits="userSpaceOnUse">
<stop stop-color="#3EC87B"/>
<stop offset="1" stop-color="#6AFFAD"/>
</linearGradient>
<linearGradient id="paint1_linear_731_1726" x1="5.21366" y1="43.4286" x2="29.6664" y2="-20.255" gradientUnits="userSpaceOnUse">
<stop stop-color="#3EC87B"/>
<stop offset="1" stop-color="#6AFFAD"/>
</linearGradient>
</defs>
</svg>
